<svg width="163" height="94" viewBox="0 0 163 94" fill="none" xmlns="http://www.w3.org/2000/svg">
<g clip-path="url(#clip0_307_1588)">
<path fill-rule="evenodd" clip-rule="evenodd" d="M68.5599 8.79413C68.5599 8.79413 81.4939 -1.01002 95.179 3.26831C108.865 7.54663 109.295 23.8977 104.338 34.8702C99.3799 45.8425 89.0111 51.8048 78.6292 50.093C67.7128 48.293 59.016 40.4552 56.2836 32.1613C53.6182 24.0701 57.3764 17.377 68.5599 8.79413Z" fill="#5BC0C7"/>
<path fill-rule="evenodd" clip-rule="evenodd" d="M100.022 20.5825C100.131 24.4906 92.1493 27.8822 82.1929 28.1577C72.2369 28.4333 64.0773 25.4884 63.9679 21.5804C63.8585 17.672 71.8409 14.2807 81.7969 14.0052C91.7533 13.7293 99.9129 16.6745 100.022 20.5825Z" fill="#402483"/>
<path fill-rule="evenodd" clip-rule="evenodd" d="M88.7432 27.9884C88.7432 33.9355 85.2723 38.7567 80.9907 38.7567C76.7091 38.7567 73.2383 33.9355 73.2383 27.9884C73.2383 22.0413 76.6521 19.7979 80.9337 19.7979C85.2153 19.7979 88.7432 22.0413 88.7432 27.9884Z" fill="#F9D8D6"/>
<path fill-rule="evenodd" clip-rule="evenodd" d="M75.1586 0.746484C75.1586 0.746484 72.476 1.86611 73.1846 3.34576C73.8932 4.82578 75.1238 4.17044 75.684 5.68472C76.2441 7.19899 76.1967 8.54848 75.3442 10.411C74.4917 12.2735 73.2462 13.9137 75.3113 13.1564C77.3763 12.3994 79.9656 12.3035 82.1293 12.3492C84.2931 12.3953 88.7553 13.0502 90.1607 13.7413C90.4565 13.8665 89.3721 8.21625 87.3124 5.13784C85.2527 2.0602 80.9956 -1.59933 75.1586 0.746484Z" fill="#402483"/>
<path fill-rule="evenodd" clip-rule="evenodd" d="M82.7443 22.2439C82.4501 22.3668 82.2343 22.6268 82.1842 22.9404C82.0985 23.4773 82.0977 24.2388 82.8649 23.9751C83.9439 23.6041 84.3212 22.5811 86.1903 23.5173C87.1476 23.9968 87.6523 25.0795 87.8601 24.7789C88.0679 24.4782 87.7376 23.7654 86.9295 23.0267C86.1769 22.3387 84.7378 21.4124 82.7443 22.2439Z" fill="#402483"/>
<path fill-rule="evenodd" clip-rule="evenodd" d="M83.5657 25.1797C83.4674 25.3202 83.6247 25.4987 83.7766 25.4184C84.0666 25.2646 84.5648 25.211 84.9815 25.2475C85.8412 25.3225 86.6593 25.9668 86.7557 25.9143C86.8518 25.8618 85.7245 23.9216 84.5663 24.3128C84.1156 24.465 83.7609 24.9008 83.5657 25.1797Z" fill="#402483"/>
<path fill-rule="evenodd" clip-rule="evenodd" d="M79.9251 22.1033C80.255 22.2201 80.5071 22.4914 80.581 22.8321C80.7076 23.4147 80.7551 24.2485 79.8991 24.0061C78.695 23.6647 78.2201 22.5676 76.2305 23.7051C75.2115 24.2873 74.7248 25.5033 74.4792 25.1866C74.2335 24.87 74.5515 24.0697 75.3914 23.2122C76.1727 22.4134 77.6921 21.3128 79.9251 22.1033Z" fill="#402483"/>
<path fill-rule="evenodd" clip-rule="evenodd" d="M79.2594 25.2473C79.3669 25.4015 79.1947 25.5971 79.0283 25.5088C78.7103 25.3402 78.2841 25.1868 77.8276 25.2268C76.8848 25.309 75.8674 26.1105 75.7622 26.0526C75.6569 25.9948 76.8856 23.7909 78.2588 24.3854C78.7367 24.592 79.0455 24.941 79.2594 25.2473Z" fill="#402483"/>
<path fill-rule="evenodd" clip-rule="evenodd" d="M69.0896 35.7878L59.752 38.7259C59.752 38.7259 67.5717 50.4538 82.4836 50.4538C96.2816 50.4538 102.182 38.8739 102.182 38.8739L90.8895 34.5117L69.0896 35.7878Z" fill="#402483"/>
<path fill-rule="evenodd" clip-rule="evenodd" d="M91.979 30.1143H81.4414H81.3427H70.8051C70.8051 30.1143 67.9277 33.0401 69.4406 36.2372C70.8682 39.253 80.2824 45.1244 81.3423 45.7786V45.8395C81.3423 45.8395 81.3603 45.8285 81.3917 45.8091C81.423 45.8285 81.441 45.8395 81.441 45.8395V45.7786C82.5013 45.1244 91.9151 39.253 93.3427 36.2372C94.8568 33.0404 91.979 30.1143 91.979 30.1143Z" fill="white"/>
<path fill-rule="evenodd" clip-rule="evenodd" d="M93.7668 32.2773C93.5582 31.8556 93.3103 31.456 93.021 31.0857C92.8768 30.9004 92.7271 30.72 92.5653 30.5487C92.4846 30.4631 92.4019 30.3786 92.317 30.2968C92.2745 30.2557 92.2316 30.215 92.1876 30.1754L92.1207 30.1164L92.0866 30.0871L92.0694 30.0726L92.0583 30.0627C92.0468 30.0521 92.0331 30.0429 92.0193 30.0361C90.3426 29.8447 88.589 29.7099 86.8079 29.603C85.0264 29.4968 83.21 29.4268 81.3933 29.3861L80.0698 29.361L78.7466 29.3465C77.8643 29.337 76.9823 29.3416 76.1 29.3633C74.3357 29.3994 72.571 29.5235 70.8067 29.6346L70.7313 29.6392C70.6081 29.6475 70.4895 29.7008 70.408 29.796C70.3135 29.9063 70.2473 29.9965 70.1738 30.0974C70.1027 30.1956 70.0353 30.2949 69.9699 30.395C69.8394 30.5948 69.7174 30.7976 69.6056 31.0046C69.3807 31.4179 69.1928 31.8461 69.0432 32.2852C68.8974 32.7252 68.7922 33.1765 68.7405 33.6344C68.7187 33.8638 68.7042 34.0937 68.7122 34.3239L68.7156 34.4967L68.7294 34.6691C68.7355 34.7844 68.7547 34.8986 68.7711 35.0128C68.8423 35.4694 68.9774 35.9181 69.1733 36.344C69.3791 36.7839 69.6596 37.1649 69.9519 37.531C70.5396 38.2634 71.1997 38.9271 71.8727 39.5779C73.228 40.8695 74.6556 42.0942 76.1563 43.234C76.9047 43.8059 77.6722 44.3562 78.4497 44.8936C79.1377 45.3705 79.8306 45.8389 80.5343 46.3025C80.5381 46.3082 80.5408 46.3143 80.545 46.3196C80.7306 46.5769 81.0451 46.7101 81.3623 46.7013C81.3856 46.7032 81.409 46.707 81.4327 46.7074C81.7618 46.7142 82.0541 46.5673 82.2282 46.3401C83.7893 45.4127 85.3076 44.4449 86.7765 43.4041C87.5479 42.8553 88.3097 42.2924 89.0497 41.7026C89.7928 41.1161 90.5167 40.5053 91.2165 39.8633C91.5624 39.5371 91.9091 39.2121 92.237 38.8632C92.5668 38.518 92.8886 38.1595 93.1852 37.7719C93.4805 37.3833 93.7679 36.9788 93.9734 36.4821C94.1612 36.0201 94.2791 35.5357 94.3227 35.0504C94.4096 34.0762 94.1823 33.1187 93.7668 32.2773ZM93.1396 34.9039C93.052 35.2864 92.9081 35.6536 92.713 35.9969C92.5312 36.3063 92.263 36.6298 91.9703 36.9365C91.6765 37.2444 91.3596 37.5485 91.0229 37.8404C90.6908 38.1347 90.3418 38.4221 89.9894 38.7056C88.5676 39.8351 87.0531 40.8996 85.5265 41.9511C84.149 42.8964 82.7593 43.8413 81.3615 44.7638C80.7325 44.3894 80.1042 44.0084 79.4828 43.6206C78.69 43.1251 77.9033 42.622 77.1147 42.1212C75.5452 41.1119 73.9626 40.1106 72.4956 38.991C72.1306 38.7105 71.7755 38.4194 71.4338 38.1191C71.0883 37.8217 70.7646 37.5066 70.4666 37.1778C70.1708 36.8494 69.8957 36.5019 69.7143 36.1362C69.5272 35.7568 69.4002 35.3538 69.3401 34.9427C69.0933 33.3683 69.8972 31.7517 71.0271 30.6088C72.7179 30.7158 74.4092 30.8311 76.1 30.8661C76.9823 30.8878 77.8647 30.8924 78.7466 30.8829L80.0698 30.8684L81.3933 30.8433C83.1056 30.8026 84.8182 30.7325 86.5657 30.6264C88.3086 30.5198 90.0794 30.3855 91.9259 30.1952L91.9332 30.2051L91.9573 30.2389L92.0047 30.3074L92.0973 30.4463C92.1586 30.5392 92.2163 30.634 92.2726 30.7295C92.3832 30.9209 92.4907 31.1123 92.5856 31.3087C92.7734 31.7015 92.9338 32.1007 93.047 32.5056C93.1568 32.9113 93.2295 33.3185 93.2502 33.7219C93.267 34.1241 93.2242 34.5215 93.1396 34.9039Z" fill="#402483"/>
<path fill-rule="evenodd" clip-rule="evenodd" d="M77.4346 30.6304C77.4346 30.6304 77.6787 34.2081 81.2226 34.2081C84.7665 34.2081 85.0106 30.6304 85.0106 30.6304H77.4346Z" fill="#402483"/>
<path fill-rule="evenodd" clip-rule="evenodd" d="M104.628 22.9553L102.785 22.5173L100.997 23.1369L101.437 21.3044L100.814 19.5253L102.657 19.9633L104.446 19.3438L104.005 21.1762L104.628 22.9553Z" fill="white"/>
<path fill-rule="evenodd" clip-rule="evenodd" d="M81.5016 10.0547L80.4789 8.46929L78.7578 7.68266L80.3518 6.6654L81.1427 4.95361L82.1655 6.53944L83.8866 7.32569L82.2922 8.34294L81.5016 10.0547Z" fill="white"/>
<path fill-rule="evenodd" clip-rule="evenodd" d="M102.208 17.0083L100.862 16.6878L99.5541 17.1407L99.8762 15.8015L99.4209 14.5011L100.767 14.8216L102.075 14.3687L101.753 15.7079L102.208 17.0083Z" fill="white"/>
<path fill-rule="evenodd" clip-rule="evenodd" d="M97.4112 12.9339L96.4871 12.714L95.5895 13.0249L95.8107 12.1058L95.498 11.213L96.4225 11.433L97.3197 11.1221L97.099 12.0415L97.4112 12.9339Z" fill="white"/>
<path fill-rule="evenodd" clip-rule="evenodd" d="M81.0352 29.6444C81.0352 29.6444 81.3746 28.0225 82.4341 27.5296C83.4936 27.0368 85.0738 27.4687 86.498 28.3562C87.9221 29.2433 89.7687 29.8381 91.6493 28.6378C93.5299 27.4379 94.2799 26.1215 94.0369 26.7399C93.7939 27.358 92.1842 31.3779 89.1886 32.6505C86.8427 33.6476 81.7032 33.2503 81.0352 29.6444Z" fill="white"/>
<path fill-rule="evenodd" clip-rule="evenodd" d="M94.142 26.8472C94.093 26.8537 94.0789 26.8731 93.9664 26.8358C93.8677 26.7928 93.8309 26.7163 93.8152 26.6687C93.806 26.6463 93.8038 26.5991 93.8038 26.5991C93.803 26.5907 93.8045 26.5759 93.8045 26.5728L93.8053 26.5633C93.806 26.5557 93.8045 26.5599 93.8022 26.5641L93.7001 26.776L93.5826 27.0029C93.5015 27.1528 93.4204 27.302 93.3343 27.4493C93.275 27.5513 93.213 27.6517 93.1514 27.7522C93.2799 27.643 93.4123 27.5383 93.5378 27.4253C93.6683 27.3058 93.8007 27.1874 93.9277 27.066L94.1183 26.8898C94.1443 26.8662 94.1707 26.8434 94.1914 26.827C94.1898 26.8278 94.1887 26.8289 94.1871 26.8297C94.1806 26.8328 94.1573 26.8438 94.142 26.8472Z" fill="#402483"/>
<path fill-rule="evenodd" clip-rule="evenodd" d="M94.3456 26.5097C94.3277 26.4576 94.289 26.3746 94.1845 26.3304C94.0671 26.2897 94.0472 26.3122 93.9929 26.3187C93.9726 26.3244 93.9439 26.3369 93.9328 26.343L93.9029 26.3609L93.885 26.3738C93.8631 26.3906 93.8517 26.402 93.8398 26.413C93.7966 26.4557 93.7682 26.4891 93.738 26.5242L93.5685 26.7243C93.4553 26.8537 93.3435 26.9824 93.2249 27.1049C92.7539 27.5974 92.2224 28.035 91.6393 28.3893C91.0692 28.7478 90.4187 28.9339 89.7839 28.9263C89.4667 28.9293 89.1537 28.8738 88.8518 28.7961C88.5488 28.7185 88.2549 28.6062 87.968 28.4753C87.681 28.3436 87.3986 28.199 87.1216 28.0339L86.6896 27.7751C86.532 27.6773 86.3651 27.5932 86.1998 27.5072C85.5337 27.1742 84.8098 26.9218 84.0277 26.8492C83.6378 26.8141 83.2299 26.8317 82.8289 26.9371C82.729 26.9584 82.6303 27.0021 82.5323 27.0349C82.4352 27.0748 82.3403 27.1213 82.2469 27.1707C82.0598 27.2853 81.8876 27.4154 81.7533 27.5696C81.4774 27.8729 81.2987 28.2169 81.1786 28.5659C81.1155 28.7398 81.0738 28.9179 81.0355 29.0945C81.0164 29.1828 81.0037 29.2722 80.9919 29.3617L80.9773 29.4956L80.9724 29.563L80.9678 29.6444C80.9777 30.0159 81.0447 30.3755 81.1648 30.7256C81.2869 31.0757 81.4725 31.4099 81.7051 31.7094C81.9358 32.0112 82.2102 32.2818 82.5128 32.5143C82.8174 32.7441 83.1461 32.9386 83.4885 33.1011C84.1734 33.4292 84.9085 33.6221 85.6508 33.7256C86.3942 33.8242 87.1495 33.8326 87.9041 33.7264C88.2813 33.672 88.6582 33.5901 89.0344 33.4657C89.1281 33.4337 89.2218 33.4021 89.3156 33.3626L89.456 33.3059C89.5012 33.2853 89.5444 33.2621 89.5888 33.2404C89.7637 33.1513 89.9404 33.0627 90.1095 32.966C90.7799 32.5634 91.3424 32.0447 91.8375 31.4932C92.3307 30.9384 92.7596 30.3435 93.1109 29.7118C93.4679 29.0835 93.7499 28.4228 93.9951 27.7557C94.0583 27.5894 94.1161 27.4212 94.1731 27.2533L94.2553 26.9999C94.2825 26.9112 94.3078 26.8435 94.3395 26.7266C94.3433 26.7103 94.3479 26.6931 94.3525 26.6646L94.356 26.6391C94.3571 26.6303 94.3583 26.6102 94.3579 26.5965C94.3598 26.5892 94.3556 26.5375 94.3456 26.5097ZM94.2075 26.8153L94.2029 26.8191C94.1991 26.8218 94.1953 26.824 94.1914 26.8263C94.1708 26.8427 94.1444 26.8655 94.1184 26.8891L93.9278 27.0653C93.8008 27.1867 93.6684 27.3051 93.5379 27.4246C93.4124 27.5376 93.28 27.6423 93.1514 27.7515C92.858 28.2302 92.5415 28.6915 92.2125 29.1348C91.808 29.6669 91.3902 30.1795 90.9249 30.6297C90.46 31.0788 89.955 31.4711 89.4155 31.7611C89.1377 31.889 88.8733 32.0321 88.589 32.1135C88.3032 32.2049 87.9982 32.2745 87.6875 32.3267C86.4413 32.5348 85.1002 32.4949 83.88 32.1276C83.5762 32.0325 83.2789 31.9176 82.9965 31.7729C82.7164 31.626 82.4497 31.4536 82.2063 31.2478C81.9672 31.0396 81.7395 30.8055 81.5601 30.5304C81.3741 30.2579 81.2272 29.9534 81.1021 29.6452C81.3864 29.0526 81.7602 28.4278 82.237 28.0921C82.3529 28.0042 82.4776 27.9475 82.5985 27.9014C82.6647 27.8832 82.7309 27.8615 82.7987 27.8462C82.8698 27.8375 82.9345 27.8166 83.0076 27.815C83.2903 27.7857 83.5884 27.8124 83.8876 27.8714C84.4868 27.9939 85.0833 28.2451 85.65 28.5511C85.7912 28.6295 85.9309 28.7109 86.0694 28.7954L86.2924 28.929C86.3728 28.9765 86.4508 29.0256 86.5354 29.0675C86.8622 29.2479 87.2134 29.3963 87.5777 29.5101C87.7579 29.5717 87.9477 29.6098 88.134 29.6524C88.3254 29.6825 88.5144 29.7156 88.7084 29.7236C89.094 29.7449 89.4828 29.7335 89.8585 29.6536C90.6112 29.5067 91.2942 29.1641 91.8758 28.7463C92.3181 28.4357 92.7401 28.1001 93.1514 27.7515C93.2131 27.651 93.275 27.5509 93.3343 27.4486C93.4204 27.3017 93.5016 27.1521 93.5827 27.0021L93.7001 26.7753L93.8023 26.5634C93.8046 26.5592 93.8061 26.555 93.8054 26.5626L93.8046 26.5721C93.8042 26.5752 93.8031 26.59 93.8038 26.5984C93.8038 26.5984 93.8061 26.6456 93.8153 26.668C93.831 26.7156 93.8677 26.7921 93.9664 26.8351C94.0789 26.8724 94.0931 26.853 94.1421 26.8465C94.1574 26.8431 94.1807 26.832 94.1872 26.8282C94.1888 26.8275 94.1899 26.8263 94.1914 26.8256C94.1949 26.8229 94.1991 26.8191 94.2021 26.8168C94.2067 26.8145 94.2117 26.8111 94.2075 26.8153Z" fill="#402483"/>
<path fill-rule="evenodd" clip-rule="evenodd" d="M81.648 29.5702C81.648 29.5702 81.3086 27.9482 80.2491 27.4554C79.1896 26.9626 77.6094 27.3945 76.1852 28.282C74.7607 29.1695 72.9145 29.7639 71.0335 28.5636C69.1529 27.3637 68.4029 26.0473 68.6459 26.6657C68.8889 27.2838 70.4986 31.3037 73.4942 32.5763C75.8405 33.5734 80.98 33.1761 81.648 29.5702Z" fill="white"/>
<path fill-rule="evenodd" clip-rule="evenodd" d="M81.7097 29.4881L81.7047 29.4207L81.6902 29.2864C81.6783 29.1973 81.6661 29.1075 81.647 29.0192C81.6087 28.843 81.567 28.6645 81.5038 28.4906C81.3837 28.1416 81.205 27.798 80.9291 27.4947C80.7948 27.3405 80.6227 27.2104 80.4355 27.0958C80.3422 27.0464 80.2473 26.9995 80.1501 26.96C80.0525 26.9272 79.9534 26.8831 79.8536 26.8622C79.4522 26.7571 79.0447 26.7396 78.6548 26.7746C77.8727 26.8473 77.1484 27.0996 76.4826 27.4326C76.3173 27.5186 76.1509 27.6027 75.9932 27.7002L75.5612 27.9593C75.2842 28.1241 75.0014 28.2691 74.7149 28.4008C74.4279 28.5317 74.134 28.644 73.831 28.7216C73.5291 28.7992 73.2157 28.8552 72.8989 28.8518C72.2641 28.8594 71.6137 28.6733 71.0435 28.3148C70.4604 27.9605 69.9289 27.5228 69.4579 27.0304C69.3389 26.9082 69.2272 26.7792 69.1139 26.6498L68.9444 26.4496C68.9142 26.4146 68.8855 26.3811 68.8423 26.3389C68.8304 26.3275 68.8189 26.3164 68.7971 26.2997L68.7791 26.2867L68.7493 26.2689C68.7382 26.2624 68.7095 26.2502 68.6892 26.2445C68.6353 26.238 68.615 26.2156 68.4975 26.2559C68.3931 26.3004 68.3544 26.383 68.3364 26.4352C68.3265 26.4629 68.3223 26.5147 68.3234 26.5208C68.323 26.5349 68.3242 26.5547 68.3253 26.5634L68.3284 26.5889C68.333 26.6175 68.3376 26.6346 68.3414 26.6509C68.3732 26.7678 68.398 26.8359 68.4256 26.9242L68.5079 27.1776C68.5652 27.3455 68.623 27.5137 68.6858 27.68C68.9314 28.3475 69.213 29.0082 69.57 29.6361C69.9213 30.2678 70.3502 30.8631 70.8434 31.4175C71.3385 31.969 71.9014 32.4881 72.5714 32.8903C72.7405 32.9874 72.9173 33.0761 73.0921 33.1647C73.1365 33.1864 73.1794 33.2096 73.2249 33.2298L73.3653 33.2869C73.4591 33.3265 73.5528 33.3584 73.6466 33.39C74.0223 33.5145 74.3996 33.5963 74.7768 33.6507C75.5314 33.7569 76.2867 33.7485 77.0301 33.6499C77.7721 33.5464 78.5075 33.3535 79.1924 33.0254C79.5348 32.8629 79.8635 32.6681 80.1681 32.4386C80.4707 32.2061 80.7455 31.9355 80.9758 31.6337C81.2085 31.3342 81.394 31.0001 81.5161 30.6499C81.6366 30.2998 81.7032 29.9402 81.7132 29.5687L81.7097 29.4881ZM68.4753 26.7411C68.4711 26.737 68.4761 26.74 68.4807 26.743C68.4837 26.7453 68.488 26.7491 68.4914 26.7518C68.4876 26.7495 68.4837 26.7472 68.4799 26.7446L68.4753 26.7411ZM81.1231 30.4562C80.9441 30.7314 80.7164 30.9654 80.4773 31.1736C80.2339 31.3795 79.9672 31.5519 79.6871 31.6988C79.4051 31.8434 79.1074 31.9583 78.8036 32.0535C77.5834 32.4207 76.2423 32.4607 74.9961 32.2529C74.6854 32.2007 74.3804 32.1311 74.0942 32.0398C73.8099 31.9579 73.5455 31.8152 73.2678 31.6874C72.7283 31.3974 72.2228 31.0046 71.7583 30.5559C71.293 30.1053 70.8752 29.5927 70.4707 29.0611C70.1417 28.6177 69.8252 28.1565 69.5318 27.6777C69.9427 28.0267 70.3651 28.362 70.8071 28.6725C71.3887 29.0904 72.072 29.4329 72.8243 29.5798C73.2 29.6597 73.5888 29.6711 73.9745 29.6498C74.1685 29.6418 74.3579 29.6087 74.5492 29.5786C74.7355 29.536 74.9253 29.4976 75.1055 29.4359C75.4698 29.3225 75.8207 29.1737 76.1474 28.9933C76.232 28.9515 76.31 28.9024 76.3904 28.8548L76.6135 28.7212C76.752 28.6367 76.8916 28.5553 77.0328 28.4769C77.5995 28.1709 78.196 27.9197 78.7952 27.7972C79.0941 27.7382 79.3925 27.7116 79.6753 27.7413C79.7487 27.7428 79.8134 27.7633 79.8842 27.7725C79.9519 27.7873 80.0177 27.809 80.0843 27.8277C80.2048 27.8737 80.3299 27.9304 80.4459 28.0183C80.923 28.3536 81.2226 28.776 81.3393 29.4717C81.3397 29.9204 81.3087 30.1837 81.1231 30.4562Z" fill="#402483"/>
<path fill-rule="evenodd" clip-rule="evenodd" d="M89.4489 51.3674L88.0576 51.3115L98.428 30.4844L99.5675 31.0457L89.4489 51.3674Z" fill="white"/>
<path fill-rule="evenodd" clip-rule="evenodd" d="M101.696 26.9326L101.42 28.8043C101.375 29.111 101.534 29.4117 101.812 29.549L103.517 30.3886C104.142 30.6961 104.005 31.6186 103.318 31.7343L101.443 32.0516C101.136 32.1034 100.898 32.3462 100.852 32.6529L100.576 34.5246C100.475 35.21 99.5511 35.3664 99.2278 34.7529L98.3451 33.0773C98.2004 32.8029 97.8947 32.6522 97.5875 32.7043L95.7122 33.0213C95.0258 33.1374 94.5907 32.312 95.0774 31.8165L96.4067 30.4635C96.6244 30.2417 96.6741 29.906 96.5295 29.6316L95.6468 27.956C95.3234 27.3425 95.9785 26.6758 96.603 26.9833L98.3072 27.8228C98.5865 27.9602 98.9228 27.9035 99.1406 27.682L100.47 26.3291C100.957 25.8336 101.797 26.2472 101.696 26.9326Z" fill="white"/>
<path fill-rule="evenodd" clip-rule="evenodd" d="M92.7044 42.6974C91.7448 42.1745 90.5411 42.5242 90.0149 43.4783C89.697 44.0552 89.7016 44.7204 89.9656 45.2723C89.3557 45.348 88.7898 45.7019 88.4718 46.2789C88.1538 46.8558 88.1588 47.521 88.4224 48.0729C87.8125 48.1486 87.2466 48.5025 86.9286 49.0795C86.4029 50.0339 86.7546 51.2312 87.7138 51.7541C90.2284 53.1249 93.384 52.2081 94.7618 49.707C96.1404 47.2067 95.2191 44.0682 92.7044 42.6974Z" fill="#F9D8D6"/>
<path fill-rule="evenodd" clip-rule="evenodd" d="M81.0772 25.6953C82.2423 25.6953 83.1866 26.386 83.1866 27.2381C83.1866 28.0902 82.2423 28.7809 81.0772 28.7809C79.9121 28.7809 78.9678 28.0902 78.9678 27.2381C78.9678 26.386 79.9121 25.6953 81.0772 25.6953Z" fill="#F9D8D6"/>
<path fill-rule="evenodd" clip-rule="evenodd" d="M81.0769 25.6953C81.5574 25.6991 82.0438 25.7954 82.4784 26.0302C82.6939 26.1485 82.8993 26.3008 83.0585 26.5051C83.2192 26.7061 83.3363 26.9607 83.3604 27.2377C83.3834 27.5136 83.3133 27.8021 83.1744 28.0468C83.034 28.2911 82.8381 28.4982 82.6139 28.6584C82.1628 28.9785 81.6148 29.1238 81.0765 29.128C80.5385 29.1242 79.9898 28.9799 79.5383 28.6595C79.3137 28.5001 79.1178 28.2923 78.9774 28.0476C78.8381 27.8029 78.7685 27.514 78.7914 27.2373C78.8159 26.9599 78.933 26.705 79.0941 26.504C79.2536 26.2997 79.4591 26.147 79.6749 26.0291C80.11 25.795 80.5959 25.6991 81.0769 25.6953ZM81.0769 25.6953C80.5967 25.6991 80.1096 25.8323 79.7269 26.1109C79.5364 26.249 79.3776 26.4256 79.2705 26.6208C79.1645 26.8176 79.1209 27.0349 79.1431 27.2381C79.1959 27.6487 79.4993 27.9635 79.8632 28.1518C80.2293 28.3444 80.6541 28.4296 81.0769 28.4335C81.4997 28.43 81.9248 28.3463 82.2917 28.1534C82.656 27.9654 82.9598 27.6495 83.0126 27.2381C83.0344 27.0345 82.9908 26.8168 82.8844 26.6205C82.7769 26.4252 82.6181 26.2482 82.4275 26.1105C82.0441 25.8323 81.5571 25.6991 81.0769 25.6953Z" fill="#402483"/>
<path fill-rule="evenodd" clip-rule="evenodd" d="M14.9683 93.5629V91.0017H14.5593L13.5484 93.5629H11.8154L13.2235 90.3433L12.2367 88.1768H12.9947L14.0538 90.4392H14.9683V88.1768H16.653V90.4392H17.5556L18.6266 88.1768H19.385L18.3859 90.3433L19.8063 93.5629H18.0729L17.0502 91.0017H16.653V93.5629H14.9683Z" fill="#5BC0C7"/>
<path fill-rule="evenodd" clip-rule="evenodd" d="M26.2437 93.5627H24.3784C22.1282 93.5627 21.2979 92.2102 21.2979 90.7617C21.2979 89.2536 22.3451 88.0688 24.0658 88.0688C25.3893 88.0688 26.5567 88.7033 26.5567 90.9296H23.1031C23.1513 92.0789 23.7291 93.06 25.2933 93.06H26.2441L26.2437 93.5627ZM24.7874 90.4268C24.7874 89.3616 24.595 88.572 23.9931 88.572C23.4153 88.572 23.1387 89.2182 23.0905 90.4268H24.7874Z" fill="#5BC0C7"/>
<path fill-rule="evenodd" clip-rule="evenodd" d="M28.2295 93.5629V92.3059C29.0479 92.3059 29.4088 91.0972 29.4933 88.1768H33.2117V93.5629H31.527V88.7392H30.0347C29.8664 91.0375 29.6858 93.5629 28.5785 93.5629H28.2295Z" fill="#5BC0C7"/>
<path fill-rule="evenodd" clip-rule="evenodd" d="M36.3043 88.5476C36.9421 88.2964 37.9649 88.0688 38.7591 88.0688C39.9747 88.0688 40.6963 88.4879 40.6963 89.5649V93.5627H38.085C36.4845 93.5627 35.5459 92.7727 35.5459 91.5278C35.5459 90.4025 36.3643 89.7563 37.6879 89.7563C38.121 89.7563 38.5903 89.84 39.0112 90.0196V89.6604C39.0112 89.2893 38.9871 88.7988 38.0846 88.7988C37.531 88.7988 37.2061 88.8825 36.4841 89.0861L36.3043 88.5476ZM39.0116 90.5707C38.8432 90.463 38.5785 90.3553 38.2773 90.3553C37.6037 90.3553 37.3148 90.8938 37.3148 91.588C37.3148 92.5934 38.0008 93.06 38.8551 93.06H39.0116V90.5707Z" fill="#5BC0C7"/>
<path fill-rule="evenodd" clip-rule="evenodd" d="M44.9558 90.2116H46.7611V88.1768H48.4458V93.5629H46.7611V90.7741H44.9558V93.5629H43.2715V88.1768H44.9558V90.2116Z" fill="#5BC0C7"/>
<path fill-rule="evenodd" clip-rule="evenodd" d="M52.7052 91.5642L54.6306 88.8351V88.1768H56.3153V93.5629H54.6306V89.8166L52.7052 92.5457V93.5629H51.0205V88.1768H52.7052V91.5642Z" fill="#5BC0C7"/>
<path fill-rule="evenodd" clip-rule="evenodd" d="M63.7649 93.5628H62.0802V91.6714H61.7072L60.4674 93.5628H58.4697L60.0102 91.432C59.2641 91.0731 58.855 90.5582 58.855 89.912C58.855 88.7627 59.7213 88.1763 61.2136 88.1763H63.7645V93.5628H63.7649ZM61.9356 91.1093H62.0798V88.7395H61.9356C61.1535 88.7395 60.6239 89.063 60.6239 89.9246C60.6239 90.6423 61.1535 91.1093 61.9356 91.1093Z" fill="#5BC0C7"/>
<path fill-rule="evenodd" clip-rule="evenodd" d="M72.7658 91.5642L74.6915 88.8351V88.1768H76.3763V93.5629H74.6915V89.8166L72.7658 92.5457V93.5629H71.0811V88.1768H72.7658V91.5642Z" fill="#5BC0C7"/>
<path fill-rule="evenodd" clip-rule="evenodd" d="M83.4397 93.5627H81.7308C79.336 93.5627 78.5898 92.2102 78.5898 90.7617C78.5898 89.1938 79.8533 88.0688 81.538 88.0688C82.609 88.0688 83.1267 88.3802 83.5598 88.6915V89.4575H83.1026C82.9342 89.0146 82.4647 88.572 81.8873 88.572C80.8764 88.572 80.3591 89.386 80.3591 90.7621C80.3591 92.1147 81.0211 93.0604 82.6453 93.0604H83.4397V93.5627Z" fill="#5BC0C7"/>
<path fill-rule="evenodd" clip-rule="evenodd" d="M143.917 93.5627H142.208C139.814 93.5627 139.067 92.2102 139.067 90.7617C139.067 89.1938 140.331 88.0688 142.016 88.0688C143.087 88.0688 143.604 88.3802 144.037 88.6915V89.4575H143.58C143.412 89.0146 142.942 88.572 142.364 88.572C141.354 88.572 140.836 89.386 140.836 90.7621C140.836 92.1147 141.498 93.0604 143.123 93.0604H143.917V93.5627Z" fill="#5BC0C7"/>
<path fill-rule="evenodd" clip-rule="evenodd" d="M85.7139 93.5629V88.1768H90.8885V93.5629H89.2038V88.7392H87.3986V93.5629H85.7139Z" fill="#5BC0C7"/>
<path fill-rule="evenodd" clip-rule="evenodd" d="M93.1025 90.8699C93.1025 89.2061 94.2458 88.0693 96.1471 88.0693C98.0484 88.0693 99.1917 89.2065 99.1917 90.8699C99.1917 92.5098 98.0484 93.6469 96.1471 93.6469C94.2458 93.6465 93.1025 92.5094 93.1025 90.8699ZM96.1471 93.1442C97.0497 93.1442 97.4109 91.9713 97.4109 90.8699C97.4109 89.8527 97.0497 88.5721 96.1471 88.5721C95.2208 88.5721 94.8714 89.7807 94.8714 90.8699C94.8714 91.9709 95.2204 93.1442 96.1471 93.1442Z" fill="#5BC0C7"/>
<path fill-rule="evenodd" clip-rule="evenodd" d="M100.743 93.5629V92.3059C101.562 92.3059 101.922 91.0972 102.007 88.1768H105.725V93.5629H104.041V88.7392H102.548C102.38 91.0375 102.199 93.5629 101.092 93.5629H100.743Z" fill="#5BC0C7"/>
<path fill-rule="evenodd" clip-rule="evenodd" d="M109.986 90.2116H111.791V88.1768H113.475V93.5629H111.791V90.7741H109.986V93.5629H108.301V88.1768H109.986V90.2116Z" fill="#5BC0C7"/>
<path fill-rule="evenodd" clip-rule="evenodd" d="M120.924 93.5628H119.239V91.6714H118.866L117.627 93.5628H115.629L117.169 91.432C116.423 91.0731 116.013 90.5582 116.013 89.912C116.013 88.7627 116.88 88.1763 118.372 88.1763H120.923V93.5628H120.924ZM119.094 91.1093H119.239V88.7395H119.094C118.312 88.7395 117.783 89.063 117.783 89.9246C117.783 90.6423 118.312 91.1093 119.094 91.1093Z" fill="#5BC0C7"/>
<path fill-rule="evenodd" clip-rule="evenodd" d="M125.183 90.5229H125.869C126.014 89.1345 127.025 88.0693 128.722 88.0693C130.55 88.0693 131.597 89.3142 131.597 90.8699C131.597 92.4139 130.55 93.6469 128.722 93.6469C126.989 93.6469 125.954 92.5338 125.858 91.0857H125.184V93.5636H123.499V88.1774H125.184V90.5229H125.183ZM128.71 93.1442C129.48 93.1442 129.805 92.2107 129.805 90.8699C129.805 89.6251 129.48 88.5721 128.71 88.5721C127.939 88.5721 127.626 89.5414 127.626 90.8699C127.626 92.2103 127.939 93.1442 128.71 93.1442Z" fill="#5BC0C7"/>
<path fill-rule="evenodd" clip-rule="evenodd" d="M132.85 88.1768H137.663V88.7392H136.111V93.5629H134.426V88.7392H132.85V88.1768Z" fill="#5BC0C7"/>
<path fill-rule="evenodd" clip-rule="evenodd" d="M150.877 93.5628H149.192V91.6714H148.819L147.58 93.5628H145.582L147.122 91.432C146.376 91.0731 145.967 90.5582 145.967 89.912C145.967 88.7627 146.834 88.1763 148.326 88.1763H150.877V93.5628ZM149.048 91.1093H149.192V88.7395H149.048C148.265 88.7395 147.736 89.063 147.736 89.9246C147.736 90.6423 148.265 91.1093 149.048 91.1093Z" fill="#5BC0C7"/>
<path fill-rule="evenodd" clip-rule="evenodd" d="M161.287 80.3064C160.868 79.9383 160.595 79.4782 160.509 78.9226C160.45 78.5447 160.383 78.1664 160.362 77.7855C160.315 76.9479 160.276 76.1087 160.266 75.2699C160.252 74.0163 160.255 72.762 160.268 71.5084C160.288 69.5298 160.203 67.5501 160.333 65.5719C160.389 64.7206 160.396 63.8659 160.419 63.0126C160.451 61.8607 160.38 60.706 160.519 59.5575C160.553 59.2774 160.593 58.995 160.667 58.7236C160.824 58.1513 161.125 57.6565 161.542 57.2303C161.864 56.9015 162.133 56.5377 162.279 56.0951C162.366 55.834 162.336 55.5965 162.18 55.3667C162.005 55.1086 161.785 54.9149 161.474 54.8525C161.182 54.7935 160.887 54.7231 160.592 54.7186C160.18 54.7117 159.766 54.7806 159.353 54.7833C157.137 54.797 154.848 54.7722 152.607 54.644C150.356 54.515 148.038 54.0126 145.797 54.4442C144.213 54.7494 142.726 55.297 141.343 56.1229C139.27 57.362 138.052 59.9407 138.073 62.3059C138.094 64.6845 138.945 67.2263 140.881 68.7676C141.616 69.3521 142.434 69.7685 143.313 70.0866C143.577 70.1825 143.839 70.3096 144.072 70.4664C144.352 70.6544 144.355 70.7861 144.106 71.0038C143.893 71.1903 143.66 71.3581 143.419 71.5096C142.723 71.9472 142.116 72.48 141.596 73.1136C140.853 74.0171 140.468 75.0724 140.235 76.1981C139.99 77.3809 139.64 78.5322 139.128 79.6293C138.762 80.4148 138.207 81.0264 137.401 81.3944C137.247 81.4652 137.098 81.5542 136.958 81.6509C136.528 81.9481 136.407 82.3934 136.603 82.8896C136.69 83.1092 136.807 83.2991 137.036 83.3916C138.675 84.0527 140.681 84.0051 142.379 83.6161C143.951 83.2561 144.997 82.2941 145.637 80.854C146.048 79.9288 146.265 78.9462 146.507 77.9701C146.789 76.8299 147.084 75.6927 147.372 74.5545C147.998 72.0815 150.482 72.3875 151.676 72.0492C152.02 71.9514 152.324 71.8292 152.551 71.6831C152.723 71.5727 152.857 71.4437 152.961 71.298C152.962 73.4223 152.963 75.5462 152.96 77.6705C152.959 78.7875 152.602 79.7602 151.739 80.5153C151.664 80.5811 151.596 80.6549 151.522 80.7223C151.229 80.9895 151.056 81.3228 150.946 81.7008C150.853 82.0208 150.921 82.2975 151.14 82.5273C151.285 82.6796 151.457 82.8177 151.641 82.9197C152.216 83.2382 152.851 83.3414 153.497 83.3448C155.718 83.3562 157.938 83.3467 160.159 83.3547C160.956 83.3577 162.681 83.1016 162.692 82.0296C162.7 81.2734 161.774 80.7341 161.287 80.3064ZM152.961 69.4564C152.827 69.2463 152.628 69.1021 152.369 69.0123C152.261 68.9754 152.15 68.9491 152.041 68.9183C151.548 68.7794 149.444 68.7211 148.374 68.3969C147.331 68.0806 146.557 67.3831 146.11 66.3791C145.701 65.462 145.524 64.4866 145.478 63.4883C145.428 62.4075 145.673 61.3751 146.041 60.3688C146.341 59.5449 146.856 58.8744 147.577 58.3644C148.787 57.5077 150.14 57.3258 151.571 57.5477C151.779 57.58 151.982 57.6649 152.178 57.7467C152.565 57.9077 152.797 58.2152 152.863 58.6144C152.925 58.9912 152.954 59.3771 152.955 59.7592C152.963 62.4239 152.961 65.0882 152.962 67.753C152.962 68.3208 152.961 68.8886 152.961 69.4564Z" fill="#402483"/>
<path fill-rule="evenodd" clip-rule="evenodd" d="M29.9198 81.8489C29.753 81.7401 29.5736 81.6503 29.4002 81.5521C28.7042 81.1586 28.1035 80.6669 27.7312 79.9419C27.595 79.6763 27.445 79.4156 27.3325 79.1404C26.5129 77.131 25.6994 75.1198 24.8879 73.1069C24.7012 72.6438 24.7719 72.4935 25.2177 72.2526C25.6313 72.0292 26.0488 71.8088 26.4425 71.5538C28.3824 70.2949 28.5347 67.7227 27.8169 65.6958C27.6535 65.2342 27.3865 64.8326 27.0249 64.4943C26.1001 63.6293 24.9411 63.4341 23.7423 63.3694C23.481 63.3553 23.3302 63.5665 23.3639 63.8302C23.3872 64.0125 23.4312 64.1922 23.466 64.3729C23.5908 65.0184 23.5399 65.6505 23.2571 66.2449C23.1374 66.4969 22.9502 66.7187 22.78 66.9444C22.7054 67.043 22.6063 67.0369 22.5466 66.9117C22.4368 66.6814 22.3166 66.4546 22.2244 66.2172C21.5207 64.4064 20.8102 62.5983 20.1287 60.7796C19.7809 59.8518 19.463 58.911 19.1798 57.9615C18.9885 57.3199 19.1504 56.7228 19.6317 56.2345C19.7515 56.1131 19.8904 56.0104 20.0166 55.895C20.1536 55.7698 20.2967 55.6492 20.4188 55.5107C20.7287 55.1605 20.6832 54.439 20.0388 54.2959C19.7767 54.2377 19.5024 54.2065 19.2342 54.2103C18.5052 54.2202 17.7767 54.267 17.0474 54.2769C15.4492 54.2986 13.8483 54.2761 12.2546 54.1479C10.9839 54.0459 9.73768 53.8088 8.45817 53.8362C6.19798 53.8845 3.74609 54.5334 2.29669 56.381C1.26053 57.7016 0.841172 59.7981 1.51766 61.3775C2.05755 62.6379 2.92612 63.5433 4.33955 63.7926C4.71606 63.8588 5.10557 63.8561 5.48973 63.8755C5.80808 63.8919 6.11265 63.8249 6.40728 63.7028C7.78704 63.1296 8.6491 62.1181 8.96248 60.667C9.03479 60.3321 9.0742 60.0984 8.54464 60.0021C8.11533 59.9241 7.8605 59.6398 7.74686 59.2079C7.68143 58.9582 7.73079 58.7337 7.76599 58.4955C7.88729 57.6814 8.58482 57.0215 9.41245 56.9393C10.5209 56.829 11.1293 57.4847 11.388 58.1758C11.6753 58.9441 11.6011 59.7148 11.3042 60.4611C10.9789 61.2782 10.6085 62.0774 10.2822 62.894C9.00724 66.0862 7.59419 69.2168 6.07095 72.2982C4.92497 74.6163 3.7679 76.9286 2.69118 79.2797C2.46696 79.7691 2.17425 80.2277 1.91445 80.7015C1.78741 80.9333 1.60031 81.1065 1.37417 81.2374C0.675494 81.6427 -0.207616 81.8527 0.043771 82.8156C0.202562 83.4241 0.771151 83.7149 1.37264 83.7103C2.53278 83.7019 3.69329 83.7004 4.85342 83.7107C5.45683 83.716 5.83907 83.399 6.12605 82.9183C6.25384 82.7044 6.26417 82.4849 6.1226 82.2748C5.98792 82.0746 5.86662 81.8565 5.69482 81.6921C5.34854 81.3599 5.30263 80.9934 5.45951 80.5641C5.86739 79.4483 6.57143 78.5483 7.50313 77.8263C8.28446 77.2209 9.15417 76.763 10.0805 76.4106C11.7733 75.7667 13.6187 75.6891 15.3841 75.3504C16.0687 75.2191 16.7543 75.0904 17.4419 74.9763C17.9378 74.8941 18.0759 74.9687 18.2768 75.4143C18.4869 75.8797 18.6866 76.3501 18.8756 76.8247C19.3799 78.0908 19.8904 79.3543 20.5255 80.5626C20.9445 81.3595 21.406 82.1172 22.1616 82.6668C23.2498 83.458 24.4509 83.9481 25.7924 84.0311C27.1251 84.1133 28.9147 84.3356 30.0266 83.4439C30.5871 82.9944 30.48 82.2147 29.9198 81.8489ZM16.294 71.7171C15.696 71.9009 15.0949 72.0748 14.4915 72.2392C13.2165 72.5871 11.9344 72.9113 10.6644 73.2759C10.0912 73.4403 9.53948 73.6789 8.97816 73.8829C8.89858 73.9118 8.81899 73.9476 8.73634 73.9602C8.61811 73.9781 8.55689 73.897 8.59592 73.7775C8.63571 73.6565 8.68009 73.5358 8.73558 73.4213C9.63322 71.5679 10.5339 69.7161 11.4312 67.8627C11.9944 66.6993 12.5473 65.5314 13.1186 64.3722C13.2364 64.1332 13.4094 63.9197 13.5674 63.702C13.6531 63.584 13.7691 63.5916 13.8509 63.7073C13.9321 63.8219 14.0151 63.9452 14.0541 64.0772C14.4582 65.4545 15.0765 66.7499 15.5839 68.0876C15.9455 69.041 16.2607 70.0114 16.594 70.9754C16.6258 71.0679 16.6376 71.1672 16.643 71.1927C16.6487 71.5443 16.604 71.622 16.294 71.7171Z" fill="#402483"/>
<path fill-rule="evenodd" clip-rule="evenodd" d="M136.039 77.0273C135.89 76.5402 135.796 76.0599 135.722 75.5279C135.542 74.2332 135.45 72.996 135.39 71.6922C135.34 70.6117 135.323 69.5302 135.302 68.4486C135.288 67.7221 135.29 66.9952 135.288 66.2687C135.285 65.5563 135.323 64.8412 135.27 64.1326C135.233 63.6344 135.25 63.0366 135.31 62.4889C135.389 61.7681 135.44 61.1973 135.672 60.5796C135.791 60.2645 136.023 59.9212 136.128 59.6198C136.353 58.9782 136.413 58.2688 135.795 58.1649C135.659 58.1417 135.544 58.1908 135.36 58.1908C134.867 58.1908 134.546 58.1908 133.943 58.1908C132.543 58.19 131.378 58.1908 129.88 58.1908C129.43 58.1908 128.965 58.2041 128.521 58.3019C128.216 58.3693 128.084 58.5828 128.059 58.8891C128.015 59.4018 128.233 60.0887 128.327 60.4312C128.605 61.4473 128.889 62.2461 128.932 63.0906C128.964 63.7216 128.852 64.3362 128.725 64.9474C128.496 66.0522 127.868 66.8418 126.82 67.3046C126.417 67.4827 126.035 67.7111 125.645 67.9192C124.765 68.3889 123.887 68.8649 123.001 69.3258C122.829 69.4156 122.629 69.4769 122.436 69.5001C122.175 69.5309 122.001 69.4 121.963 69.1709C121.885 68.6964 121.77 68.2252 121.799 67.7369C121.825 67.2974 121.839 66.8571 121.855 66.4168C121.889 65.4927 121.925 64.5691 121.95 63.6451C121.971 62.8585 121.994 61.7716 122.172 60.9861C122.225 60.7505 122.346 60.416 122.488 60.2207C122.736 59.8809 122.814 59.5019 122.783 59.092C122.754 58.6905 122.602 58.2665 122.206 58.2133C121.613 58.1337 121.316 58.1798 120.719 58.1706C119.934 58.1588 119.127 58.195 118.341 58.1916C117.363 58.187 116.523 58.1676 115.45 58.1916C115.155 58.198 114.846 58.284 114.616 58.4629C114.452 58.59 114.38 58.7461 114.364 58.9424C114.339 59.2317 114.388 59.5064 114.522 59.7679C114.659 60.0335 114.82 60.2896 114.915 60.5728C115.132 61.2273 115.313 62.766 115.354 63.6169C115.37 63.9568 115.42 64.2951 115.448 64.6342C115.501 65.2705 115.596 65.9072 115.591 66.5435C115.574 69.263 115.691 71.9841 115.515 74.7017C115.492 75.0541 115.438 75.4057 115.374 75.7532C115.258 76.3842 115.003 76.9714 114.765 77.5632C114.608 77.9517 114.548 78.3532 114.565 78.7719C114.575 79.0036 114.69 79.1608 114.887 79.2312C115.875 79.5821 116.98 79.4154 118.006 79.4127C119.172 79.4097 120.338 79.428 121.504 79.4066C121.867 79.3998 122.231 79.2852 122.586 79.1886C122.862 79.1136 122.998 78.9111 122.998 78.6124C122.998 78.3525 122.959 78.1066 122.864 77.8638C122.618 77.2294 122.394 76.5866 122.138 75.9564C121.86 75.2706 121.945 74.6263 122.299 73.9976C122.667 73.3446 123.192 72.8552 123.866 72.5283C125.136 71.9118 126.408 71.3006 127.681 70.6905C127.899 70.5859 128.122 70.4881 128.349 70.4059C128.714 70.2734 128.974 70.3982 129.074 70.7704C129.136 71.0014 129.177 71.2458 129.176 71.484C129.171 72.5644 129.262 73.6483 129.105 74.7249C129.04 75.1721 128.977 75.6246 128.851 76.0565C128.72 76.5029 128.561 76.8226 128.383 77.2545C128.243 77.5951 128.139 78.0176 128.147 78.4057C128.157 78.8426 128.454 79.1806 128.786 79.2765C129.128 79.3754 129.36 79.4306 129.723 79.4268C130.597 79.4181 131.471 79.4238 132.345 79.4203C133.176 79.4203 134.007 79.4291 134.838 79.4162C135.164 79.4112 135.29 79.3408 135.616 79.3046C135.685 79.297 135.751 79.2597 135.82 79.2419C136.394 79.0923 136.455 78.7106 136.315 78.1637C136.206 77.7363 136.167 77.4467 136.039 77.0273Z" fill="#402483"/>
<path fill-rule="evenodd" clip-rule="evenodd" d="M90.0754 77.2219C89.7999 76.8585 89.5994 76.4676 89.547 76.006C89.5209 75.7761 89.4812 75.5474 89.4628 75.3168C89.4268 74.8685 89.3809 74.4194 89.3755 73.97C89.3625 72.9204 89.3717 71.8708 89.3717 70.8212C89.3824 70.8208 89.3932 70.8208 89.4039 70.8204C89.3614 68.9568 89.3216 67.0931 89.273 65.2295C89.2653 64.9403 89.2344 64.6484 89.1827 64.3637C88.9493 63.0782 88.4963 61.8828 87.7513 60.8085C86.9906 59.7109 86.0379 58.8626 84.7775 58.4097C83.9261 58.1041 83.0511 57.9085 82.1458 57.8967C81.2007 57.8842 80.2487 57.7849 79.3097 57.8937C78.0103 58.0444 76.3891 58.7405 75.6751 59.6797C75.118 60.4123 74.7117 61.2297 74.6872 62.1473C74.6669 62.9118 75.0534 63.7011 75.5492 64.1407C76.269 64.7785 77.4647 64.9323 78.0685 64.7785C78.3995 64.6944 79.775 64.1643 80 62.1305C80.0738 61.4649 80.6057 60.8317 81.2386 60.7746C82.0788 60.6989 82.8422 61.1978 83.0212 62.1682C83.1582 62.9126 82.9489 63.5706 82.5506 64.1837C82.2231 64.6876 81.7513 65.0107 81.219 65.2455C78.9696 66.238 76.7694 67.1266 74.5161 68.1108C70.9986 69.6467 69.6682 71.7155 69.4314 73.2264C69.2963 74.0876 69.3185 75.063 69.5152 75.923C69.7038 76.7481 70.0382 77.491 70.6512 78.0782C71.3415 78.7392 72.1611 79.1887 73.0763 79.4052C74.2609 79.6857 76.1538 79.7923 77.1877 79.6458C78.1194 79.5137 79.017 79.2222 79.9108 78.9291C80.9543 78.587 81.9992 78.2502 83.0381 77.894C83.3377 77.7912 83.5707 77.8658 83.7846 78.0645C83.9537 78.2217 84.1102 78.3925 84.2728 78.557C84.5644 78.8519 84.9172 79.0582 85.3105 79.1385C85.8959 79.258 86.4901 79.3615 87.0851 79.3961C87.8274 79.4395 88.5743 79.4052 89.3193 79.4064C89.7628 79.4068 90.1098 79.1872 90.4247 78.9002C90.4856 78.8447 90.5498 78.7644 90.5628 78.6867C90.6088 78.4131 90.6325 78.1307 90.4932 77.8769C90.3685 77.6504 90.2311 77.4274 90.0754 77.2219ZM81.5692 75.7305C80.8406 76.0696 80.0708 76.2751 79.291 76.4459C79.0132 76.5068 78.7346 76.5776 78.453 76.6058C77.4429 76.7066 76.8288 76.363 76.2973 75.4454C76.0394 74.9998 75.9246 74.5035 75.8806 73.997C75.8079 73.1609 75.9235 72.3438 76.2269 71.5629C76.5269 70.7919 77.0101 70.1894 77.7899 69.8637C79.1727 69.2863 80.551 68.6972 81.9315 68.1131C81.9579 68.1016 81.9832 68.0872 82.0103 68.0784C82.4943 67.9186 82.8058 68.1226 82.833 68.6363C82.8513 68.9849 82.8414 69.3351 82.8418 69.6848C82.8429 70.2381 82.8422 70.7919 82.8422 71.3452C82.8422 72.1318 82.8318 72.9181 82.8448 73.7043C82.8601 74.6725 82.4201 75.3343 81.5692 75.7305Z" fill="#402483"/>
<path fill-rule="evenodd" clip-rule="evenodd" d="M112.091 60.8245C111.48 60.0915 110.709 59.5587 109.867 59.1226C108.747 58.5426 107.532 58.2906 106.292 58.2012C105.366 58.1346 104.431 58.1742 103.501 58.1997C102.573 58.2256 101.647 58.3158 100.719 58.3359C99.5882 58.3607 98.456 58.3424 97.3241 58.3424C97.3241 58.3458 97.3241 58.3489 97.3241 58.3523C95.949 58.3523 94.8596 58.3869 93.4841 58.3949C92.8321 58.3987 92.3867 58.7131 92.1977 59.3227C91.9597 60.0896 92.0366 60.8066 92.6109 61.428C93.0433 61.8958 93.0892 62.3886 93.1772 63.0283C93.2832 63.8001 93.3789 64.5749 93.4324 65.3513C93.4921 66.2167 93.52 67.0848 93.5254 67.9521C93.5388 70.0753 93.5285 72.4051 93.535 74.5283C93.5361 74.8853 93.5621 75.2525 93.5093 75.6057C93.419 76.2112 93.4806 76.6203 93.1095 77.0788C93.005 77.2079 92.9017 77.3479 92.8194 77.4956C92.6002 77.8883 92.5998 78.3222 92.6618 78.7438C92.7054 79.0422 92.8596 79.3097 93.2231 79.3455C93.4072 79.3634 93.4902 79.4589 93.675 79.4593C95.6088 79.4623 97.1627 79.4954 99.0969 79.5076C99.9566 79.513 99.8415 79.4993 100.692 79.382C101.001 79.3394 101.259 79.2058 101.32 78.7404C101.401 78.1231 101.078 77.781 100.698 77.2954C100.64 77.2219 100.548 77.0541 100.53 76.9738C100.408 76.4342 100.365 76.2454 100.337 75.8435C100.302 75.353 100.258 74.8613 100.32 74.3639C100.388 73.817 100.614 73.1586 100.992 72.767C101.574 72.1634 102.291 71.7791 103.099 71.6101C104.226 71.3745 105.367 71.2029 106.503 71.0069C107.372 70.857 108.25 70.7458 109.111 70.5563C110.444 70.2625 111.54 69.5676 112.311 68.432C112.806 67.7009 113.209 66.9139 113.389 66.0394C113.475 65.6249 113.54 65.2025 113.569 64.7808C113.629 63.9215 113.361 63.1288 113.004 62.3623C112.752 61.8204 112.477 61.2872 112.091 60.8245ZM106.263 66.9044C106.07 67.2678 105.779 67.5319 105.435 67.7493C104.959 68.0507 104.421 68.1983 103.887 68.3483C102.855 68.6386 101.849 68.9891 100.926 69.5448C100.889 69.5668 100.85 69.5855 100.812 69.6045C100.445 69.7879 100.281 69.716 100.241 69.3054C100.067 67.5023 100.093 65.6615 100.063 63.8511C100.053 63.2121 100.04 62.5739 100.14 61.9361C100.216 61.4463 100.51 61.1281 101.033 61.0718C101.604 61.0102 102.173 60.9599 102.744 60.9995C103.386 61.044 104.014 61.1715 104.61 61.4258C105.75 61.9129 106.404 62.7893 106.667 63.9763C106.895 65.0016 106.756 65.9766 106.263 66.9044Z" fill="#402483"/>
<path fill-rule="evenodd" clip-rule="evenodd" d="M69.9654 64.515C70.7387 64.4941 71.2342 64.0062 71.3964 63.4429C71.7102 62.3549 72.0557 61.2756 72.3794 60.1906C72.4731 59.8763 72.5103 59.5501 72.4819 59.2205C72.4452 58.7935 72.167 58.4465 71.7553 58.3822C71.2353 58.3007 70.71 58.2341 70.1846 58.2056C69.6853 58.1785 69.1822 58.2048 68.6813 58.2162C68.3388 58.2238 67.9971 58.2604 67.6551 58.2581C67.2556 58.255 66.8562 58.2094 66.4567 58.2078C64.938 58.2014 63.4194 58.2052 61.9011 58.2052C61.9011 58.2033 61.9011 58.2018 61.9011 58.2002C60.182 58.2002 58.7968 58.1843 57.0777 58.1942C56.7368 58.1961 56.3943 58.2413 56.0564 58.2927C55.8758 58.3201 55.6975 58.3894 55.5296 58.4643C55.3249 58.5557 55.1538 58.7197 55.1324 58.9389C55.0807 59.4637 55.0696 59.9916 55.3826 60.4631C55.5242 60.6762 55.6532 60.8977 55.7909 61.1135C56.27 61.8647 56.1632 62.694 56.1613 63.5845C56.1555 66.4342 56.1624 69.817 56.1559 72.6667C56.1544 73.4054 56.1709 74.1429 56.0909 74.8831C56.0128 75.6055 56.0905 76.2128 55.8755 76.8899C55.7637 77.2419 55.4641 77.5045 55.2656 77.8166C54.943 78.3231 55.2606 79.0808 55.8054 79.1965C56.0549 79.2494 56.3063 79.3324 56.5573 79.3339C58.6778 79.3453 60.3526 79.335 62.4731 79.3293C62.6549 79.3289 62.8428 79.292 63.0172 79.238C63.2395 79.1691 63.3643 79.0104 63.3742 78.7623C63.3941 78.2725 63.3562 77.7952 63.1156 77.3561C62.5906 76.3989 62.4211 75.355 62.3511 74.2868C62.3434 74.1738 62.3538 74.0588 62.3629 73.9454C62.3813 73.7194 62.4177 73.4945 62.423 73.2684C62.4337 72.8269 62.4245 72.3851 62.4307 71.9433C62.4475 70.7197 62.397 69.4966 62.4949 68.2727C62.5696 67.3376 62.5673 65.8633 62.5937 64.9249C62.6032 64.5831 62.5868 64.2406 62.6021 63.8992C62.6132 63.6454 62.635 63.3885 62.6889 63.1411C62.8814 62.2571 63.8445 61.2394 65.0524 61.2592C65.6057 61.268 66.128 61.3692 66.6358 61.5694C67.5368 61.9245 68.221 62.5121 68.6296 63.4026C68.7479 63.6602 68.9086 63.8981 69.0394 64.1504C69.1726 64.4069 69.3827 64.5188 69.665 64.5157C69.7649 64.5142 69.8651 64.5176 69.9654 64.515Z" fill="#402483"/>
<path fill-rule="evenodd" clip-rule="evenodd" d="M29.4416 60.5002C29.7928 60.7521 30.1403 61.009 30.4915 61.2613C30.8424 61.5136 31.0245 61.8386 31.0257 62.2839C31.0264 62.7132 31.0823 63.1424 31.116 63.5713C31.1439 63.9287 31.1535 64.2891 31.2078 64.6426C31.2973 65.2253 31.3616 65.8079 31.3612 66.3974C31.3601 68.1678 31.3597 69.9382 31.357 71.7086C31.357 71.8666 31.3528 72.0253 31.3387 72.1828C31.2939 72.6821 31.2116 73.1803 31.2009 73.68C31.1783 74.7566 30.9472 75.7784 30.4973 76.7561C30.3595 77.0552 30.247 77.3657 30.1215 77.6706C30.0048 77.9537 29.9566 78.2464 29.9704 78.5531C29.9857 78.8945 30.1433 79.1434 30.4701 79.2298C30.8156 79.3211 31.1749 79.4067 31.5288 79.4102C33.4244 79.4277 35.3203 79.4185 37.2158 79.4185C37.5824 79.4185 37.9256 79.3131 38.2616 79.1807C38.5312 79.0745 38.654 78.8755 38.6578 78.5782C38.6632 78.2068 38.5492 77.8719 38.3976 77.5458C37.8564 76.3801 37.6524 75.1413 37.6195 73.8729C37.5927 72.8229 37.608 71.7718 37.6058 70.7211C37.6058 70.635 37.6008 70.5468 37.6168 70.4626C37.6716 70.1757 37.8797 70.0592 38.1556 70.1567C38.2505 70.1902 38.3418 70.2332 38.4336 70.2743C39.4196 70.7134 40.4026 71.1595 41.3917 71.591C42.5618 72.1018 43.5777 72.8024 44.3647 73.8238C44.9609 74.5971 45.0864 75.391 44.6326 76.269C44.4417 76.6381 44.2859 77.0251 44.1003 77.3973C43.888 77.8228 43.8486 78.2723 43.8627 78.7373C43.8704 78.9919 43.9932 79.1628 44.2224 79.2134C44.6284 79.3032 45.0424 79.4063 45.4541 79.4109C47.3064 79.4315 49.1587 79.417 51.011 79.4208C51.3646 79.4216 51.6909 79.3097 52.0208 79.2123C52.2193 79.1533 52.3449 78.9999 52.3579 78.8031C52.3797 78.4762 52.421 78.1429 52.2699 77.8278C52.1704 77.6211 52.0923 77.4038 51.9863 77.201C51.5849 76.4349 51.4082 75.6224 51.4105 74.7589C51.4185 71.4198 51.4832 67.578 51.4897 64.2389C51.4904 63.8096 51.5398 63.3803 51.562 62.9506C51.6117 61.9882 51.8953 61.0965 52.3602 60.2547C52.5052 59.9917 52.6357 59.717 52.737 59.435C52.9222 58.9201 52.6911 58.4257 52.1849 58.2495C52.0269 58.1943 51.8451 58.1913 51.6741 58.1905C50.5163 58.1856 49.3588 58.1878 48.201 58.1878C48.201 58.189 48.201 58.1897 48.201 58.1905C47.0722 58.1905 45.9435 58.1905 44.8147 58.1909C44.6701 58.1909 44.5235 58.1825 44.3808 58.2C43.9316 58.2556 43.6194 58.4714 43.5218 58.9741C43.4644 59.2698 43.4713 59.5788 43.6381 59.8536C43.8095 60.136 43.9817 60.4176 44.1619 60.6943C44.7015 61.5216 44.9831 62.4239 44.9815 63.4126C44.9796 65.0822 44.91 67.2545 44.9096 68.924C44.9096 68.9815 44.9096 69.0393 44.9092 69.0968C44.9077 69.4446 44.6731 69.7091 44.2783 69.5177C44.2136 69.4865 44.1447 69.4637 44.0804 69.4313C42.7191 68.7398 41.355 68.0529 39.9978 67.3527C39.5459 67.1194 39.1667 66.7974 38.8495 66.3887C38.1273 65.4574 37.8782 64.3911 37.8797 63.246C37.8801 63.0621 37.9344 62.8791 37.9539 62.6945C38.0155 62.1096 38.1954 61.5688 38.6073 61.1361C39.0263 60.6958 39.2566 60.1634 39.4606 59.607C39.5689 59.3113 39.5073 59.0742 39.3079 58.8546C39.1392 58.6681 38.9375 58.565 38.6789 58.5144C37.8682 58.3557 37.0444 58.3484 36.2268 58.2876C35.3486 58.2221 34.4659 58.2076 33.5851 58.1928C32.5145 58.1749 31.4431 58.1974 30.3729 58.1677C29.9157 58.1547 29.5908 58.3252 29.3448 58.6799C29.2143 58.8679 29.0892 59.0635 28.9912 59.2698C28.8814 59.5 28.8967 59.7409 29.0054 59.9765C29.1041 60.1908 29.2495 60.3624 29.4416 60.5002Z" fill="#402483"/>
</g>
<defs>
<clipPath id="clip0_307_1588">
<rect width="163" height="94" fill="white"/>
</clipPath>
</defs>
</svg>
