<svg width="25" height="24" viewBox="0 0 25 24" fill="none" xmlns="http://www.w3.org/2000/svg">
<g clip-path="url(#clip0_350_7916)">
<path d="M12.8298 14.8151C12.8298 12.9834 11.9586 11.6295 10.1587 11.122C11.472 10.4966 12.1568 9.54905 12.1568 8.0752C12.1568 5.16913 9.98423 4.46045 7.47759 4.46045H0.576172V19.0513H7.67087C10.3311 19.0513 12.8298 17.7796 12.8298 14.8151ZM3.79347 6.95123H6.81253C7.97317 6.95123 9.01785 7.27632 9.01785 8.61835C9.01785 9.8573 8.2051 10.3558 7.05536 10.3558H3.79347V6.95123ZM3.79247 16.5734V12.5552H7.29919C8.71555 12.5552 9.61156 13.144 9.61156 14.6386C9.61156 16.1125 8.5421 16.5734 7.23278 16.5734H3.79247ZM19.2059 19.3278C21.7374 19.3278 23.3767 18.1909 24.1657 15.7745H21.5966C21.3201 16.6765 20.1803 17.1532 19.2961 17.1532C17.5904 17.1532 16.6944 16.1571 16.6944 14.4642H24.3391C24.581 11.0764 22.6938 8.18918 19.205 8.18918C15.9748 8.18918 13.7823 10.6096 13.7823 13.7803C13.7823 17.0709 15.8598 19.3278 19.2059 19.3278ZM19.1148 10.3816C20.5767 10.3816 21.3122 11.238 21.4351 12.6385H16.6983C16.7945 11.2499 17.7192 10.3816 19.1148 10.3816ZM16.1046 5.22661H22.0397V6.66379H16.1046V5.22661Z" fill="white"/>
</g>
<defs>
<clipPath id="clip0_350_7916">
<rect width="23.7878" height="23.7878" fill="white" transform="translate(0.576172)"/>
</clipPath>
</defs>
</svg>
