<svg width="94" height="72" viewBox="0 0 94 72" fill="none" xmlns="http://www.w3.org/2000/svg">
<path d="M47.1089 25.0718C48.615 28.9725 48.6472 33.2885 47.1995 37.2112C45.7517 41.1339 42.9233 44.3942 39.2442 46.3812C35.5651 48.3681 31.2878 48.9455 27.2136 48.005C23.1394 47.0646 19.5478 44.6709 17.1119 41.2723L0 50.5168L72.1638 71.9433L93.5255 0L47.1089 25.0718ZM68.87 24.674C69.7874 24.9463 70.6034 25.4846 71.2149 26.2207C71.8264 26.9569 72.2059 27.8578 72.3053 28.8096C72.4048 29.7614 72.2198 30.7213 71.7737 31.5679C71.3276 32.4146 70.6404 33.1099 69.7992 33.566C68.9579 34.0221 68.0002 34.2185 67.0473 34.1304C66.0944 34.0423 65.189 33.6735 64.4457 33.0708C63.7024 32.4681 63.1544 31.6585 62.8712 30.7444C62.588 29.8303 62.5822 28.8528 62.8545 27.9354C63.2199 26.7053 64.0589 25.6707 65.187 25.0591C66.315 24.4475 67.6398 24.3089 68.87 24.674ZM56.7142 58.4181C54.9361 57.8902 53.3546 56.8469 52.1695 55.4201C50.9844 53.9933 50.249 52.2471 50.0563 50.4024C49.8636 48.5577 50.2223 46.6972 51.0869 45.0563C51.9516 43.4154 53.2834 42.0678 54.914 41.1838C56.5446 40.2998 58.4007 39.9192 60.2475 40.0901C62.0944 40.261 63.8492 40.9758 65.2898 42.1439C66.7305 43.3121 67.7924 44.8813 68.3413 46.653C68.8902 48.4246 68.9014 50.3193 68.3735 52.0974C68.023 53.278 67.4434 54.378 66.6677 55.3346C65.8921 56.2912 64.9357 57.0857 63.853 57.6726C62.7703 58.2595 61.5826 58.6275 60.3577 58.7554C59.1329 58.8833 57.8948 58.7687 56.7142 58.4181Z" fill="white"/>
</svg>
