<svg width="78" height="78" viewBox="0 0 78 78" fill="none" xmlns="http://www.w3.org/2000/svg">
<g clip-path="url(#clip0_350_7985)">
<path d="M34.4818 0.357089L5.23183 29.6071C5.00335 29.8356 4.875 30.1456 4.875 30.4687C4.875 30.7919 5.00335 31.1019 5.23183 31.3304L14.9818 41.0804C15.2103 41.309 15.5203 41.4374 15.8435 41.4375L23.156 41.4375C23.3158 41.4379 23.4741 41.4066 23.6218 41.3455C23.7694 41.2845 23.9036 41.1948 24.0164 41.0816L39.0253 26.1251L53.9818 41.0804C54.2103 41.309 54.5203 41.4374 54.8435 41.4375L62.156 41.4375C62.4792 41.4374 62.7891 41.309 63.0176 41.0804L72.7676 31.3304C72.9961 31.1019 73.1245 30.7919 73.1245 30.4687C73.1245 30.1456 72.9961 29.8356 72.7676 29.6071L43.5176 0.357088C43.2891 0.128512 42.9792 6.31843e-05 42.656 -5.46616e-06L35.3435 -5.14652e-06C35.0203 6.35322e-05 34.7103 0.128512 34.4818 0.357089ZM22.6526 39L18.7868 39L35.3435 22.4421L37.302 24.4006L22.6526 39ZM36.2051 19.8571C35.9766 19.6286 35.6667 19.5003 35.3435 19.5003C35.0203 19.5003 34.7104 19.6286 34.4818 19.8571L15.8435 38.4954L7.8168 30.4687L35.3435 2.94206L62.8702 30.4687L54.8435 38.4954L36.2051 19.8571ZM57.7856 39L65.0981 31.6875L68.9639 31.6875L61.6514 39L57.7856 39ZM68.9639 29.25L65.0981 29.25L38.2856 2.43749L42.1514 2.43749L68.9639 29.25Z" fill="black"/>
<path d="M42.656 36.5625L35.3435 36.5625C35.0203 36.5626 34.7103 36.691 34.4818 36.9196L5.23183 66.1696C5.00335 66.3981 4.875 66.7081 4.875 67.0312C4.875 67.3544 5.00335 67.6644 5.23183 67.8929L14.9818 77.6429C15.2103 77.8715 15.5203 77.9999 15.8435 78L23.156 78C23.3158 78.0004 23.4741 77.9691 23.6218 77.908C23.7694 77.847 23.9036 77.7573 24.0164 77.6441L39.0253 62.6876L53.9818 77.6429C54.2103 77.8715 54.5203 77.9999 54.8435 78L62.156 78C62.4792 77.9999 62.7891 77.8715 63.0176 77.6429L72.7676 67.8929C72.9961 67.6644 73.1245 67.3544 73.1245 67.0312C73.1245 66.7081 72.9961 66.3981 72.7676 66.1696L43.5176 36.9196C43.2891 36.691 42.9792 36.5626 42.656 36.5625ZM22.6526 75.5625L18.7856 75.5625L35.3435 59.0046L37.302 60.9631L22.6526 75.5625ZM36.2051 56.4196C35.9766 56.1911 35.6667 56.0628 35.3435 56.0628C35.0203 56.0628 34.7104 56.1911 34.4818 56.4196L15.8435 75.0579L7.8168 67.0312L35.3435 39.5046L62.8702 67.0312L54.8435 75.0579L36.2051 56.4196ZM57.7856 75.5625L65.0981 68.25L68.9639 68.25L61.6514 75.5625L57.7856 75.5625ZM68.9639 65.8125L65.0981 65.8125L38.2856 39L42.1514 39L68.9639 65.8125Z" fill="black"/>
</g>
<defs>
<clipPath id="clip0_350_7985">
<rect width="78" height="78" fill="white" transform="translate(0 78) rotate(-90)"/>
</clipPath>
</defs>
</svg>
