<svg width="25" height="24" viewBox="0 0 25 24" fill="none" xmlns="http://www.w3.org/2000/svg">
<g clip-path="url(#clip0_350_7913)">
<path d="M12.5806 0C6.05982 0.000991157 2.59375 4.17872 2.59375 8.73407C2.59375 10.8462 3.77422 13.4817 5.66435 14.3173C6.20354 14.5601 6.13218 14.2637 6.59604 12.4896C6.61739 12.4179 6.61928 12.3418 6.60151 12.2692C6.58374 12.1966 6.54696 12.13 6.49494 12.0763C3.79305 8.95113 5.96765 2.52646 12.1951 2.52646C21.2077 2.52646 19.5237 14.9972 13.7631 14.9972C12.2783 14.9972 11.1722 13.8316 11.5221 12.3895C11.9463 10.6718 12.7769 8.82526 12.7769 7.5873C12.7769 4.46714 8.12837 4.93001 8.12837 9.06413C8.12837 10.3417 8.58034 11.204 8.58034 11.204C8.58034 11.204 7.08468 17.2461 6.80716 18.375C6.33735 20.286 6.87059 23.3794 6.91717 23.646C6.94592 23.7927 7.11045 23.8393 7.20263 23.7184C7.35031 23.5251 9.15818 20.9461 9.66466 19.0817C9.84902 18.4028 10.6053 15.6474 10.6053 15.6474C11.1038 16.5474 12.541 17.3006 14.0723 17.3006C18.6277 17.3006 21.9203 13.2964 21.9203 8.3277C21.9045 3.5642 17.8278 0 12.5806 0Z" fill="white"/>
</g>
<defs>
<clipPath id="clip0_350_7913">
<rect width="23.7878" height="23.7878" fill="white" transform="translate(0.363281)"/>
</clipPath>
</defs>
</svg>
