<svg width="20" height="20" viewBox="0 0 20 20" fill="none" xmlns="http://www.w3.org/2000/svg">
<path fill-rule="evenodd" clip-rule="evenodd" d="M10 2C5.58172 2 2 5.58172 2 10C2 14.4183 5.58172 18 10 18C14.4183 18 18 14.4183 18 10C18 5.58172 14.4183 2 10 2ZM0 10C0 4.47715 4.47715 0 10 0C15.5228 0 20 4.47715 20 10C20 15.5228 15.5228 20 10 20C4.47715 20 0 15.5228 0 10ZM9.96699 7.25C9.5024 7.25 9.1095 7.56774 8.99844 7.99926C8.86077 8.53411 8.31559 8.8561 7.78074 8.71844C7.24589 8.58078 6.9239 8.03559 7.06156 7.50074C7.39454 6.20704 8.56774 5.25 9.96699 5.25C11.6238 5.25 12.967 6.59315 12.967 8.25C12.967 9.1814 12.5125 9.7993 12.0365 10.2587C11.8436 10.4449 11.624 10.6269 11.4266 10.7905C11.3975 10.8146 11.3689 10.8383 11.3409 10.8616C11.1105 11.0533 10.89 11.2413 10.6741 11.4571C10.2836 11.8476 9.65043 11.8476 9.2599 11.4571C8.86938 11.0666 8.86938 10.4334 9.2599 10.0429C9.54406 9.75874 9.82357 9.52227 10.0619 9.32404C10.0935 9.29777 10.1239 9.27248 10.1534 9.24804C10.358 9.07821 10.5132 8.94937 10.6475 8.81968C10.9215 8.55527 10.967 8.42317 10.967 8.25C10.967 7.69772 10.5193 7.25 9.96699 7.25ZM9.97701 14.75H9.96701C9.41473 14.75 8.96701 14.3023 8.96701 13.75C8.96701 13.1977 9.41473 12.75 9.96701 12.75H9.97701C10.5293 12.75 10.977 13.1977 10.977 13.75C10.977 14.3023 10.5293 14.75 9.97701 14.75Z" fill="#CACACA"/>
</svg>
