<svg width="78" height="44" viewBox="0 0 78 44" fill="none" xmlns="http://www.w3.org/2000/svg">
<g clip-path="url(#clip0_350_7989)">
<path d="M34.4818 0.357089L5.23183 29.6071C5.00335 29.8356 4.875 30.1456 4.875 30.4687C4.875 30.7919 5.00335 31.1019 5.23183 31.3304L14.9818 41.0804C15.2103 41.309 15.5203 41.4374 15.8435 41.4375L23.156 41.4375C23.3158 41.4379 23.4741 41.4066 23.6218 41.3455C23.7694 41.2845 23.9036 41.1948 24.0164 41.0816L39.0253 26.1251L53.9818 41.0804C54.2103 41.309 54.5203 41.4374 54.8435 41.4375L62.156 41.4375C62.4792 41.4374 62.7891 41.309 63.0176 41.0804L72.7676 31.3304C72.9961 31.1019 73.1245 30.7919 73.1245 30.4687C73.1245 30.1456 72.9961 29.8356 72.7676 29.6071L43.5176 0.357088C43.2891 0.128512 42.9792 6.31843e-05 42.656 -5.46616e-06L35.3435 -5.14652e-06C35.0203 6.35322e-05 34.7103 0.128512 34.4818 0.357089ZM22.6526 39L18.7868 39L35.3435 22.4421L37.302 24.4006L22.6526 39ZM36.2051 19.8571C35.9766 19.6286 35.6667 19.5003 35.3435 19.5003C35.0203 19.5003 34.7104 19.6286 34.4818 19.8571L15.8435 38.4954L7.8168 30.4687L35.3435 2.94206L62.8702 30.4687L54.8435 38.4954L36.2051 19.8571ZM57.7856 39L65.0981 31.6875L68.9639 31.6875L61.6514 39L57.7856 39ZM68.9639 29.25L65.0981 29.25L38.2856 2.43749L42.1514 2.43749L68.9639 29.25Z" fill="black"/>
</g>
<defs>
<clipPath id="clip0_350_7989">
<rect width="44" height="78" fill="white" transform="translate(0 44) rotate(-90)"/>
</clipPath>
</defs>
</svg>
