<svg width="24" height="24" viewBox="0 0 24 24" fill="none" xmlns="http://www.w3.org/2000/svg">
<g clip-path="url(#clip0_350_7910)">
<path d="M23.812 17.3649C23.7832 17.3028 23.7564 17.2513 23.7314 17.2101C23.3187 16.4668 22.53 15.5544 21.3658 14.4727L21.3412 14.4479L21.3289 14.4358L21.3165 14.4234H21.304C20.7756 13.9197 20.441 13.581 20.3009 13.4076C20.0445 13.0773 19.9871 12.743 20.1272 12.4042C20.2262 12.1483 20.5981 11.6078 21.2419 10.782C21.5806 10.3443 21.8488 9.99352 22.0469 9.72925C23.4754 7.83007 24.0947 6.61648 23.9047 6.08798L23.831 5.96447C23.7814 5.89012 23.6534 5.8221 23.4472 5.76007C23.2406 5.69816 22.9764 5.68793 22.6543 5.72918L19.0874 5.75382C19.0297 5.73335 18.9471 5.73525 18.8397 5.76007L18.6786 5.79733L18.6165 5.82835L18.5672 5.86561C18.5259 5.89025 18.4805 5.93359 18.4309 5.99554C18.3816 6.05726 18.3404 6.12971 18.3074 6.21226C17.919 7.21135 17.4775 8.14024 16.982 8.9989C16.6765 9.51092 16.3959 9.95465 16.1396 10.3304C15.8837 10.7059 15.6691 10.9827 15.4958 11.1601C15.3223 11.3376 15.1657 11.4798 15.025 11.5873C14.8846 11.6948 14.7774 11.7402 14.7032 11.7236C14.6288 11.707 14.5587 11.6905 14.4924 11.674C14.3769 11.5997 14.284 11.4985 14.2139 11.3706C14.1436 11.2426 14.0962 11.0815 14.0714 10.8875C14.0468 10.6933 14.0322 10.5263 14.028 10.3859C14.0242 10.2456 14.026 10.0473 14.0343 9.79133C14.0429 9.53525 14.0468 9.36199 14.0468 9.27116C14.0468 8.95735 14.0529 8.61677 14.0652 8.24934C14.0777 7.88191 14.0878 7.59079 14.0962 7.37632C14.1046 7.16163 14.1085 6.93449 14.1085 6.69504C14.1085 6.45558 14.094 6.26779 14.0652 6.13149C14.0364 5.99507 13.9929 5.86217 13.9355 5.73512C13.8775 5.60715 13.7928 5.50816 13.6816 5.43789C13.5701 5.3677 13.4316 5.312 13.2667 5.27061C12.829 5.17158 12.2717 5.118 11.5945 5.10967C10.0588 5.09319 9.07205 5.19235 8.63443 5.40704C8.46104 5.49775 8.30413 5.62169 8.16384 5.77846C8.01518 5.96018 7.99444 6.05935 8.10177 6.07566C8.59725 6.14988 8.94802 6.32743 9.15447 6.60815L9.22886 6.7569C9.28673 6.86422 9.34452 7.05422 9.40234 7.32665C9.46008 7.59908 9.49734 7.90044 9.51374 8.23056C9.55495 8.83341 9.55495 9.34946 9.51374 9.77875C9.4724 10.2082 9.43336 10.5425 9.39609 10.782C9.35883 11.0215 9.30313 11.2155 9.22886 11.3641C9.15447 11.5127 9.10497 11.6035 9.08016 11.6365C9.05539 11.6695 9.03474 11.6902 9.01834 11.6984C8.91163 11.7395 8.79824 11.7606 8.68388 11.7605C8.56819 11.7605 8.4279 11.7026 8.26279 11.587C8.09773 11.4713 7.92642 11.3124 7.74887 11.1101C7.57132 10.9078 7.37107 10.625 7.14806 10.2617C6.92521 9.89843 6.694 9.4691 6.45454 8.9737L6.25643 8.61443C6.13258 8.3833 5.96339 8.04676 5.74871 7.60511C5.53389 7.16328 5.34401 6.7359 5.17895 6.32305C5.11297 6.14966 5.01385 6.01766 4.88176 5.92682L4.81977 5.88956C4.77856 5.85659 4.7124 5.82158 4.62165 5.78427C4.53002 5.74682 4.43446 5.71984 4.33677 5.70385L0.943203 5.72849C0.596423 5.72849 0.361131 5.80705 0.237237 5.96395L0.187654 6.03818C0.162884 6.07952 0.150391 6.14554 0.150391 6.23642C0.150391 6.32726 0.175161 6.43875 0.224744 6.57075C0.720143 7.73507 1.25888 8.85796 1.84095 9.9396C2.42302 11.0212 2.92883 11.8925 3.35808 12.5527C3.78741 13.2133 4.22503 13.8368 4.67093 14.4229C5.11683 15.0092 5.41199 15.3849 5.5564 15.5499C5.70099 15.7153 5.81456 15.8389 5.89711 15.9215L6.2068 16.2187C6.40496 16.4169 6.69595 16.6543 7.07991 16.9308C7.46395 17.2075 7.88912 17.4799 8.35563 17.7485C8.82222 18.0166 9.36503 18.2355 9.98437 18.4047C10.6036 18.5741 11.2063 18.6421 11.7926 18.6093H13.217C13.5058 18.5843 13.7247 18.4935 13.8734 18.3367L13.9227 18.2746C13.9558 18.2253 13.9869 18.1488 14.0155 18.0458C14.0445 17.9426 14.0589 17.8289 14.0589 17.7052C14.0504 17.3502 14.0774 17.0303 14.1392 16.7454C14.2009 16.4607 14.2713 16.246 14.35 16.1014C14.4286 15.957 14.5174 15.8351 14.6162 15.7362C14.7152 15.6372 14.7857 15.5772 14.8271 15.5566C14.8682 15.5358 14.9011 15.5217 14.9258 15.5132C15.124 15.4472 15.3572 15.5111 15.6258 15.7054C15.8942 15.8994 16.1459 16.139 16.3814 16.4237C16.6167 16.7087 16.8995 17.0285 17.2297 17.3835C17.5601 17.7386 17.849 18.0025 18.0966 18.1762L18.3443 18.3248C18.5096 18.424 18.7243 18.5148 18.9886 18.5974C19.2524 18.6799 19.4835 18.7005 19.682 18.6593L22.8525 18.6098C23.1661 18.6098 23.4101 18.5579 23.5832 18.4549C23.7566 18.3517 23.8596 18.238 23.8929 18.1143C23.926 17.9905 23.9278 17.85 23.8991 17.693C23.8698 17.5363 23.8408 17.4268 23.812 17.3649Z" fill="white"/>
</g>
<defs>
<clipPath id="clip0_350_7910">
<rect width="23.7878" height="23.7878" fill="white" transform="translate(0.150391)"/>
</clipPath>
</defs>
</svg>
