<svg width="24" height="24" viewBox="0 0 24 24" fill="none" xmlns="http://www.w3.org/2000/svg">
<g clip-path="url(#clip0_350_7922)">
<path d="M17.3524 14.1802L17.3435 14.2545C15.164 13.1682 14.936 13.0235 14.6545 13.4457C14.4592 13.7381 13.8903 14.4012 13.7189 14.5975C13.5454 14.7907 13.3729 14.8056 13.0786 14.6718C12.7812 14.5231 11.8267 14.2109 10.6968 13.1999C9.81667 12.412 9.22594 11.4456 9.0515 11.1482C8.76109 10.6467 9.36867 10.5753 9.92173 9.52868C10.0208 9.32054 9.9703 9.157 9.89695 9.00932C9.82262 8.86065 9.2309 7.40364 8.98311 6.82283C8.74523 6.24399 8.50041 6.31734 8.31705 6.31734C7.74614 6.26778 7.32887 6.27571 6.96115 6.6583C5.36142 8.41661 5.76482 10.2304 7.13361 12.1592C9.82361 15.6798 11.2568 16.328 13.8774 17.228C14.5851 17.453 15.2304 17.4213 15.7408 17.3479C16.3097 17.2577 17.4922 16.6333 17.739 15.9345C17.9917 15.2358 17.9917 14.6559 17.9174 14.5221C17.844 14.3883 17.6498 14.314 17.3524 14.1802Z" fill="white"/>
<path d="M20.3385 3.41844C12.7175 -3.94883 0.105063 1.3945 0.100107 11.7878C0.100107 13.8652 0.644252 15.8912 1.681 17.6802L0 23.7877L6.27898 22.1503C14.1141 26.3825 23.7838 20.7627 23.7878 11.7937C23.7878 8.6458 22.5587 5.68323 20.3237 3.45709L20.3385 3.41844ZM21.8074 11.761C21.8015 19.3265 13.4966 24.0513 6.92818 20.1898L6.57137 19.9777L2.85453 20.9441L3.85064 17.3313L3.61376 16.9596C-0.473773 10.4527 4.22233 1.94855 11.9652 1.94855C13.2583 1.9453 14.5391 2.19855 15.7336 2.69363C16.9281 3.18872 18.0125 3.91581 18.9242 4.83282C19.8407 5.73832 20.5677 6.81732 21.0628 8.00684C21.5578 9.19637 21.811 10.4726 21.8074 11.761Z" fill="white"/>
</g>
<defs>
<clipPath id="clip0_350_7922">
<rect width="23.7878" height="23.7878" fill="white"/>
</clipPath>
</defs>
</svg>
