<svg width="327" height="327" viewBox="0 0 327 327" fill="none" xmlns="http://www.w3.org/2000/svg">
<path d="M20.7139 150.382C20.3169 154.181 19.0574 156.986 16.9353 158.797C14.8133 160.607 11.9382 161.323 8.31017 160.944L1.43405 160.225L1.94113 155.371L8.44954 156.051C10.8274 156.3 12.7105 155.827 14.099 154.634C15.463 153.439 16.2795 151.554 16.5484 148.98C16.702 147.509 16.6918 145.947 16.5176 144.293C16.3189 142.637 15.9841 140.979 15.5132 139.319L19.4823 139.399C20.0732 141.096 20.4797 142.898 20.7018 144.804C20.9019 146.684 20.906 148.543 20.7139 150.382ZM31.2478 141.706L3.6698 138.825L4.17688 133.971L31.7549 136.852L31.2478 141.706Z" fill="#3F3D3F"/>
<path d="M32.4132 132.526L6.23945 123.373L7.80163 118.906L31.8116 127.302L30.9833 128.775L13.6354 102.224L15.7345 96.2218L41.9082 105.375L40.3461 109.842L16.1267 101.372L16.955 99.8995L34.4635 126.663L32.4132 132.526Z" fill="#3F3D3F"/>
<path d="M43.273 102.567L19.9887 87.5105L22.5583 83.5367L43.9178 97.3482L42.766 98.5847L32.1541 68.6968L35.607 63.357L58.8913 78.4131L56.3217 82.387L34.776 68.455L35.9277 67.2186L46.6456 97.351L43.273 102.567Z" fill="#3F3D3F"/>
<path d="M61.0695 75.782L42.0409 55.6138L45.4829 52.3662L62.9385 70.8672L61.5254 71.7938L58.3369 40.2387L62.9621 35.8748L81.9907 56.043L78.5487 59.2906L60.9409 40.6282L62.3539 39.7016L65.5872 71.5196L61.0695 75.782Z" fill="#3F3D3F"/>
<path d="M95.4074 48.5265C93.057 49.9267 90.8012 50.8115 88.6401 51.1808C86.4789 51.5502 84.5286 51.4067 82.7892 50.7503C81.0498 50.0938 79.6288 48.9607 78.5264 47.351L82.719 44.8534C83.8768 46.3154 85.3707 47.0894 87.2008 47.1755C89.0393 47.2278 91.1126 46.5664 93.4207 45.1915C95.644 43.867 97.1679 42.5002 97.9924 41.091C98.8255 39.648 98.832 38.2383 98.0121 36.8619C97.3183 35.6973 96.2929 35.1319 94.936 35.1657C93.579 35.1994 91.7783 35.8849 89.5338 37.222L84.7694 40.0601L83.0098 37.1063L87.6788 34.3248C89.0128 33.5302 90.0193 32.7154 90.6982 31.8806C91.3772 31.0458 91.7644 30.227 91.8599 29.4242C91.9429 28.6002 91.7825 27.8494 91.3788 27.1718C90.8869 26.346 90.2059 25.8049 89.336 25.5485C88.4872 25.2795 87.4981 25.2807 86.3686 25.5518C85.2392 25.823 84.0392 26.3371 82.7687 27.0939C80.6513 28.3553 79.2033 29.7773 78.4247 31.36C77.6462 32.9427 77.5757 34.5339 78.2131 36.1337L74.0523 38.6124C73.3049 37.0207 73.0376 35.3438 73.2502 33.5819C73.4841 31.8073 74.2399 30.066 75.5176 28.3581C76.8039 26.6165 78.6222 25.0455 80.9726 23.6454C83.09 22.3839 85.0919 21.5787 86.9783 21.2296C88.8732 20.8467 90.5405 20.9005 91.9804 21.3912C93.4288 21.848 94.5377 22.7223 95.3072 24.0139C95.9631 25.115 96.2341 26.3164 96.1201 27.6179C96.0061 28.9194 95.4504 30.2259 94.4529 31.5374C93.4554 32.8488 91.9614 34.0974 89.971 35.2831L89.6115 34.6797C91.5303 33.4219 93.3252 32.5821 94.9962 32.1605C96.6546 31.7176 98.1172 31.6927 99.384 32.0855C100.672 32.4658 101.694 33.2912 102.451 34.5617C103.309 36.0015 103.615 37.5263 103.369 39.136C103.144 40.7331 102.368 42.3433 101.039 43.9665C99.6987 45.5685 97.8213 47.0885 95.4074 48.5265Z" fill="#3F3D3F"/>
<path d="M142.336 19.0843C142.666 21.3413 142.394 23.4866 141.52 25.5204C140.664 27.5242 139.306 29.263 137.447 30.7371C135.588 32.2111 133.311 33.297 130.614 33.9948C127.608 34.7729 124.82 34.8707 122.25 34.2882C119.681 33.7057 117.495 32.5401 115.694 30.7915C113.885 29.019 112.623 26.7488 111.907 23.981C111.191 21.2131 111.196 18.6275 111.923 16.2243C112.645 13.7973 113.987 11.7058 115.952 9.94995C117.916 8.19409 120.401 6.92712 123.408 6.14901C126.104 5.45119 128.622 5.29585 130.963 5.683C133.304 6.07014 135.334 6.93211 137.055 8.26891C138.8 9.59953 140.078 11.3435 140.891 13.5008L136.131 14.7328C135.498 13.3691 134.607 12.2885 133.459 11.4909C132.334 10.6872 131.009 10.19 129.483 9.99941C127.951 9.78492 126.278 9.91235 124.465 10.3817C122.365 10.9251 120.642 11.7912 119.294 12.9801C117.971 14.1627 117.08 15.5898 116.622 17.2615C116.163 18.9332 116.19 20.7592 116.703 22.7397C117.216 24.7202 118.078 26.3301 119.29 27.5695C120.501 28.8088 121.973 29.6246 123.704 30.0168C125.458 30.4028 127.386 30.3241 129.485 29.7807C131.299 29.3114 132.827 28.6232 134.068 27.7162C135.31 26.8092 136.228 25.7316 136.821 24.4832C137.433 23.2049 137.684 21.8159 137.576 20.3163L142.336 19.0843Z" fill="#3F3D3F"/>
<path d="M154.616 4.21084L159.493 4.02255L160.475 29.4765L155.599 29.6647L154.616 4.21084ZM143.077 2.39951L170.858 1.32681L171.023 5.61223L143.242 6.68493L143.077 2.39951Z" fill="#3F3D3F"/>
<path d="M179.654 30.3868L185.392 23.4562L185.465 23.4681L200.136 5.63309L205.39 6.49012L184.908 31.2438L179.654 30.3868ZM184.942 26.904L175.141 1.55623L180.469 2.42517L188.742 23.8154L184.942 26.904Z" fill="#3F3D3F"/>
<path d="M195.593 37.9089L199.481 28.7153L203.499 30.4148L206.126 31.6062L225.126 39.6426L226.211 40.0209L232.544 42.6997L228.655 51.8933L224.467 50.1218L226.685 44.8781L201.999 34.4366L199.781 39.6803L195.593 37.9089ZM214.23 9.5038L237.18 19.2108L227.113 43.0119L222.619 41.1108L231.879 19.2165L233.058 22.1237L214.977 14.4762L217.523 13.867C217.108 15.1635 216.665 16.4343 216.192 17.6793C215.719 18.9243 215.252 20.0916 214.791 21.1812C213.581 24.0414 212.344 26.3953 211.081 28.2428C209.818 30.0903 208.564 31.3794 207.318 32.1103C206.072 32.8412 204.882 32.9666 203.747 32.4865L202.551 30.094C204.053 29.3911 205.488 28.0848 206.858 26.1754C208.25 24.2755 209.623 21.7252 210.977 18.5244C211.563 17.1397 212.127 15.6791 212.67 14.1425C213.213 12.6058 213.733 11.0596 214.23 9.5038Z" fill="#3F3D3F"/>
<path d="M232.25 47.8397L249.048 25.7791L252.813 28.646L237.403 48.8829L236.259 47.6397L266.873 39.352L271.932 43.2043L255.134 65.2649L251.369 62.398L266.913 41.9846L268.057 43.2278L237.191 51.6024L232.25 47.8397Z" fill="#3F3D3F"/>
<path d="M282.055 74.1541L279.288 76.4932L271.412 67.1759L271.444 67.1C270.187 65.613 269.345 64.082 268.917 62.5071C268.506 60.951 268.5 59.4552 268.9 58.0197C269.316 56.6029 270.155 55.3615 271.416 54.2954C272.677 53.2293 274.041 52.609 275.507 52.4346C277.008 52.2631 278.491 52.5098 279.957 53.1748C281.458 53.8427 282.836 54.9202 284.093 56.4072L294.166 68.322L272.99 86.2228L269.839 82.4959L289.886 65.5498L289.628 68.6238L281.656 59.1936C280.558 57.8948 279.371 57.1395 278.095 56.9276C276.834 56.7345 275.658 57.0994 274.566 58.0223C273.475 58.9452 272.91 60.0521 272.871 61.3431C272.868 62.6371 273.415 63.9334 274.513 65.2322L282.055 74.1541ZM276.766 70.5891L259.958 70.807L256.211 66.3743L273.114 66.2692L276.766 70.5891Z" fill="#3F3D3F"/>
<path d="M273.468 95.8959L282.661 92.0074L284.361 96.0253L285.416 98.71L293.452 117.71L293.967 118.737L296.645 125.07L287.452 128.959L285.68 124.771L290.924 122.553L280.483 97.8662L275.239 100.084L273.468 95.8959ZM306.625 88.4948L316.332 111.445L292.531 121.512L290.63 117.017L312.524 107.757L311.345 110.664L303.698 92.583L305.949 93.919C304.749 94.5605 303.545 95.1633 302.338 95.7271C301.132 96.291 299.984 96.8034 298.894 97.2642C296.034 98.474 293.507 99.3019 291.314 99.7478C289.121 100.194 287.323 100.245 285.92 99.9018C284.517 99.5585 283.575 98.8194 283.095 97.6844L283.904 95.1347C285.471 95.6762 287.411 95.7388 289.723 95.3226C292.046 94.929 294.807 94.0554 298.008 92.7016C299.393 92.1159 300.815 91.4608 302.275 90.7363C303.734 90.0118 305.185 89.2647 306.625 88.4948Z" fill="#3F3D3F"/>
<path d="M292.798 128.331L320.214 124.182L320.922 128.861L295.772 132.667L295.816 130.977L323.566 146.334L324.518 152.621L297.102 156.77L296.394 152.091L321.762 148.252L321.719 149.941L293.727 134.472L292.798 128.331Z" fill="#3F3D3F"/>
<path d="M295.622 172.41C295.822 169.682 296.39 167.326 297.327 165.344C298.263 163.361 299.499 161.846 301.034 160.797C302.569 159.748 304.312 159.234 306.263 159.253L305.906 164.12C304.044 164.231 302.553 165.011 301.434 166.461C300.337 167.937 299.69 170.015 299.493 172.695C299.304 175.276 299.55 177.308 300.232 178.791C300.936 180.301 302.088 181.115 303.685 181.232C305.037 181.331 306.089 180.815 306.839 179.684C307.589 178.553 308.06 176.685 308.251 174.079L308.657 168.548L312.086 168.8L311.689 174.22C311.575 175.769 311.665 177.061 311.96 178.096C312.255 179.13 312.704 179.917 313.307 180.456C313.934 180.996 314.641 181.295 315.428 181.353C316.387 181.423 317.22 181.176 317.929 180.61C318.636 180.069 319.202 179.257 319.628 178.177C320.053 177.096 320.32 175.818 320.428 174.343C320.609 171.885 320.274 169.883 319.423 168.338C318.573 166.793 317.31 165.823 315.633 165.428L315.988 160.598C317.721 160.898 319.248 161.64 320.57 162.825C321.889 164.034 322.883 165.651 323.55 167.677C324.239 169.73 324.484 172.12 324.283 174.848C324.103 177.307 323.615 179.408 322.819 181.154C322.047 182.926 321.047 184.261 319.819 185.16C318.614 186.085 317.262 186.492 315.763 186.382C314.485 186.288 313.345 185.821 312.344 184.982C311.343 184.142 310.591 182.938 310.089 181.369C309.586 179.799 309.419 177.86 309.589 175.549L310.29 175.6C310.22 177.894 309.879 179.846 309.267 181.457C308.679 183.069 307.861 184.282 306.812 185.095C305.762 185.932 304.5 186.296 303.025 186.188C301.353 186.065 299.929 185.442 298.751 184.317C297.571 183.217 296.697 181.658 296.129 179.639C295.585 177.622 295.416 175.213 295.622 172.41Z" fill="#3F3D3F"/>
<path d="M299.779 193.524L303.644 194.667L298.153 213.245L294.288 212.103L299.779 193.524ZM316.626 211.919L286.262 216.824L287.74 211.825L315.984 207.566L315.45 209.375L294.058 190.446L295.536 185.447L318.355 206.069L316.626 211.919Z" fill="#3F3D3F"/>
<path d="M286.247 216.186L310.326 229.936L307.98 234.045L285.891 221.432L286.973 220.134L299.216 249.391L296.063 254.913L271.984 241.164L274.331 237.054L296.612 249.777L295.53 251.075L283.167 221.58L286.247 216.186ZM314.185 239.207L312.206 242.674C311.258 242.445 310.394 242.491 309.615 242.812C308.844 243.167 308.196 243.805 307.671 244.725C307.133 245.667 306.913 246.549 307.011 247.371C307.131 248.206 307.53 248.973 308.209 249.673L306.229 253.14C304.724 251.799 303.899 250.263 303.751 248.533C303.625 246.814 304.076 245.057 305.102 243.259C306.129 241.461 307.414 240.179 308.958 239.415C310.523 238.662 312.265 238.593 314.185 239.207Z" fill="#3F3D3F"/>
<path d="M290.683 262.197L287.36 265.771L267.054 246.889L270.377 243.315L290.683 262.197ZM275.326 278.712L272.003 282.286L251.697 263.405L255.02 259.831L275.326 278.712ZM280.394 256.214L265.239 272.513L262.098 269.593L277.254 253.294L280.394 256.214Z" fill="#3F3D3F"/>
<path d="M249.766 272.85L252.04 276.177L236.047 287.11L233.773 283.783L249.766 272.85ZM251.204 297.752L224.569 282.373L228.872 279.431L253.457 293.973L251.901 295.037L247.276 266.85L251.579 263.908L256.24 294.309L251.204 297.752Z" fill="#3F3D3F"/>
<path d="M211.021 287.47L209.158 296.273L209.088 296.296L204.379 318.905L199.328 320.587L205.969 289.152L211.021 287.47ZM207.955 293.01L228.408 310.906L223.286 312.611L206.024 297.511L207.955 293.01Z" fill="#3F3D3F"/>
<path d="M167.106 324.377L164.225 296.799L169.042 296.296L171.704 321.778L169.267 319.802L191.146 317.516L189.17 319.953L186.508 294.471L191.362 293.964L194.243 321.542L167.106 324.377Z" fill="#3F3D3F"/>
<path d="M155.002 302.611L154.506 306.61L135.28 304.227L135.776 300.228L155.002 302.611ZM139.605 322.235L129.807 293.081L134.981 293.722L143.795 320.892L141.924 320.66L157.105 296.464L162.278 297.105L145.659 322.986L139.605 322.235Z" fill="#3F3D3F"/>
<path d="M130.619 292.767L121.466 318.941L116.859 317.33L124.658 295.03L125.749 296.391L100.736 311.692L95.7459 309.947L126.501 291.327L130.619 292.767ZM113.56 301.567L109.203 303.608L104.515 283.639L109.785 285.481L113.56 301.567Z" fill="#3F3D3F"/>
<path d="M93.0146 275.67C95.6887 277.344 97.7186 279.327 99.1042 281.619C100.49 283.911 101.178 286.319 101.168 288.843C101.145 291.388 100.376 293.872 98.8585 296.295C97.3415 298.719 95.45 300.486 93.184 301.597C90.905 302.729 88.4319 303.173 85.7646 302.928C83.0973 302.683 80.4266 301.724 77.7525 300.05C75.0784 298.376 73.0486 296.393 71.6629 294.101C70.2773 291.808 69.5959 289.39 69.6186 286.845C69.6282 284.321 70.3916 281.848 71.9086 279.425C73.4257 277.001 75.3237 275.223 77.6027 274.091C79.8686 272.98 82.3352 272.547 85.0025 272.791C87.6698 273.036 90.3405 273.996 93.0146 275.67ZM90.6998 279.367C88.7987 278.177 86.9429 277.495 85.1325 277.322C83.3221 277.148 81.642 277.463 80.0921 278.266C78.5214 279.057 77.1933 280.319 76.1078 282.053C75.0223 283.787 74.4672 285.533 74.4424 287.292C74.3968 289.037 74.8475 290.686 75.7948 292.238C76.7421 293.791 78.1662 295.162 80.0674 296.352C81.9476 297.529 83.8033 298.211 85.6346 298.398C87.445 298.572 89.1356 298.263 90.7064 297.473C92.2562 296.669 93.5739 295.4 94.6593 293.666C95.7448 291.932 96.3104 290.193 96.3561 288.448C96.3808 286.689 95.9196 285.034 94.9723 283.481C94.0042 281.916 92.58 280.545 90.6998 279.367Z" fill="#3F3D3F"/>
<path d="M56.5645 264.296L55.4665 264.714C53.9328 263.146 52.9046 261.647 52.3817 260.218C51.8415 258.771 51.7282 257.438 52.0419 256.218C52.3382 254.981 52.9656 253.883 53.9241 252.924C54.9698 251.879 56.1462 251.208 57.4533 250.911C58.743 250.598 60.1024 250.685 61.5315 251.173C62.9432 251.678 64.3636 252.645 65.7927 254.074L78.8639 267.146L67.2567 275.668L59.2571 286.752L46.6566 274.152C44.844 272.339 43.8768 270.518 43.7548 268.688C43.5979 266.858 44.2602 265.202 45.7416 263.721C46.5259 262.937 47.4844 262.362 48.6172 261.996C49.7152 261.63 50.9439 261.603 52.3033 261.917C53.6278 262.231 55.0482 263.024 56.5645 264.296ZM74.4197 264.636L73.9491 267.773L63.4138 257.238C62.3332 256.157 61.2527 255.565 60.1721 255.46C59.0567 255.355 58.0372 255.765 57.1135 256.689C56.1375 257.665 55.7367 258.78 55.9109 260.035C56.0678 261.272 56.8346 262.579 58.2115 263.956L66.7077 272.453L64.0412 275.119L55.8848 266.963C54.9611 266.039 53.9415 265.525 52.8261 265.42C51.6933 265.333 50.6476 265.769 49.6891 266.727C48.9745 267.442 48.6434 268.278 48.6957 269.237C48.7305 270.213 49.2272 271.18 50.1858 272.139L59.8846 281.838L56.7475 282.308L63.9366 272.348L74.4197 264.636Z" fill="#3F3D3F"/>
<path d="M57.753 245.477L34.4687 260.534L31.8188 256.436L51.657 243.608L51.6839 245.351L22.5442 242.092L19.6735 237.653L55.3841 241.814L57.753 245.477ZM38.882 241.962L34.1899 240.902L42.737 222.255L45.7683 226.943L38.882 241.962Z" fill="#3F3D3F"/>
<path d="M42.9599 222.567L16.9268 232.113L15.2976 227.67L39.1787 218.913L39.4737 220.577L9.21372 211.078L7.02454 205.108L33.0577 195.562L34.6868 200.005L10.5975 208.838L10.3024 207.174L40.8216 216.735L42.9599 222.567Z" fill="#3F3D3F"/>
</svg>
