<svg width="253" height="253" viewBox="0 0 253 253" fill="none" xmlns="http://www.w3.org/2000/svg">
<g clip-path="url(#clip0_558_296)">
<path d="M15.5955 116.232C15.2885 119.17 14.3147 121.338 12.6739 122.738C11.0331 124.138 8.81008 124.691 6.00488 124.398L0.688252 123.843L1.08032 120.09L6.11264 120.616C7.95118 120.808 9.40725 120.443 10.4808 119.52C11.5355 118.596 12.1667 117.138 12.3747 115.148C12.4935 114.011 12.4855 112.803 12.3509 111.524C12.1973 110.243 11.9384 108.961 11.5743 107.678L14.6432 107.74C15.1001 109.052 15.4144 110.445 15.5861 111.92C15.7408 113.373 15.744 114.81 15.5955 116.232ZM23.7403 109.524L2.41694 107.296L2.80901 103.543L24.1324 105.771L23.7403 109.524Z" fill="#3F3D3F"/>
<path d="M24.6629 102.33L4.42535 95.2529L5.63322 91.799L24.1978 98.2914L23.5573 99.4301L10.1439 78.901L11.767 74.2598L32.0045 81.3372L30.7966 84.7911L12.0702 78.2422L12.7107 77.1034L26.2482 97.7971L24.6629 102.33Z" fill="#3F3D3F"/>
<path d="M33.1042 79.0755L15.1008 67.434L17.0876 64.3614L33.6027 75.0405L32.7122 75.9966L24.5071 52.8872L27.1768 48.7584L45.1803 60.3999L43.1935 63.4725L26.5343 52.7003L27.4248 51.7442L35.7119 75.0427L33.1042 79.0755Z" fill="#3F3D3F"/>
<path d="M46.9282 58.2876L32.2152 42.6935L34.8766 40.1825L48.3733 54.4875L47.2807 55.204L44.8153 30.8054L48.3916 27.4313L63.1045 43.0254L60.4431 45.5364L46.8287 31.1066L47.9213 30.3902L50.4213 54.9919L46.9282 58.2876Z" fill="#3F3D3F"/>
<path d="M73.5521 37.1581C71.7347 38.2407 69.9906 38.9248 68.3196 39.2104C66.6486 39.496 65.1406 39.385 63.7957 38.8775C62.4507 38.3699 61.3521 37.4938 60.4997 36.2491L63.7414 34.318C64.6366 35.4484 65.7917 36.0469 67.2067 36.1134C68.6283 36.1539 70.2314 35.6425 72.0159 34.5794C73.735 33.5553 74.9133 32.4985 75.5508 31.4089C76.1949 30.2931 76.2 29.2032 75.566 28.139C75.0296 27.2385 74.2368 26.8013 73.1876 26.8274C72.1384 26.8535 70.746 27.3835 69.0106 28.4173L65.3268 30.6118L63.9662 28.3279L67.5763 26.1773C68.6078 25.5628 69.386 24.9329 69.9109 24.2874C70.4359 23.6419 70.7353 23.0088 70.8092 22.3881C70.8733 21.751 70.7493 21.1705 70.4372 20.6465C70.0568 20.008 69.5303 19.5897 68.8576 19.3914C68.2014 19.1835 67.4366 19.1843 66.5633 19.394C65.69 19.6037 64.7622 20.0011 63.7798 20.5863C62.1426 21.5616 61.023 22.6612 60.421 23.8849C59.8191 25.1086 59.7645 26.3389 60.2574 27.5759L57.0403 29.4924C56.4624 28.2617 56.2557 26.9652 56.4201 25.6028C56.6009 24.2307 57.1853 22.8844 58.1732 21.5638C59.1678 20.2172 60.5737 19.0025 62.391 17.9199C64.0283 16.9446 65.5761 16.3219 67.0347 16.052C68.4998 15.7559 69.789 15.7976 70.9023 16.177C72.0222 16.5302 72.8797 17.2062 73.4746 18.2049C73.9818 19.0563 74.1913 19.9851 74.1031 20.9915C74.015 21.9978 73.5853 23.008 72.814 24.022C72.0428 25.036 70.8877 26.0015 69.3487 26.9183L69.0707 26.4517C70.5543 25.4791 71.9421 24.8298 73.2341 24.5038C74.5164 24.1614 75.6473 24.1421 76.6268 24.4459C77.6227 24.7399 78.4133 25.3781 78.9985 26.3604C79.6617 27.4737 79.8982 28.6527 79.708 29.8973C79.5341 31.1322 78.9337 32.3772 77.9068 33.6322C76.8701 34.8709 75.4185 36.0462 73.5521 37.1581Z" fill="#3F3D3F"/>
<path d="M109.949 14.3472C110.204 16.0923 109.994 17.7511 109.318 19.3237C108.656 20.873 107.606 22.2175 106.169 23.3572C104.732 24.4969 102.971 25.3365 100.886 25.8761C98.5612 26.4777 96.4056 26.5533 94.4189 26.1029C92.4322 25.6525 90.7423 24.7513 89.3491 23.3993C87.9511 22.0288 86.9751 20.2735 86.4212 18.1333C85.8674 15.9932 85.8716 13.9941 86.434 12.1359C86.9917 10.2593 88.0298 8.64218 89.5486 7.28455C91.0673 5.92692 92.989 4.94729 95.3136 4.34566C97.3984 3.8061 99.3456 3.686 101.155 3.98534C102.965 4.28468 104.535 4.95115 105.866 5.98477C107.215 7.01361 108.204 8.36205 108.832 10.0301L105.151 10.9827C104.662 9.92824 103.973 9.09269 103.085 8.47603C102.216 7.85461 101.191 7.47019 100.011 7.3228C98.8266 7.15695 97.5332 7.25548 96.1311 7.61836C94.5075 8.03855 93.1749 8.70824 92.1333 9.62743C91.1101 10.5419 90.4213 11.6453 90.0668 12.9379C89.7123 14.2304 89.7333 15.6423 90.1296 17.1736C90.5259 18.7049 91.1925 19.9497 92.1295 20.908C93.0665 21.8663 94.2042 22.497 95.5425 22.8003C96.8993 23.0988 98.3895 23.0379 100.013 22.6177C101.415 22.2548 102.596 21.7227 103.557 21.0215C104.517 20.3202 105.226 19.4869 105.685 18.5217C106.158 17.5333 106.352 16.4593 106.269 15.2998L109.949 14.3472Z" fill="#3F3D3F"/>
<path d="M119.534 2.83368L123.304 2.6881L124.064 22.3691L120.294 22.5147L119.534 2.83368ZM110.611 1.43316L132.092 0.603742L132.22 3.91724L110.739 4.74665L110.611 1.43316Z" fill="#3F3D3F"/>
<path d="M138.978 23.0781L143.414 17.7193L143.471 17.7285L154.814 3.93847L158.877 4.60113L143.04 23.7407L138.978 23.0781ZM143.066 20.3852L135.489 0.78624L139.608 1.4581L146.005 17.997L143.066 20.3852Z" fill="#3F3D3F"/>
<path d="M151.396 28.9222L154.403 21.8137L157.509 23.1277L159.541 24.0489L174.231 30.2627L175.07 30.5552L179.967 32.6264L176.96 39.7349L173.722 38.3652L175.437 34.3108L156.349 26.2374L154.634 30.2919L151.396 28.9222ZM165.807 6.95931L183.552 14.4648L175.768 32.8678L172.293 31.3979L179.453 14.4692L180.364 16.717L166.384 10.804L168.353 10.3329C168.032 11.3354 167.689 12.318 167.323 13.2806C166.957 14.2432 166.596 15.1458 166.24 15.9883C165.305 18.1998 164.349 20.0198 163.372 21.4483C162.395 22.8768 161.425 23.8736 160.462 24.4387C159.499 25.0038 158.578 25.1007 157.701 24.7296L156.776 22.8797C157.937 22.3362 159.047 21.3262 160.106 19.8498C161.183 18.3808 162.244 16.4089 163.291 13.9341C163.744 12.8634 164.18 11.734 164.6 10.5459C165.02 9.35781 165.422 8.16227 165.807 6.95931Z" fill="#3F3D3F"/>
<path d="M179.832 36.6538L192.821 19.5965L195.732 21.8132L183.817 37.4604L182.932 36.4992L206.603 30.0911L210.515 33.0698L197.527 50.127L194.615 47.9104L206.634 32.1267L207.519 33.0879L183.653 39.5632L179.832 36.6538Z" fill="#3F3D3F"/>
<path d="M218.408 57.0634L216.268 58.872L210.178 51.6679L210.203 51.6091C209.232 50.4594 208.58 49.2757 208.25 48.058C207.931 46.8548 207.927 45.6982 208.236 44.5882C208.558 43.4928 209.206 42.5329 210.181 41.7086C211.156 40.8843 212.211 40.4047 213.344 40.2698C214.505 40.1372 215.652 40.328 216.785 40.8422C217.946 41.3586 219.012 42.1917 219.984 43.3415L227.771 52.554L211.399 66.395L208.962 63.5133L224.462 50.4105L224.263 52.7874L218.099 45.4959C217.25 44.4917 216.332 43.9077 215.345 43.7438C214.371 43.5946 213.461 43.8767 212.617 44.5903C211.773 45.3039 211.336 46.1598 211.307 47.158C211.304 48.1584 211.727 49.1607 212.576 50.165L218.408 57.0634ZM214.318 54.3069L201.322 54.4754L198.425 51.048L211.495 50.9668L214.318 54.3069Z" fill="#3F3D3F"/>
<path d="M211.833 73.9827L218.942 70.9761L220.256 74.0828L221.072 76.1586L227.286 90.8495L227.683 91.6433L229.755 96.5403L222.646 99.5469L221.277 96.3086L225.331 94.5937L217.258 75.5061L213.203 77.221L211.833 73.9827ZM237.471 68.2601L244.977 86.005L226.573 93.7889L225.104 90.3136L242.032 83.1534L241.121 85.4012L235.208 71.4212L236.948 72.4541C236.02 72.9502 235.089 73.4162 234.156 73.8522C233.224 74.2882 232.336 74.6844 231.493 75.0407C229.282 75.9761 227.328 76.6162 225.632 76.961C223.937 77.3058 222.546 77.3455 221.462 77.0801C220.377 76.8147 219.649 76.2432 219.278 75.3656L219.903 73.3942C221.114 73.8128 222.614 73.8612 224.402 73.5394C226.198 73.2351 228.333 72.5596 230.808 71.5129C231.879 71.06 232.978 70.5535 234.107 69.9933C235.236 69.4332 236.357 68.8554 237.471 68.2601Z" fill="#3F3D3F"/>
<path d="M226.81 99.1625L248.008 95.9546L248.556 99.5724L229.11 102.515L229.144 101.209L250.6 113.083L251.336 117.944L230.138 121.152L229.59 117.534L249.205 114.566L249.172 115.872L227.529 103.911L226.81 99.1625Z" fill="#3F3D3F"/>
<path d="M228.998 133.339C229.152 131.229 229.592 129.408 230.316 127.875C231.04 126.343 231.995 125.171 233.182 124.36C234.369 123.549 235.717 123.151 237.226 123.166L236.949 126.929C235.51 127.015 234.357 127.618 233.491 128.739C232.643 129.881 232.143 131.487 231.991 133.559C231.844 135.555 232.035 137.126 232.562 138.273C233.107 139.44 233.997 140.069 235.232 140.16C236.278 140.237 237.091 139.838 237.671 138.963C238.251 138.089 238.615 136.644 238.763 134.629L239.077 130.353L241.728 130.548L241.42 134.739C241.333 135.936 241.403 136.935 241.63 137.735C241.858 138.535 242.205 139.143 242.672 139.56C243.157 139.978 243.704 140.209 244.312 140.254C245.053 140.308 245.698 140.116 246.246 139.679C246.792 139.26 247.23 138.633 247.559 137.798C247.888 136.962 248.094 135.974 248.178 134.833C248.317 132.933 248.058 131.385 247.401 130.19C246.743 128.996 245.767 128.246 244.471 127.94L244.745 124.205C246.085 124.438 247.265 125.012 248.287 125.927C249.308 126.862 250.076 128.113 250.591 129.679C251.125 131.266 251.314 133.115 251.159 135.224C251.019 137.125 250.642 138.75 250.027 140.1C249.43 141.47 248.656 142.502 247.707 143.197C246.776 143.912 245.73 144.227 244.571 144.142C243.583 144.069 242.701 143.709 241.927 143.059C241.153 142.41 240.572 141.479 240.183 140.266C239.795 139.052 239.666 137.552 239.797 135.766L240.339 135.806C240.285 137.579 240.021 139.088 239.548 140.334C239.093 141.581 238.461 142.518 237.65 143.147C236.838 143.794 235.862 144.076 234.722 143.992C233.429 143.897 232.328 143.415 231.417 142.546C230.505 141.695 229.829 140.49 229.39 138.929C228.969 137.369 228.838 135.506 228.998 133.339Z" fill="#3F3D3F"/>
<path d="M232.195 149.753L235.183 150.637L230.937 165.001L227.949 164.118L232.195 149.753ZM245.22 163.976L221.743 167.769L222.886 163.903L244.725 160.611L244.312 162.009L227.771 147.373L228.914 143.508L246.557 159.453L245.22 163.976Z" fill="#3F3D3F"/>
<path d="M221.693 167.365L240.311 177.997L238.496 181.174L221.418 171.422L222.254 170.418L231.721 193.04L229.282 197.309L210.665 186.678L212.479 183.501L229.707 193.338L228.87 194.342L219.312 171.536L221.693 167.365ZM243.295 185.165L241.764 187.846C241.031 187.669 240.363 187.705 239.761 187.953C239.165 188.227 238.664 188.72 238.258 189.432C237.842 190.16 237.672 190.842 237.748 191.478C237.84 192.123 238.149 192.716 238.674 193.258L237.143 195.939C235.979 194.901 235.341 193.714 235.227 192.376C235.13 191.047 235.478 189.688 236.272 188.298C237.066 186.908 238.059 185.917 239.253 185.326C240.463 184.744 241.81 184.69 243.295 185.165Z" fill="#3F3D3F"/>
<path d="M225.066 203.019L222.496 205.783L206.796 191.183L209.365 188.42L225.066 203.019ZM213.192 215.789L210.622 218.553L194.922 203.953L197.491 201.19L213.192 215.789ZM217.11 198.393L205.392 210.996L202.964 208.738L214.682 196.135L217.11 198.393Z" fill="#3F3D3F"/>
<path d="M193.359 211.318L195.117 213.89L182.751 222.343L180.993 219.771L193.359 211.318ZM194.471 230.572L173.876 218.68L177.204 216.406L196.213 227.65L195.009 228.472L191.434 206.678L194.761 204.403L198.365 227.91L194.471 230.572Z" fill="#3F3D3F"/>
<path d="M163.294 222.674L161.854 229.48L161.8 229.498L158.159 246.98L154.253 248.28L159.388 223.974L163.294 222.674ZM160.924 226.958L176.738 240.795L172.778 242.113L159.431 230.438L160.924 226.958Z" fill="#3F3D3F"/>
<path d="M129.251 251.23L127.023 229.906L130.748 229.517L132.806 249.22L130.922 247.692L147.839 245.925L146.311 247.809L144.253 228.106L148.006 227.714L150.233 249.038L129.251 251.23Z" fill="#3F3D3F"/>
<path d="M119.796 234.4L119.412 237.492L104.547 235.649L104.93 232.557L119.796 234.4ZM107.891 249.573L100.315 227.031L104.315 227.526L111.13 248.534L109.684 248.355L121.422 229.647L125.422 230.142L112.572 250.153L107.891 249.573Z" fill="#3F3D3F"/>
<path d="M100.855 226.768L93.7778 247.005L90.216 245.76L96.2459 228.517L97.0894 229.569L77.7497 241.4L73.8911 240.051L97.6712 225.654L100.855 226.768ZM87.6646 233.572L84.2964 235.15L80.6716 219.709L84.7461 221.134L87.6646 233.572Z" fill="#3F3D3F"/>
<path d="M71.6957 213.507C73.7633 214.802 75.3328 216.335 76.4042 218.107C77.4756 219.88 78.0076 221.742 78.0001 223.693C77.9825 225.66 77.3872 227.581 76.2142 229.455C75.0413 231.329 73.5788 232.695 71.8267 233.554C70.0646 234.43 68.1524 234.773 66.09 234.584C64.0277 234.394 61.9627 233.652 59.8951 232.358C57.8275 231.064 56.258 229.53 55.1866 227.758C54.1152 225.986 53.5883 224.116 53.6059 222.148C53.6134 220.197 54.2036 218.284 55.3766 216.41C56.5496 214.537 58.0171 213.162 59.7792 212.287C61.5312 211.427 63.4384 211.092 65.5008 211.282C67.5631 211.471 69.6281 212.213 71.6957 213.507ZM69.9059 216.366C68.436 215.446 67.0011 214.919 65.6013 214.785C64.2015 214.65 62.9024 214.894 61.7041 215.515C60.4896 216.126 59.4627 217.102 58.6234 218.443C57.7841 219.784 57.3548 221.134 57.3357 222.493C57.3004 223.843 57.6489 225.118 58.3813 226.318C59.1138 227.518 60.215 228.579 61.6849 229.499C63.1387 230.409 64.5736 230.936 65.9895 231.081C67.3893 231.215 68.6965 230.977 69.911 230.365C71.1093 229.744 72.1281 228.763 72.9674 227.422C73.8067 226.082 74.244 224.737 74.2793 223.387C74.2985 222.028 73.9419 220.748 73.2095 219.547C72.4609 218.337 71.3597 217.276 69.9059 216.366Z" fill="#3F3D3F"/>
<path d="M43.437 204.653L42.588 204.977C41.4022 203.764 40.6071 202.605 40.2029 201.5C39.7851 200.382 39.6975 199.351 39.9401 198.408C40.1692 197.451 40.6543 196.602 41.3954 195.861C42.204 195.052 43.1136 194.533 44.1242 194.304C45.1214 194.062 46.1725 194.129 47.2775 194.506C48.369 194.897 49.4673 195.645 50.5723 196.75L60.6789 206.857L51.7042 213.446L45.519 222.017L35.7762 212.274C34.3747 210.872 33.6268 209.464 33.5325 208.049C33.4112 206.634 33.9233 205.354 35.0687 204.209C35.6751 203.602 36.4162 203.158 37.2922 202.875C38.1411 202.592 39.0911 202.572 40.1422 202.814C41.1664 203.057 42.2646 203.67 43.437 204.653ZM57.2426 204.916L56.8788 207.342L48.7329 199.196C47.8974 198.36 47.0619 197.902 46.2264 197.821C45.364 197.741 44.5757 198.057 43.8615 198.771C43.1068 199.526 42.7969 200.388 42.9317 201.359C43.0529 202.315 43.6459 203.326 44.7104 204.391L51.2797 210.96L49.218 213.022L42.9114 206.715C42.1972 206.001 41.4089 205.604 40.5465 205.523C39.6706 205.455 38.8621 205.792 38.1209 206.533C37.5684 207.086 37.3124 207.733 37.3528 208.474C37.3797 209.228 37.7638 209.976 38.505 210.717L46.0041 218.217L43.5785 218.58L49.1371 210.879L57.2426 204.916Z" fill="#3F3D3F"/>
<path d="M44.2993 190.033L26.2958 201.675L24.2469 198.506L39.5859 188.588L39.6066 189.936L17.0758 187.416L14.8561 183.983L42.4677 187.201L44.2993 190.033ZM29.7082 187.315L26.0802 186.496L32.6889 172.078L35.0327 175.703L29.7082 187.315Z" fill="#3F3D3F"/>
<path d="M32.8207 172.235L12.6919 179.616L11.4322 176.181L29.8971 169.41L30.1252 170.696L6.72811 163.352L5.03543 158.736L25.1643 151.355L26.424 154.79L7.79805 161.62L7.56991 160.333L31.1674 167.726L32.8207 172.235Z" fill="#3F3D3F"/>
</g>
<defs>
<clipPath id="clip0_558_296">
<rect width="252.281" height="252.105" fill="white"/>
</clipPath>
</defs>
</svg>
