<svg width="132" height="132" viewBox="0 0 132 132" fill="none" xmlns="http://www.w3.org/2000/svg">
<path d="M125.153 66.2356C125.811 66.3397 126.367 66.5997 126.821 67.0157C127.275 67.4397 127.606 67.9777 127.816 68.6298C128.033 69.2826 128.108 70.0115 128.039 70.8166C127.974 71.5819 127.798 72.2413 127.51 72.7949C127.221 73.3564 126.848 73.7783 126.39 74.0606C125.932 74.3508 125.42 74.4718 124.854 74.4237C124.416 74.3864 124.018 74.2442 123.662 73.9971C123.305 73.758 122.952 73.3787 122.603 72.8592C122.261 72.3484 121.881 71.6618 121.465 70.7994L119.961 67.6727L120.444 67.5091L119.869 74.2766L118.553 74.1648L119.263 65.8189L120.411 65.9165L122.406 69.9281C122.756 70.6322 123.062 71.1882 123.324 71.5959C123.594 72.0122 123.853 72.3153 124.102 72.505C124.351 72.6948 124.623 72.8022 124.918 72.8273C125.229 72.8538 125.515 72.7938 125.776 72.6474C126.037 72.501 126.254 72.2626 126.427 71.932C126.599 71.6094 126.707 71.1851 126.752 70.659C126.803 70.0611 126.757 69.5635 126.614 69.1659C126.471 68.7684 126.256 68.4611 125.97 68.244C125.691 68.0356 125.373 67.8962 125.018 67.8258L125.153 66.2356Z" fill="white"/>
<path d="M126.918 78.1835L125.246 84.5435L124.004 84.217L125.545 78.3561L125.783 79.1012L122.244 77.6498L122.352 77.1941C122.576 77.4432 122.768 77.7502 122.928 78.115C123.087 78.4875 123.183 78.9098 123.216 79.3817C123.255 79.8634 123.202 80.3789 123.057 80.9282C122.858 81.6865 122.558 82.2941 122.156 82.7511C121.763 83.2101 121.31 83.517 120.798 83.6719C120.283 83.8345 119.748 83.8426 119.191 83.6962C118.61 83.5436 118.139 83.2459 117.775 82.803C117.412 82.36 117.177 81.8061 117.071 81.1412C116.97 80.4861 117.026 79.7523 117.24 78.9399C117.453 78.1275 117.758 77.4549 118.155 76.9222C118.551 76.3895 119 76.003 119.502 75.7626C120.009 75.532 120.528 75.4451 121.059 75.502L120.654 77.0455C120.169 77.0339 119.736 77.2178 119.355 77.5974C118.974 77.977 118.686 78.5344 118.493 79.2694C118.363 79.7646 118.321 80.2084 118.367 80.6009C118.418 81.0032 118.545 81.3385 118.747 81.6068C118.957 81.8771 119.241 82.059 119.596 82.1526C119.945 82.2441 120.269 82.2383 120.569 82.1352C120.875 82.0419 121.142 81.8433 121.371 81.5395C121.605 81.2454 121.79 80.8392 121.927 80.3208C122.039 79.8953 122.089 79.4991 122.078 79.1322C122.065 78.7731 122.013 78.4494 121.924 78.1611C121.832 77.8806 121.722 77.6367 121.595 77.4295L121.93 76.1528L126.918 78.1835Z" fill="white"/>
<path d="M113.952 88.1163C114.369 87.225 114.902 86.5381 115.551 86.0558C116.208 85.5769 116.933 85.3109 117.726 85.2579C118.526 85.2083 119.35 85.3817 120.198 85.7782C121.046 86.1747 121.704 86.6942 122.172 87.3369C122.647 87.983 122.907 88.7098 122.954 89.5174C123.007 90.3284 122.826 91.1796 122.409 92.071C121.992 92.9624 121.457 93.6439 120.804 94.1155C120.154 94.5978 119.429 94.8638 118.629 94.9135C117.836 94.9665 117.015 94.7947 116.167 94.3983C115.319 94.0018 114.658 93.4805 114.183 92.8345C113.715 92.1918 113.454 91.4649 113.401 90.6539C113.351 89.8535 113.535 89.0077 113.952 88.1163ZM115.137 88.6704C114.713 89.5762 114.649 90.4029 114.944 91.1503C115.246 91.9011 115.88 92.5018 116.843 92.9525C117.807 93.4032 118.671 93.5023 119.433 93.2496C120.203 93.0003 120.8 92.4228 121.224 91.5169C121.647 90.6111 121.71 89.7791 121.411 89.0211C121.116 88.2737 120.486 87.6746 119.522 87.2239C118.558 86.7732 117.691 86.6725 116.921 86.9218C116.155 87.1817 115.56 87.7645 115.137 88.6704Z" fill="white"/>
<path d="M108.801 96.8718C109.38 96.0761 110.034 95.5033 110.763 95.1534C111.499 94.8082 112.262 94.685 113.05 94.7839C113.845 94.8875 114.622 95.2146 115.378 95.7652C116.135 96.3158 116.682 96.9511 117.019 97.6711C117.363 98.3957 117.48 99.1589 117.372 99.9606C117.27 100.767 116.93 101.568 116.351 102.364C115.772 103.159 115.117 103.727 114.386 104.065C113.657 104.415 112.894 104.538 112.099 104.435C111.31 104.336 110.538 104.011 109.781 103.461C109.024 102.91 108.474 102.272 108.13 101.548C107.793 100.828 107.676 100.065 107.777 99.2582C107.881 98.463 108.222 97.6676 108.801 96.8718ZM109.859 97.6413C109.271 98.4499 109.05 99.2492 109.198 100.039C109.352 100.834 109.859 101.544 110.72 102.17C111.58 102.796 112.409 103.057 113.206 102.955C114.009 102.856 114.705 102.403 115.293 101.594C115.881 100.786 116.101 99.9807 115.952 99.1796C115.804 98.3897 115.3 97.6818 114.44 97.0559C113.579 96.43 112.747 96.1661 111.944 96.2643C111.142 96.3736 110.447 96.8326 109.859 97.6413Z" fill="white"/>
<path d="M104.378 103.743L109.095 108.529L108.241 109.372L103.524 104.585L104.378 103.743ZM108.281 103.771L109.124 104.626L104.338 109.343L103.495 108.489L108.281 103.771Z" fill="white"/>
<path d="M98.9806 114.943C99.2704 115.542 99.3741 116.147 99.2919 116.758C99.2027 117.372 98.9501 117.952 98.5342 118.496C98.1223 119.047 97.5662 119.524 96.8661 119.928C96.2005 120.311 95.5583 120.542 94.9394 120.622C94.3136 120.705 93.7542 120.64 93.2613 120.425C92.7615 120.214 92.3698 119.863 92.0863 119.371C91.8667 118.989 91.7567 118.582 91.7562 118.148C91.7488 117.719 91.8587 117.212 92.086 116.629C92.3103 116.057 92.6577 115.354 93.1281 114.519L94.837 111.5L95.2474 111.803L89.3617 115.193L88.703 114.049L95.9612 109.869L96.5362 110.867L94.3808 114.795C94.0021 115.484 93.7203 116.052 93.5353 116.501C93.3473 116.96 93.2464 117.346 93.2326 117.658C93.2187 117.971 93.2857 118.255 93.4334 118.512C93.5891 118.782 93.8017 118.983 94.071 119.114C94.3404 119.245 94.66 119.287 95.03 119.24C95.393 119.197 95.8033 119.044 96.2608 118.781C96.7808 118.481 97.1632 118.159 97.4081 117.815C97.653 117.471 97.7828 117.119 97.7975 116.76C97.8092 116.412 97.7426 116.072 97.5976 115.74L98.9806 114.943Z" fill="white"/>
<path d="M90.1197 123.217L83.9372 125.457L83.4997 124.25L89.1971 122.185L88.7197 122.805L87.9014 119.068L88.3373 118.898C88.2597 119.223 88.1165 119.556 87.9077 119.896C87.6914 120.238 87.3985 120.557 87.0291 120.852C86.6549 121.158 86.2008 121.408 85.6668 121.601C84.9297 121.868 84.2591 121.967 83.655 121.896C83.0536 121.834 82.5436 121.636 82.1249 121.302C81.6988 120.972 81.3876 120.536 81.1913 119.994C80.9869 119.43 80.9636 118.873 81.1214 118.322C81.2791 117.771 81.6013 117.263 82.0877 116.797C82.5694 116.342 83.2051 115.971 83.9948 115.685C84.7845 115.399 85.5112 115.267 86.1749 115.291C86.8385 115.314 87.4118 115.463 87.8947 115.739C88.3729 116.026 88.7395 116.403 88.9946 116.872L87.4941 117.416C87.228 117.011 86.8305 116.759 86.3016 116.661C85.7726 116.564 85.1509 116.644 84.4364 116.903C83.9551 117.078 83.5659 117.295 83.269 117.556C82.9673 117.827 82.7636 118.122 82.658 118.441C82.5552 118.768 82.5664 119.104 82.6918 119.45C82.8145 119.789 83.0035 120.052 83.259 120.24C83.5096 120.439 83.8249 120.546 84.2049 120.561C84.5801 120.587 85.0197 120.508 85.5236 120.326C85.9373 120.176 86.2918 119.992 86.5873 119.774C86.8753 119.559 87.1124 119.333 87.2986 119.095C87.4772 118.86 87.6155 118.632 87.7135 118.409L88.9545 117.959L90.1197 123.217Z" fill="white"/>
<path d="M74.5256 118.201C75.4962 118.039 76.3642 118.088 77.1297 118.35C77.8966 118.619 78.5267 119.066 79.0202 119.689C79.5149 120.32 79.8394 121.097 79.9936 122.02C80.1478 122.943 80.0929 123.78 79.8288 124.53C79.566 125.287 79.1152 125.914 78.4762 126.41C77.8385 126.914 77.0344 127.247 76.0638 127.409C75.0933 127.571 74.2285 127.517 73.4695 127.247C72.704 126.985 72.0739 126.539 71.5791 125.908C71.0857 125.284 70.7619 124.511 70.6076 123.588C70.4534 122.665 70.5077 121.824 70.7705 121.067C71.0345 120.317 71.4854 119.69 72.1231 119.186C72.7542 118.691 73.555 118.363 74.5256 118.201ZM74.7411 119.491C73.7548 119.656 73.0375 120.072 72.5893 120.739C72.1423 121.413 72.0065 122.276 72.1818 123.325C72.3571 124.375 72.7651 125.142 73.4058 125.627C74.0478 126.12 74.862 126.284 75.8483 126.119C76.8346 125.954 77.5552 125.534 78.01 124.858C78.4583 124.191 78.5947 123.333 78.4194 122.283C78.2441 121.234 77.8355 120.462 77.1935 119.97C76.5449 119.486 75.7274 119.326 74.7411 119.491Z" fill="white"/>
<path d="M64.2366 118.93C65.2202 118.956 66.0627 119.171 66.7641 119.574C67.4652 119.985 67.9983 120.544 68.3634 121.25C68.7282 121.964 68.898 122.789 68.8727 123.725C68.8474 124.66 68.6335 125.471 68.2308 126.156C67.8279 126.85 67.2654 127.379 66.5433 127.743C65.821 128.116 64.968 128.289 63.9844 128.262C63.0007 128.236 62.1623 128.017 61.4692 127.606C60.7678 127.203 60.2347 126.645 59.8699 125.93C59.5048 125.224 59.3349 124.403 59.3602 123.468C59.3855 122.532 59.5996 121.718 60.0024 121.024C60.4051 120.339 60.9676 119.81 61.6899 119.437C62.4041 119.072 63.2529 118.903 64.2366 118.93ZM64.2012 120.237C63.2016 120.21 62.418 120.481 61.8504 121.05C61.2826 121.627 60.9844 122.447 60.9556 123.511C60.9269 124.574 61.1805 125.406 61.7165 126.004C62.2523 126.611 63.0201 126.928 64.0197 126.955C65.0193 126.982 65.807 126.707 66.3828 126.13C66.9504 125.562 67.2486 124.745 67.2773 123.682C67.3061 122.618 67.0525 121.783 66.5167 121.176C65.9727 120.577 65.2009 120.264 64.2012 120.237Z" fill="white"/>
<path d="M56.084 119.181L54.825 125.782L53.6462 125.558L54.9053 118.957L56.084 119.181ZM58.2781 122.41L58.0532 123.588L51.4522 122.329L51.6771 121.151L58.2781 122.41Z" fill="white"/>
<path d="M43.7996 121.07C43.4684 121.648 43.0276 122.075 42.4772 122.351C41.9195 122.625 41.2987 122.743 40.6148 122.707C39.9273 122.678 39.2196 122.488 38.4915 122.138C37.7995 121.805 37.246 121.405 36.8311 120.939C36.4089 120.47 36.1473 119.971 36.0463 119.443C35.9381 118.911 36.0072 118.39 36.2535 117.878C36.4443 117.481 36.7186 117.161 37.0763 116.916C37.4267 116.667 37.9068 116.472 38.5166 116.33C39.1156 116.192 39.8922 116.082 40.8463 116L44.3037 115.706L44.2846 116.216L38.1645 113.271L38.7369 112.081L46.2843 115.714L45.7847 116.752L41.3258 117.19C40.5434 117.266 39.915 117.354 39.4406 117.454C38.9555 117.558 38.5801 117.693 38.3142 117.858C38.0483 118.023 37.8512 118.238 37.7228 118.505C37.5875 118.786 37.5418 119.075 37.5856 119.371C37.6295 119.668 37.7751 119.955 38.0227 120.234C38.263 120.51 38.621 120.762 39.0968 120.991C39.6374 121.251 40.1189 121.385 40.5413 121.393C40.9636 121.401 41.3272 121.31 41.632 121.119C41.9262 120.932 42.1694 120.685 42.3615 120.378L43.7996 121.07Z" fill="white"/>
<path d="M31.9951 118.439L26.6491 114.61L27.3968 113.566L32.3234 117.095L31.5422 117.052L34.1601 114.263L34.5476 114.526C34.235 114.646 33.8796 114.716 33.4816 114.736C33.077 114.752 32.6483 114.691 32.1956 114.553C31.7318 114.418 31.2689 114.185 30.8072 113.854C30.1698 113.397 29.7092 112.9 29.4254 112.362C29.1368 111.831 29.0115 111.298 29.0494 110.765C29.0809 110.226 29.2643 109.723 29.5997 109.255C29.9491 108.767 30.3955 108.432 30.9388 108.251C31.4822 108.069 32.0834 108.047 32.7426 108.185C33.3906 108.324 34.0561 108.638 34.7389 109.127C35.4218 109.617 35.9414 110.141 36.2978 110.702C36.6542 111.262 36.8552 111.819 36.901 112.374C36.9356 112.93 36.8317 113.446 36.5892 113.922L35.2918 112.992C35.4756 112.543 35.4581 112.073 35.2392 111.582C35.0204 111.091 34.6021 110.624 33.9842 110.181C33.568 109.883 33.1684 109.685 32.7854 109.588C32.3912 109.493 32.0327 109.492 31.7098 109.585C31.3824 109.685 31.1115 109.885 30.8972 110.184C30.6875 110.477 30.5774 110.781 30.5667 111.099C30.5449 111.418 30.6352 111.738 30.8375 112.06C31.0286 112.384 31.3421 112.702 31.7778 113.014C32.1355 113.27 32.4877 113.459 32.8344 113.579C33.1747 113.695 33.4954 113.762 33.7967 113.781C34.0915 113.796 34.3584 113.78 34.5975 113.735L35.6706 114.504L31.9951 118.439Z" fill="white"/>
<path d="M27.3217 102.766C28.0073 103.472 28.4605 104.214 28.6811 104.992C28.896 105.776 28.8876 106.548 28.6559 107.309C28.4185 108.075 27.9641 108.784 27.2927 109.436C26.6213 110.088 25.9022 110.519 25.1354 110.728C24.3628 110.943 23.5908 110.929 22.8193 110.686C22.042 110.448 21.3106 109.977 20.6249 109.271C19.9393 108.565 19.4919 107.823 19.2825 107.045C19.0619 106.267 19.0703 105.495 19.3077 104.729C19.5394 103.968 19.991 103.262 20.6624 102.61C21.3338 101.958 22.0557 101.524 22.8283 101.309C23.5951 101.099 24.3671 101.114 25.1444 101.351C25.9103 101.589 26.6361 102.06 27.3217 102.766ZM26.3835 103.677C25.6867 102.96 24.9366 102.607 24.1331 102.618C23.3238 102.634 22.5376 103.013 21.7744 103.755C21.0112 104.496 20.6124 105.268 20.5781 106.071C20.5381 106.879 20.8664 107.642 21.5632 108.36C22.2599 109.077 23.0157 109.43 23.8306 109.419C24.6341 109.408 25.4175 109.032 26.1807 108.291C26.9439 107.55 27.3455 106.775 27.3855 105.966C27.4143 105.158 27.0803 104.395 26.3835 103.677Z" fill="white"/>
<path d="M21.0043 94.8997C21.5446 95.722 21.8499 96.5362 21.9199 97.3421C21.9833 98.1524 21.8296 98.9091 21.4588 99.6122C21.0813 100.32 20.5014 100.93 19.7192 101.444C18.9369 101.958 18.1495 102.246 17.357 102.307C16.5578 102.373 15.8022 102.214 15.0903 101.83C14.3717 101.45 13.7422 100.849 13.2019 100.026C12.6615 99.2041 12.3619 98.3911 12.3029 97.5875C12.2328 96.7816 12.3865 96.0248 12.764 95.3173C13.1348 94.6142 13.7114 94.0056 14.4936 93.4917C15.2758 92.9777 16.0666 92.6878 16.8658 92.6222C17.6583 92.5609 18.4139 92.7201 19.1325 93.0999C19.84 93.4774 20.4639 94.0773 21.0043 94.8997ZM19.9112 95.618C19.362 94.7822 18.6919 94.294 17.9007 94.1534C17.1028 94.0172 16.2592 94.2412 15.37 94.8255C14.4808 95.4098 13.9437 96.0929 13.7588 96.8749C13.5671 97.6614 13.7459 98.4724 14.295 99.3082C14.8442 100.144 15.5199 100.633 16.3221 100.776C17.1133 100.917 17.9535 100.695 18.8428 100.111C19.732 99.5264 20.2724 98.841 20.464 98.0546C20.6446 97.2659 20.4603 96.4537 19.9112 95.618Z" fill="white"/>
<path d="M16.1372 88.3153L9.98778 91.0252L9.50388 89.9271L15.6533 87.2172L16.1372 88.3153ZM14.7245 91.954L13.6264 92.4379L10.9165 86.2885L12.0146 85.8046L14.7245 91.954Z" fill="white"/>
<path d="M7.62287 79.4302C6.95958 79.4872 6.35741 79.3684 5.81637 79.0738C5.27407 78.7712 4.82289 78.3287 4.46282 77.746C4.09486 77.1646 3.84736 76.475 3.72035 75.677C3.59962 74.9186 3.61249 74.2361 3.75896 73.6295C3.90417 73.015 4.16494 72.5158 4.54127 72.1319C4.91633 71.7401 5.38434 71.4995 5.94528 71.4102C6.37981 71.341 6.79971 71.3836 7.20499 71.5378C7.60901 71.6841 8.04294 71.9674 8.50678 72.3877C8.96146 72.8014 9.49454 73.3767 10.106 74.1138L12.3178 76.7873L11.8877 77.0624L10.82 70.3548L12.1236 70.1473L13.4403 78.4192L12.3026 78.6003L9.40177 75.1858C8.8932 74.5863 8.46258 74.1202 8.10989 73.7875C7.74805 73.4482 7.42357 73.2163 7.13644 73.0919C6.84931 72.9675 6.55959 72.9285 6.26727 72.9751C5.95915 73.0241 5.69583 73.1511 5.47733 73.356C5.25882 73.5609 5.1055 73.8445 5.01737 74.2069C4.92798 74.5613 4.92478 74.9993 5.00778 75.5207C5.1021 76.1132 5.26635 76.5853 5.50052 76.9368C5.7347 77.2884 6.01699 77.5351 6.34739 77.6769C6.66864 77.8121 7.01016 77.8711 7.37198 77.8541L7.62287 79.4302Z" fill="white"/>
<path d="M3.02862 67.8748L3.15553 61.3L4.43929 61.3248L4.32234 67.3837L3.91515 66.7157L7.69672 67.2928L7.69969 67.7609C7.42329 67.5715 7.16413 67.3185 6.92219 67.0018C6.68042 66.677 6.48786 66.2893 6.34454 65.8384C6.19337 65.3794 6.12326 64.866 6.13422 64.2981C6.14935 63.5142 6.29814 62.853 6.58059 62.3143C6.85504 61.7755 7.22292 61.3705 7.68424 61.0994C8.14572 60.8202 8.6644 60.6862 9.24029 60.6973C9.84018 60.7089 10.3688 60.8871 10.8263 61.232C11.2837 61.5769 11.6424 62.0599 11.9025 62.6811C12.1547 63.2941 12.2727 64.0205 12.2565 64.8603C12.2403 65.7002 12.1023 66.4256 11.8424 67.0367C11.5826 67.6478 11.2372 68.1293 10.8064 68.481C10.3677 68.8246 9.88358 69.0313 9.35413 69.1011L9.38493 67.5054C9.85901 67.4025 10.2365 67.1218 10.5174 66.6631C10.7983 66.2044 10.9461 65.5952 10.9608 64.8353C10.9706 64.3234 10.9071 63.8821 10.7703 63.5114C10.6256 63.1325 10.4232 62.8366 10.1633 62.6235C9.89536 62.4103 9.57742 62.3001 9.20949 62.293C8.84956 62.2861 8.53592 62.368 8.26857 62.5389C7.99338 62.7016 7.7804 62.9576 7.62963 63.3067C7.47102 63.6477 7.38655 64.0862 7.3762 64.6221C7.36771 65.062 7.41206 65.4589 7.50925 65.8129C7.60659 66.1588 7.73277 66.4613 7.8878 66.7204C8.04299 66.9714 8.20694 67.1826 8.37967 67.354L8.35419 68.6737L3.02862 67.8748Z" fill="white"/>
<path d="M13.2861 55.1053C13.0906 56.0697 12.734 56.8627 12.2163 57.4842C11.6907 58.1042 11.0487 58.5332 10.2903 58.7713C9.52405 59.0079 8.68225 59.0332 7.7649 58.8473C6.84754 58.6614 6.08593 58.3112 5.48006 57.7966C4.86634 57.2804 4.44202 56.6353 4.20707 55.8612C3.96429 55.0855 3.94061 54.2155 4.13604 53.2511C4.33146 52.2867 4.69118 51.4984 5.21519 50.8863C5.73295 50.2648 6.37495 49.8357 7.14119 49.5992C7.89959 49.3611 8.73746 49.335 9.65482 49.5209C10.5722 49.7067 11.3377 50.0578 11.9514 50.5739C12.5573 51.0885 12.9816 51.7336 13.2244 52.5093C13.4609 53.2756 13.4815 54.1409 13.2861 55.1053ZM12.0041 54.8455C12.2027 53.8654 12.0707 53.0469 11.6079 52.3899C11.1373 51.7313 10.3807 51.2964 9.33785 51.0851C8.29504 50.8737 7.43264 50.9806 6.75064 51.4056C6.06081 51.829 5.61659 52.5308 5.41798 53.5109C5.21938 54.491 5.35457 55.3142 5.82356 55.9806C6.28629 56.6376 7.03906 57.0718 8.08187 57.2831C9.12467 57.4944 9.99099 57.3883 10.6808 56.9649C11.3644 56.5321 11.8055 55.8256 12.0041 54.8455Z" fill="white"/>
<path d="M16.1356 45.5931C15.7625 46.5036 15.2633 47.2155 14.638 47.7287C14.0052 48.2389 13.2941 48.5397 12.5044 48.6311C11.7074 48.7194 10.8758 48.5861 10.0098 48.2312C9.14366 47.8763 8.46141 47.3892 7.963 46.7699C7.4572 46.1477 7.16163 45.4343 7.0763 44.6299C6.98357 43.8224 7.12377 42.9634 7.49691 42.0529C7.87004 41.1424 8.37145 40.4358 9.00113 39.933C9.62645 39.4198 10.3376 39.119 11.1347 39.0306C11.9243 38.9392 12.7521 39.071 13.6182 39.4259C14.4843 39.7809 15.1703 40.2695 15.6761 40.8917C16.1745 41.511 16.4701 42.2244 16.5628 43.0318C16.6512 43.8289 16.5088 44.6826 16.1356 45.5931ZM14.9253 45.0971C15.3045 44.1718 15.3286 43.3431 14.9975 42.6108C14.6591 41.8756 13.9976 41.3062 13.013 40.9027C12.0285 40.4993 11.1614 40.4422 10.4117 40.7315C9.65457 41.0178 9.08642 41.6236 8.70722 42.5489C8.32802 43.4742 8.30613 44.3082 8.64156 45.0509C8.97263 45.7831 9.63042 46.3509 10.615 46.7544C11.5995 47.1579 12.4703 47.2165 13.2274 46.9302C13.9802 46.6335 14.5461 46.0225 14.9253 45.0971Z" fill="white"/>
<path d="M18.8667 37.7338L13.1577 34.1891L13.7906 33.1696L19.4997 36.7143L18.8667 37.7338ZM15.066 38.6227L14.0466 37.9897L17.5913 32.2807L18.6108 32.9137L15.066 38.6227Z" fill="white"/>
<path d="M21.3161 25.7332C20.8935 25.2188 20.6503 24.6552 20.5867 24.0425C20.5289 23.4242 20.6381 22.8017 20.9143 22.175C21.185 21.5424 21.6132 20.9478 22.1989 20.3912C22.7556 19.8621 23.3254 19.4862 23.9083 19.2633C24.4969 19.035 25.056 18.9672 25.5856 19.0598C26.1209 19.147 26.5843 19.3965 26.9755 19.8082C27.2787 20.1271 27.4814 20.4973 27.5839 20.9186C27.6922 21.3345 27.7044 21.8526 27.6208 22.4729C27.5374 23.0819 27.3651 23.8471 27.104 24.7685L26.1533 28.1055L25.6831 27.9068L30.6063 23.2279L31.5156 24.1847L25.4442 29.9549L24.6506 29.1198L25.8216 24.7953C26.0277 24.0366 26.1679 23.4177 26.2423 22.9386C26.3171 22.4482 26.3244 22.0494 26.2643 21.7424C26.2042 21.4353 26.0722 21.1744 25.8683 20.9599C25.6533 20.7337 25.3996 20.5886 25.1069 20.5246C24.8143 20.4606 24.4937 20.4948 24.1452 20.6274C23.8024 20.7545 23.4397 20.9999 23.0569 21.3637C22.622 21.777 22.326 22.1797 22.1689 22.5719C22.0118 22.964 21.9684 23.3363 22.0386 23.689C22.1092 24.0303 22.254 24.3452 22.473 24.6337L21.3161 25.7332Z" fill="white"/>
<path d="M27.8858 15.6257L33.355 11.9744L34.0679 13.0423L29.0279 16.4071L29.3436 15.6913L31.03 19.1249L30.6474 19.3948C30.6449 19.0597 30.7046 18.7025 30.8264 18.323C30.9548 17.939 31.1632 17.5595 31.4514 17.1843C31.7418 16.7981 32.1232 16.4472 32.5956 16.1319C33.2476 15.6965 33.8754 15.441 34.4788 15.3651C35.0779 15.2827 35.6204 15.3533 36.1065 15.5771C36.5992 15.7964 37.0054 16.1456 37.3253 16.6247C37.6584 17.1237 37.8141 17.6594 37.7923 18.2319C37.7705 18.8043 37.5789 19.3747 37.2176 19.9429C36.8585 20.5001 36.3297 21.0119 35.6311 21.4783C34.9325 21.9447 34.2581 22.2458 33.6081 22.3816C32.9581 22.5173 32.3657 22.5088 31.8308 22.3561C31.2982 22.1923 30.8521 21.913 30.4924 21.5183L31.8197 20.6321C32.175 20.9625 32.621 21.1119 33.158 21.0805C33.6949 21.0491 34.2794 20.8224 34.9115 20.4004C35.3373 20.1161 35.6633 19.8119 35.8894 19.4879C36.1177 19.1527 36.245 18.8175 36.2715 18.4825C36.2934 18.1408 36.2022 17.8169 35.9979 17.5108C35.798 17.2114 35.5516 17.0008 35.2586 16.879C34.9679 16.746 34.6361 16.7174 34.2634 16.7931C33.8929 16.8577 33.4848 17.0388 33.039 17.3364C32.6731 17.5807 32.3726 17.8438 32.1376 18.1258C31.9092 18.4033 31.733 18.6796 31.6089 18.9548C31.4915 19.2256 31.4118 19.4808 31.3698 19.7205L30.272 20.4534L27.8858 15.6257Z" fill="white"/>
<path d="M44.5171 16.603C43.6123 16.9897 42.757 17.1464 41.9514 17.0731C41.1427 16.9924 40.425 16.7076 39.7983 16.2185C39.1686 15.722 38.6698 15.0434 38.3019 14.1828C37.9341 13.3221 37.79 12.4963 37.8696 11.7054C37.946 10.9071 38.2361 10.1915 38.7399 9.55859C39.2406 8.91832 39.9433 8.40483 40.8482 8.01813C41.753 7.63143 42.6061 7.47998 43.4075 7.56378C44.2132 7.63707 44.9308 7.92195 45.5606 8.4184C46.1872 8.9075 46.6845 9.58239 47.0523 10.4431C47.4201 11.3038 47.5658 12.1333 47.4894 12.9315C47.4098 13.7224 47.1197 14.438 46.619 15.0783C46.1226 15.7081 45.4219 16.2163 44.5171 16.603ZM44.0031 15.4002C44.9226 15.0072 45.5214 14.4338 45.7995 13.6798C46.0745 12.9185 46.0029 12.0487 45.5847 11.0703C45.1666 10.0919 44.589 9.44266 43.8519 9.12257C43.1116 8.79513 42.2817 8.82791 41.3622 9.22089C40.4427 9.61388 39.8417 10.1926 39.5594 10.957C39.2814 11.711 39.3514 12.5772 39.7695 13.5555C40.1877 14.5339 40.7669 15.1869 41.5071 15.5143C42.2515 15.8312 43.0835 15.7932 44.0031 15.4002Z" fill="white"/>
<path d="M53.873 13.57C52.9117 13.7802 52.0423 13.7737 51.2647 13.5506C50.4854 13.3197 49.8339 12.9052 49.3102 12.3073C48.7847 11.7015 48.422 10.9414 48.2221 10.027C48.0223 9.1126 48.0356 8.27442 48.2621 7.51248C48.4869 6.74271 48.9061 6.09424 49.5197 5.56706C50.1316 5.03206 50.9181 4.6595 51.8794 4.44938C52.8407 4.23926 53.7071 4.25051 54.4786 4.48313C55.2562 4.70624 55.9077 5.12067 56.4332 5.72643C56.9569 6.32438 57.3188 7.08056 57.5186 7.99497C57.7185 8.90938 57.706 9.75147 57.4812 10.5212C57.2547 11.2832 56.8355 11.9316 56.2236 12.4666C55.6179 12.9921 54.8344 13.3599 53.873 13.57ZM53.5937 12.2922C54.5707 12.0787 55.2664 11.6277 55.681 10.9393C56.0938 10.2431 56.1867 9.37524 55.9595 8.33578C55.7322 7.29632 55.2867 6.55026 54.6227 6.09761C53.957 5.63714 53.1357 5.51367 52.1588 5.72721C51.1818 5.94075 50.483 6.39648 50.0623 7.09441C49.6478 7.78281 49.5541 8.64674 49.7813 9.6862C50.0085 10.7257 50.455 11.4756 51.1207 11.9361C51.7924 12.387 52.6168 12.5057 53.5937 12.2922Z" fill="white"/>
<path d="M61.8717 11.3429L61.5348 4.63139L62.7333 4.57122L63.0702 11.2828L61.8717 11.3429ZM58.9768 8.72481L58.9166 7.52632L65.6282 7.18935L65.6883 8.38784L58.9768 8.72481Z" fill="white"/>
</svg>
