<svg width="203" height="204" viewBox="0 0 203 204" fill="none" xmlns="http://www.w3.org/2000/svg">
<path d="M109.35 12.8409C106.984 12.5937 105.237 11.8094 104.11 10.4881C102.983 9.16675 102.537 7.37656 102.773 5.11751L103.221 0.836006L106.243 1.15174L105.819 5.20429C105.665 6.68488 105.959 7.85746 106.702 8.72203C107.446 9.57133 108.62 10.0797 110.223 10.2471C111.138 10.3428 112.111 10.3364 113.141 10.228C114.172 10.1043 115.205 9.89581 116.238 9.6026L116.189 12.074C115.132 12.4419 114.01 12.695 112.823 12.8333C111.652 12.9579 110.495 12.9604 109.35 12.8409ZM114.752 19.3999L116.546 2.22812L119.568 2.54386L117.774 19.7157L114.752 19.3999Z" fill="#3F3D3F"/>
<path d="M120.481 20.1283L126.18 3.83091L128.962 4.80362L123.734 19.7538L122.817 19.238L139.349 8.43607L143.086 9.74315L137.387 26.0406L134.605 25.0678L139.879 9.98731L140.796 10.5031L124.132 21.405L120.481 20.1283Z" fill="#3F3D3F"/>
<path d="M139.148 26.8962L148.523 12.3979L150.997 13.9979L142.397 27.2977L141.627 26.5805L160.237 19.9729L163.562 22.1229L154.187 36.6211L151.713 35.0212L160.388 21.6054L161.158 22.3226L142.395 28.9962L139.148 26.8962Z" fill="#3F3D3F"/>
<path d="M155.836 37.9867L168.394 26.1383L170.416 28.2815L158.896 39.1504L158.319 38.2706L177.968 36.2852L180.685 39.1651L168.127 51.0135L166.105 48.8703L177.725 37.9066L178.302 38.7864L158.49 40.7997L155.836 37.9867Z" fill="#3F3D3F"/>
<path d="M172.815 59.3773C171.943 57.9138 171.392 56.5092 171.162 55.1635C170.932 53.8179 171.022 52.6035 171.43 51.5204C171.839 50.4373 172.545 49.5526 173.547 48.8662L175.102 51.4767C174.192 52.1976 173.71 53.1279 173.656 54.2673C173.624 55.4121 174.035 56.7031 174.892 58.1402C175.716 59.5246 176.567 60.4735 177.445 60.9869C178.343 61.5056 179.221 61.5097 180.078 60.9992C180.803 60.5672 181.155 59.9287 181.134 59.0838C181.113 58.2388 180.686 57.1176 179.854 55.72L178.087 52.7534L179.926 51.6578L181.658 54.565C182.153 55.3956 182.66 56.0223 183.18 56.4451C183.7 56.8678 184.209 57.109 184.709 57.1684C185.222 57.2201 185.69 57.1202 186.112 56.8689C186.626 56.5625 186.963 56.1385 187.122 55.5969C187.29 55.0684 187.289 54.4525 187.12 53.7492C186.952 53.0459 186.631 52.2988 186.16 51.5077C185.375 50.1892 184.489 49.2876 183.504 48.8028C182.518 48.3181 181.528 48.2741 180.531 48.6711L178.988 46.0803C179.979 45.6149 181.023 45.4484 182.12 45.5809C183.225 45.7265 184.31 46.1971 185.373 46.9926C186.458 47.7936 187.436 48.9258 188.308 50.3893C189.093 51.7077 189.594 52.9543 189.812 54.1288C190.05 55.3087 190.017 56.3469 189.711 57.2434C189.427 58.1453 188.882 58.8358 188.078 59.3149C187.392 59.7233 186.644 59.8921 185.834 59.8211C185.024 59.7501 184.21 59.404 183.393 58.783C182.577 58.1619 181.799 57.2316 181.061 55.9923L181.437 55.7684C182.22 56.9632 182.743 58.0808 183.005 59.1213C183.281 60.1539 183.297 61.0646 183.052 61.8534C182.815 62.6554 182.301 63.292 181.51 63.7633C180.614 64.2974 179.664 64.4879 178.662 64.3347C177.668 64.1947 176.665 63.7112 175.654 62.8842C174.657 62.0493 173.71 60.8804 172.815 59.3773Z" fill="#3F3D3F"/>
<path d="M191.153 88.6131C189.748 88.8183 188.412 88.6488 187.146 88.1047C185.898 87.5716 184.815 86.7263 183.898 85.5688C182.98 84.4113 182.304 82.9931 181.869 81.3142C181.385 79.4422 181.324 77.7062 181.686 76.1064C182.049 74.5065 182.775 73.1456 183.864 72.0236C184.967 70.8978 186.381 70.1119 188.104 69.6658C189.828 69.2198 191.438 69.2232 192.934 69.6761C194.445 70.1252 195.748 70.9612 196.841 72.1843C197.934 73.4073 198.723 74.9548 199.208 76.8269C199.642 78.5057 199.739 80.0739 199.498 81.5313C199.257 82.9887 198.72 84.2532 197.888 85.3246C197.059 86.4109 195.973 87.2072 194.63 87.7134L193.863 84.7493C194.712 84.3552 195.385 83.8006 195.882 83.0855C196.382 82.3853 196.692 81.5601 196.81 80.6099C196.944 79.6559 196.864 78.6143 196.572 77.4852C196.234 76.1777 195.695 75.1046 194.954 74.2657C194.218 73.4418 193.329 72.887 192.288 72.6016C191.247 72.3161 190.11 72.333 188.877 72.6521C187.644 72.9713 186.642 73.5082 185.87 74.2627C185.098 75.0173 184.59 75.9334 184.346 77.0112C184.106 78.1038 184.155 79.3039 184.493 80.6113C184.785 81.7405 185.214 82.6917 185.779 83.465C186.343 84.2383 187.014 84.8097 187.792 85.1792C188.588 85.5597 189.453 85.7164 190.386 85.6491L191.153 88.6131Z" fill="#3F3D3F"/>
<path d="M200.417 96.271L200.534 99.3075L184.685 99.9194L184.567 96.883L200.417 96.271ZM201.544 89.0859L202.212 106.384L199.544 106.487L198.876 89.1889L201.544 89.0859Z" fill="#3F3D3F"/>
<path d="M184.117 111.873L188.432 115.446L188.425 115.491L199.53 124.626L198.997 127.898L183.583 115.145L184.117 111.873ZM186.286 115.165L202.069 109.063L201.528 112.38L188.209 117.532L186.286 115.165Z" fill="#3F3D3F"/>
<path d="M179.429 121.81L185.154 124.231L184.096 126.733L183.354 128.369L178.35 140.2L178.114 140.875L176.446 144.818L170.722 142.397L171.825 139.789L175.09 141.17L181.591 125.799L178.326 124.418L179.429 121.81ZM197.116 133.415L191.072 147.705L176.252 141.437L177.436 138.638L191.068 144.404L189.258 145.138L194.02 133.88L194.399 135.465C193.592 135.207 192.801 134.931 192.026 134.636C191.25 134.342 190.524 134.051 189.845 133.764C188.064 133.011 186.599 132.241 185.448 131.454C184.298 130.668 183.495 129.887 183.04 129.111C182.585 128.335 182.507 127.594 182.806 126.887L184.295 126.143C184.733 127.078 185.546 127.972 186.735 128.825C187.918 129.691 189.506 130.546 191.499 131.389C192.362 131.754 193.271 132.105 194.228 132.443C195.185 132.781 196.147 133.105 197.116 133.415Z" fill="#3F3D3F"/>
<path d="M173.239 144.648L186.975 155.108L185.19 157.452L172.589 147.857L173.363 147.145L178.524 166.207L176.125 169.357L162.389 158.898L164.174 156.553L176.884 166.232L176.11 166.944L170.896 147.725L173.239 144.648Z" fill="#3F3D3F"/>
<path d="M156.845 175.669L155.388 173.946L161.19 169.042L161.237 169.062C162.163 168.279 163.116 167.755 164.097 167.488C165.066 167.232 165.997 167.228 166.891 167.478C167.773 167.737 168.546 168.259 169.21 169.044C169.874 169.829 170.26 170.678 170.369 171.591C170.476 172.526 170.322 173.45 169.908 174.362C169.492 175.297 168.821 176.155 167.895 176.938L160.476 183.21L149.33 170.024L151.651 168.063L162.203 180.545L160.288 180.384L166.16 175.42C166.969 174.737 167.439 173.998 167.571 173.203C167.692 172.418 167.464 171.686 166.89 171.006C166.315 170.326 165.626 169.974 164.822 169.95C164.016 169.948 163.209 170.289 162.4 170.973L156.845 175.669ZM159.065 172.376L158.929 161.91L161.689 159.577L161.755 170.102L159.065 172.376Z" fill="#3F3D3F"/>
<path d="M143.293 170.331L145.714 176.055L143.212 177.113L141.54 177.77L129.71 182.774L129.07 183.095L125.127 184.763L122.706 179.038L125.313 177.935L126.694 181.2L142.066 174.699L140.685 171.434L143.293 170.331ZM147.901 190.977L133.611 197.021L127.343 182.201L130.141 181.017L135.907 194.65L134.097 193.916L145.355 189.154L144.524 190.556C144.124 189.808 143.749 189.059 143.398 188.308C143.047 187.556 142.728 186.841 142.441 186.163C141.687 184.382 141.172 182.809 140.894 181.443C140.617 180.077 140.585 178.958 140.798 178.084C141.012 177.211 141.472 176.625 142.179 176.326L143.767 176.829C143.429 177.805 143.39 179.013 143.65 180.453C143.895 181.899 144.439 183.618 145.282 185.611C145.646 186.473 146.054 187.359 146.505 188.268C146.956 189.177 147.422 190.08 147.901 190.977Z" fill="#3F3D3F"/>
<path d="M123.083 182.371L125.666 199.442L122.753 199.883L120.383 184.223L121.435 184.25L111.873 201.529L107.958 202.121L105.375 185.051L108.288 184.61L110.679 200.406L109.627 200.379L119.259 182.95L123.083 182.371Z" fill="#3F3D3F"/>
<path d="M95.6234 184.13C97.3224 184.255 98.789 184.609 100.023 185.192C101.258 185.775 102.202 186.544 102.855 187.5C103.508 188.456 103.828 189.541 103.816 190.756L100.785 190.533C100.717 189.374 100.231 188.446 99.3279 187.749C98.4086 187.066 97.1148 186.663 95.4464 186.541C93.8393 186.423 92.5739 186.576 91.6503 187C90.7101 187.439 90.2035 188.156 90.1305 189.151C90.0687 189.993 90.3899 190.647 91.0943 191.114C91.7986 191.582 92.962 191.875 94.5844 191.994L98.0282 192.247L97.8714 194.382L94.4965 194.134C93.5322 194.063 92.7279 194.12 92.0835 194.303C91.4391 194.487 90.9493 194.766 90.6139 195.142C90.2775 195.532 90.0913 195.973 90.0553 196.462C90.0115 197.059 90.1657 197.579 90.518 198.02C90.855 198.46 91.36 198.813 92.033 199.078C92.706 199.342 93.5017 199.509 94.4201 199.576C95.9506 199.688 97.197 199.48 98.1592 198.95C99.1213 198.421 99.7254 197.634 99.9713 196.59L102.979 196.811C102.792 197.89 102.33 198.841 101.592 199.664C100.839 200.486 99.8322 201.104 98.5707 201.52C97.2927 201.949 95.8042 202.101 94.1053 201.976C92.5747 201.864 91.266 201.56 90.179 201.065C89.0756 200.584 88.2442 199.961 87.6848 199.197C87.1089 198.447 86.8553 197.605 86.9239 196.671C86.9823 195.875 87.2729 195.166 87.7957 194.542C88.3185 193.919 89.0684 193.451 90.0455 193.138C91.0225 192.825 92.2304 192.721 93.6692 192.827L93.6371 193.263C92.2092 193.22 90.9937 193.008 89.9907 192.626C88.9866 192.26 88.2315 191.751 87.7255 191.098C87.2041 190.444 86.9771 189.658 87.0446 188.74C87.121 187.699 87.5093 186.812 88.2094 186.078C88.8943 185.344 89.8652 184.8 91.1223 184.446C92.3782 184.107 93.8786 184.002 95.6234 184.13Z" fill="#3F3D3F"/>
<path d="M82.4645 186.716L81.7533 189.122L70.1853 185.703L70.8964 183.297L82.4645 186.716ZM71.0106 197.206L67.9566 178.299L71.0694 179.219L73.7211 196.806L72.5952 196.474L84.3814 183.154L87.4942 184.074L74.6532 198.282L71.0106 197.206Z" fill="#3F3D3F"/>
<path d="M68.3419 178.285L59.7803 193.278L57.2215 191.817L65.0753 178.063L65.8836 178.737L47.666 186.36L44.2276 184.397L52.7892 169.404L55.348 170.865L47.4257 184.739L46.6174 184.065L64.9835 176.367L68.3419 178.285ZM54.0076 195.681L51.8486 194.448C51.9912 193.858 51.9625 193.32 51.7625 192.835C51.5415 192.355 51.1445 191.952 50.5714 191.625C49.985 191.29 49.4358 191.153 48.9238 191.214C48.4041 191.288 47.9264 191.537 47.4906 191.96L45.3317 190.727C46.167 189.79 47.1234 189.276 48.2008 189.184C49.2706 189.106 50.3652 189.386 51.4847 190.025C52.6041 190.665 53.402 191.465 53.8781 192.426C54.3467 193.401 54.3899 194.486 54.0076 195.681Z" fill="#3F3D3F"/>
<path d="M39.6817 181.04L37.4564 178.97L49.2133 166.327L51.4386 168.396L39.6817 181.04ZM29.3981 171.477L27.1728 169.408L38.9296 156.764L41.1549 158.834L29.3981 171.477ZM43.407 174.633L33.2582 165.196L35.0766 163.241L45.2254 172.678L43.407 174.633Z" fill="#3F3D3F"/>
<path d="M33.0401 155.553L30.9687 156.969L24.1611 147.011L26.2326 145.594L33.0401 155.553ZM17.5347 156.448L27.1108 139.863L28.9426 142.543L19.888 157.851L19.2254 156.882L36.7765 154.002L38.6083 156.682L19.6783 159.584L17.5347 156.448Z" fill="#3F3D3F"/>
<path d="M23.9299 131.412L18.4487 130.253L18.4342 130.209L4.35647 127.277L3.30943 124.132L22.8829 128.267L23.9299 131.412ZM20.4801 129.504L9.33717 142.239L8.27559 139.05L17.6779 128.301L20.4801 129.504Z" fill="#3F3D3F"/>
<path d="M0.946583 104.057L18.1184 102.263L18.4317 105.262L2.56499 106.92L3.79521 105.403L5.21843 119.026L3.70116 117.795L19.5679 116.138L19.8837 119.16L2.71184 120.954L0.946583 104.057Z" fill="#3F3D3F"/>
<path d="M14.4994 96.5064L12.0093 96.1977L13.493 84.2267L15.9832 84.5353L14.4994 96.5064ZM2.28013 86.9195L20.4337 80.8188L20.0344 84.04L3.11659 89.5284L3.261 88.3632L18.3269 97.8158L17.9277 101.037L1.81291 90.689L2.28013 86.9195Z" fill="#3F3D3F"/>
<path d="M20.6315 81.313L4.33408 75.6135L5.33719 72.7452L19.2226 77.6011L18.3754 78.2803L8.84805 62.706L9.93475 59.5986L21.5282 78.7489L20.6315 81.313ZM15.1523 70.6905L13.8816 67.9781L26.3158 65.059L25.1683 68.3402L15.1523 70.6905Z" fill="#3F3D3F"/>
<path d="M31.2834 57.8862C30.241 59.5512 29.0062 60.8152 27.5789 61.6779C26.1516 62.5407 24.6522 62.9691 23.0808 62.9631C21.4963 62.9489 19.9496 62.4696 18.4406 61.525C16.9317 60.5803 15.8312 59.4026 15.1392 57.9917C14.4342 56.5726 14.158 55.0327 14.3105 53.3719C14.4629 51.711 15.0603 50.0481 16.1027 48.383C17.145 46.718 18.3798 45.4541 19.8071 44.5913C21.2344 43.7285 22.7403 43.3042 24.3248 43.3183C25.8962 43.3243 27.4364 43.7997 28.9454 44.7443C30.4543 45.6889 31.5613 46.8707 32.2663 48.2898C32.9583 49.7007 33.2281 51.2365 33.0756 52.8973C32.9231 54.5582 32.3257 56.2211 31.2834 57.8862ZM28.9809 56.4448C29.7219 55.2611 30.1465 54.1056 30.2547 52.9783C30.3629 51.851 30.1668 50.8049 29.6664 49.8398C29.1742 48.8618 28.3883 48.0348 27.3086 47.3589C26.2289 46.683 25.1417 46.3374 24.0469 46.322C22.9602 46.2935 21.9335 46.5742 20.9668 47.164C20.0001 47.7539 19.1462 48.6406 18.4051 49.8244C17.6723 50.9951 17.2477 52.1507 17.1313 53.2909C17.0232 54.4182 17.2152 55.4709 17.7074 56.4489C18.2077 57.4139 18.9977 58.2344 20.0774 58.9103C21.1571 59.5862 22.2403 59.9383 23.327 59.9668C24.4218 59.9822 25.4525 59.695 26.4192 59.1052C27.3941 58.5024 28.248 57.6156 28.9809 56.4448Z" fill="#3F3D3F"/>
<path d="M38.3731 35.1801L38.1126 34.4964C39.0893 33.5414 40.0226 32.9012 40.9124 32.5756C41.8131 32.2392 42.6433 32.1687 43.4029 32.364C44.1734 32.5485 44.8571 32.9391 45.4539 33.536C46.1051 34.1871 46.5229 34.9196 46.7073 35.7335C46.9027 36.5365 46.8484 37.383 46.5446 38.2728C46.2299 39.1519 45.6276 40.0363 44.7377 40.9261L36.5988 49.0651L31.2922 41.8377L24.3904 36.8567L32.2363 29.0108C33.3649 27.8822 34.499 27.2799 35.6384 27.2039C36.7779 27.1062 37.8088 27.5186 38.7312 28.441C39.2195 28.9294 39.5776 29.5262 39.8055 30.2316C40.0334 30.9153 40.0497 31.6803 39.8544 32.5268C39.659 33.3515 39.1653 34.2359 38.3731 35.1801ZM38.1615 46.2978L36.2081 46.0048L42.7681 39.4449C43.4409 38.772 43.8099 38.0992 43.875 37.4264C43.9401 36.7319 43.6851 36.097 43.1099 35.5219C42.5022 34.9142 41.8077 34.6646 41.0264 34.7731C40.2559 34.8708 39.442 35.3483 38.5847 36.2056L33.2944 41.4959L31.6341 39.8355L36.7127 34.7568C37.2879 34.1817 37.608 33.5468 37.6731 32.8523C37.7274 32.147 37.4561 31.4958 36.8592 30.899C36.4143 30.4541 35.8934 30.2479 35.2966 30.2804C34.6889 30.3021 34.0866 30.6114 33.4897 31.2083L27.4506 37.2473L27.1576 35.294L33.3595 39.7704L38.1615 46.2978Z" fill="#3F3D3F"/>
<path d="M50.1003 35.9124L40.7254 21.4142L43.2771 19.7642L51.2645 32.1167L50.1788 32.1334L52.208 13.9892L54.9724 12.2017L52.3814 34.4374L50.1003 35.9124ZM52.289 24.1622L52.9493 21.2406L64.5599 26.5625L61.641 28.45L52.289 24.1622Z" fill="#3F3D3F"/>
<path d="M64.3773 26.6959L58.4334 10.486L61.1999 9.47161L66.6524 24.3415L65.6164 24.5252L71.531 5.68339L75.2485 4.32026L81.1923 20.5301L78.4259 21.5446L72.9258 6.54502L73.9618 6.36129L68.0083 25.3645L64.3773 26.6959Z" fill="#3F3D3F"/>
</svg>
