<svg width="132" height="132" viewBox="0 0 132 132" fill="none" xmlns="http://www.w3.org/2000/svg">
<path d="M119.675 65.7446L126.422 66.5282L126.242 68.0778L120.223 67.3787L120.743 66.9559L120.244 71.247L119.81 70.9308L125.829 71.63L125.65 73.1795L119.63 72.4804L120.139 72.1529L119.627 76.5633L119.217 76.0325L125.237 76.7317L125.057 78.2812L118.31 77.4976L119.675 65.7446Z" fill="white"/>
<path d="M116.485 82.3282C116.733 81.5758 117.093 80.9533 117.567 80.4605C118.048 79.9702 118.598 79.6416 119.217 79.4746C119.836 79.3076 120.484 79.3352 121.16 79.5576C121.829 79.7774 122.363 80.1256 122.762 80.6021C123.167 81.0886 123.418 81.6555 123.517 82.3028C123.621 82.9601 123.554 83.6497 123.317 84.3717C123.079 85.0937 122.711 85.6632 122.212 86.0802C121.718 86.5073 121.131 86.769 120.451 86.8654C119.771 86.9619 119.035 86.8802 118.245 86.6204L120.242 80.5442L121.371 80.9152L119.617 86.2504L119.439 85.3707C119.872 85.4878 120.271 85.5051 120.635 85.4227C120.996 85.3478 121.306 85.1846 121.566 84.9331C121.831 84.6916 122.03 84.3657 122.165 83.9553C122.308 83.5221 122.345 83.1134 122.278 82.7291C122.208 82.3525 122.043 82.0205 121.784 81.7332C121.532 81.4483 121.19 81.2347 120.757 81.0923C120.278 80.9349 119.829 80.9052 119.409 81.0031C118.987 81.1086 118.616 81.3277 118.296 81.6604C117.982 82.0032 117.734 82.4483 117.554 82.9955C117.392 83.4895 117.302 84.0198 117.284 84.5866C117.274 85.1558 117.344 85.6843 117.496 86.1719L116.424 85.8197C116.25 85.3246 116.169 84.7633 116.182 84.1358C116.192 83.516 116.293 82.9134 116.485 82.3282Z" fill="white"/>
<path d="M114.075 94.6496C113.613 94.3226 113.273 93.9003 113.053 93.3826C112.84 92.8687 112.755 92.3078 112.797 91.7C112.84 91.0923 113.018 90.4824 113.333 89.8704C113.691 89.173 114.139 88.6251 114.676 88.2266C115.217 87.8389 115.803 87.6181 116.433 87.5641C117.063 87.5101 117.691 87.644 118.318 87.9657C118.944 88.2873 119.419 88.72 119.742 89.2638C120.065 89.8076 120.223 90.4104 120.216 91.0722C120.212 91.7449 120.031 92.4298 119.673 93.1272C119.359 93.7392 118.967 94.2394 118.497 94.6279C118.028 95.0164 117.519 95.272 116.97 95.3949C116.429 95.5214 115.887 95.4904 115.345 95.3021L116.063 93.9038C116.57 94.0381 117.048 93.9824 117.498 93.7369C117.948 93.4913 118.31 93.1017 118.584 92.568C118.804 92.141 118.91 91.7235 118.904 91.3156C118.905 90.9113 118.794 90.5398 118.572 90.201C118.354 89.8731 118.028 89.5976 117.594 89.3746C117.167 89.1553 116.753 89.0506 116.352 89.0606C115.948 89.0777 115.578 89.2025 115.243 89.435C114.914 89.6711 114.641 90.0027 114.421 90.4296C114.144 90.9705 114.039 91.4971 114.109 92.0095C114.179 92.5219 114.407 92.9358 114.793 93.2513L114.075 94.6496Z" fill="white"/>
<path d="M115.086 99.4462L114.183 100.718L109.087 97.0956L109.99 95.8241L115.086 99.4462ZM117.16 97.4605L112.989 103.329L111.991 102.62L116.163 96.7514L117.16 97.4605Z" fill="white"/>
<path d="M106.86 100.074L111.8 104.735L110.729 105.869L106.103 101.505L107.006 101.597L105.013 103.71C104.722 104.018 104.57 104.331 104.556 104.648C104.549 104.971 104.679 105.259 104.947 105.511C105.22 105.769 105.515 105.882 105.831 105.851C106.153 105.824 106.459 105.657 106.75 105.348L108.71 103.271L109.522 104.037L107.422 106.263C107.043 106.664 106.641 106.945 106.215 107.104C105.796 107.269 105.381 107.312 104.971 107.234C104.562 107.166 104.188 106.974 103.851 106.655C103.513 106.337 103.296 105.972 103.199 105.562C103.097 105.158 103.116 104.741 103.256 104.313C103.397 103.884 103.654 103.472 104.027 103.076L106.86 100.074Z" fill="white"/>
<path d="M95.4428 110.576L98.5237 116.629L97.1334 117.337L94.3846 111.936L95.0246 112.136L91.1746 114.095L91.1976 113.558L93.9465 118.959L92.5562 119.667L89.8073 114.266L90.3619 114.509L86.4049 116.523L86.6204 115.888L89.3693 121.289L87.979 121.996L84.8981 115.943L95.4428 110.576Z" fill="white"/>
<path d="M79.9768 117.041C80.7397 116.828 81.4575 116.781 82.1304 116.901C82.8055 117.028 83.3846 117.303 83.8678 117.724C84.3509 118.146 84.6882 118.699 84.8796 119.385C85.0689 120.063 85.0766 120.701 84.9026 121.298C84.7231 121.904 84.3919 122.428 83.909 122.871C83.4205 123.323 82.8103 123.651 82.0783 123.855C81.3463 124.059 80.6682 124.07 80.044 123.887C79.4143 123.714 78.8702 123.372 78.4118 122.86C77.9534 122.349 77.6123 121.692 77.3886 120.891L83.5491 119.171L83.8685 120.315L78.4593 121.825L79.0912 121.188C79.2348 121.613 79.442 121.954 79.713 122.21C79.9763 122.469 80.2846 122.636 80.638 122.712C80.9858 122.798 81.3678 122.783 81.7839 122.666C82.2231 122.544 82.5836 122.348 82.8655 122.078C83.1396 121.81 83.324 121.489 83.4186 121.114C83.5153 120.746 83.5024 120.343 83.3798 119.904C83.2443 119.418 83.0192 119.028 82.7045 118.734C82.3821 118.442 81.9936 118.256 81.5392 118.175C81.0792 118.104 80.5718 118.146 80.017 118.301C79.5161 118.441 79.0252 118.661 78.5443 118.961C78.0655 119.269 77.6655 119.622 77.3444 120.019L77.0412 118.932C77.3558 118.512 77.7773 118.133 78.3058 117.794C78.8265 117.458 79.3835 117.207 79.9768 117.041Z" fill="white"/>
<path d="M68.4196 121.863C68.4344 121.298 68.5957 120.78 68.9035 120.309C69.2122 119.846 69.6308 119.463 70.1594 119.16C70.6879 118.857 71.2939 118.666 71.9773 118.587C72.7561 118.496 73.4606 118.564 74.0907 118.788C74.7138 119.022 75.2232 119.386 75.6188 119.879C76.0144 120.373 76.2528 120.969 76.334 121.669C76.4152 122.368 76.3199 123.003 76.048 123.574C75.776 124.146 75.3631 124.612 74.8092 124.975C74.2483 125.346 73.5785 125.577 72.7997 125.667C72.1163 125.747 71.4826 125.699 70.8987 125.526C70.3147 125.352 69.819 125.071 69.4116 124.684C69.0051 124.304 68.7293 123.837 68.5843 123.282L70.1458 123.1C70.3162 123.596 70.6285 123.962 71.0829 124.199C71.5373 124.437 72.0625 124.521 72.6585 124.451C73.1353 124.396 73.5414 124.252 73.8769 124.02C74.2132 123.796 74.4604 123.497 74.6185 123.124C74.7695 122.761 74.8169 122.336 74.7606 121.851C74.7052 121.375 74.5618 120.973 74.3305 120.645C74.0912 120.318 73.7817 120.081 73.402 119.931C73.0232 119.79 72.5953 119.747 72.1185 119.803C71.5146 119.873 71.0191 120.079 70.6321 120.422C70.2451 120.765 70.0281 121.185 69.9811 121.682L68.4196 121.863Z" fill="white"/>
<path d="M64.6797 125.354L63.1206 125.3L63.3378 119.052L64.8968 119.106L64.6797 125.354ZM67.4792 125.992L60.2836 125.742L60.3261 124.519L67.5218 124.769L67.4792 125.992Z" fill="white"/>
<path d="M59.6549 118.835L58.5102 125.53L56.9725 125.267L58.0444 118.998L58.4672 119.801L55.6047 119.312C55.1868 119.24 54.842 119.287 54.5704 119.451C54.2974 119.624 54.1299 119.891 54.0679 120.254C54.0045 120.625 54.0736 120.933 54.2751 121.178C54.4752 121.432 54.7843 121.594 55.2022 121.665L58.0174 122.147L57.8293 123.247L54.8131 122.731C54.269 122.638 53.8127 122.459 53.4442 122.193C53.0744 121.935 52.8088 121.613 52.6473 121.229C52.4766 120.85 52.4304 120.433 52.5086 119.975C52.5868 119.518 52.7699 119.135 53.0579 118.827C53.338 118.518 53.6953 118.303 54.1298 118.183C54.5644 118.062 55.0497 118.048 55.5859 118.14L59.6549 118.835Z" fill="white"/>
<path d="M44.6494 115.132L41.2814 121.03L39.9267 120.257L42.9317 114.994L43.1165 115.639L39.365 113.496L39.8264 113.221L36.8213 118.483L35.4666 117.71L38.4717 112.447L38.5731 113.044L34.7174 110.842L35.3663 110.674L32.3613 115.937L31.0066 115.163L34.3746 109.265L44.6494 115.132Z" fill="white"/>
<path d="M30.7523 105.782C31.3496 106.302 31.7834 106.876 32.0537 107.504C32.3186 108.138 32.4079 108.772 32.3214 109.408C32.235 110.043 31.958 110.629 31.4904 111.166C31.0282 111.697 30.5 112.054 29.9059 112.237C29.3005 112.421 28.6804 112.432 28.0456 112.272C27.3995 112.113 26.7899 111.783 26.2167 111.284C25.6435 110.785 25.2616 110.225 25.0712 109.603C24.8695 108.982 24.8562 108.339 25.0314 107.675C25.2066 107.011 25.5674 106.365 26.1137 105.737L30.9376 109.937L30.1575 110.833L25.9219 107.146L26.8017 107.323C26.5256 107.676 26.355 108.037 26.2896 108.404C26.2183 108.767 26.2481 109.116 26.3792 109.453C26.4989 109.791 26.7217 110.101 27.0475 110.385C27.3914 110.684 27.7535 110.878 28.1338 110.965C28.508 111.046 28.8779 111.024 29.2433 110.896C29.6035 110.775 29.9333 110.542 30.2327 110.199C30.5637 109.818 30.7655 109.416 30.8382 108.991C30.9048 108.562 30.847 108.135 30.6645 107.711C30.4708 107.287 30.1568 106.887 29.7223 106.508C29.3301 106.167 28.8764 105.878 28.361 105.641C27.8404 105.411 27.3261 105.271 26.8179 105.221L27.5586 104.37C28.0825 104.402 28.6311 104.545 29.2044 104.801C29.7718 105.051 30.2877 105.378 30.7523 105.782Z" fill="white"/>
<path d="M20.3631 98.8422C20.8424 98.5418 21.3632 98.3896 21.9255 98.3856C22.4817 98.3868 23.0322 98.5238 23.5771 98.7965C24.1219 99.0693 24.6164 99.4683 25.0605 99.9937C25.5667 100.592 25.9004 101.216 26.0617 101.866C26.2117 102.514 26.1905 103.14 25.9981 103.742C25.8057 104.345 25.4407 104.873 24.903 105.328C24.3654 105.782 23.7834 106.054 23.1572 106.144C22.5309 106.233 21.9137 106.148 21.3054 105.887C20.6859 105.625 20.1231 105.194 19.617 104.595C19.1728 104.07 18.8616 103.516 18.6834 102.933C18.5051 102.351 18.4647 101.783 18.5622 101.229C18.6536 100.68 18.8904 100.192 19.2725 99.7641L20.2874 100.965C19.9687 101.381 19.8362 101.844 19.89 102.353C19.9438 102.863 20.1644 103.347 20.5517 103.805C20.8616 104.172 21.2061 104.431 21.5851 104.582C21.958 104.738 22.3435 104.779 22.7414 104.704C23.1281 104.629 23.5077 104.433 23.8804 104.118C24.247 103.808 24.5027 103.467 24.6476 103.093C24.7873 102.713 24.8142 102.323 24.7284 101.924C24.6365 101.531 24.4357 101.151 24.1258 100.784C23.7333 100.32 23.2871 100.021 22.7873 99.8884C22.2875 99.7557 21.8177 99.8071 21.3779 100.043L20.3631 98.8422Z" fill="white"/>
<path d="M15.521 97.8757L14.6981 96.5504L20.0096 93.2525L20.8325 94.5778L15.521 97.8757ZM16.5498 100.556L12.7519 94.4395L13.7917 93.7938L17.5897 99.9107L16.5498 100.556Z" fill="white"/>
<path d="M18.1164 90.0453L11.9011 92.7842L11.272 91.3567L17.092 88.792L16.6557 89.5875L15.4847 86.9301C15.3137 86.5421 15.0847 86.2802 14.7975 86.1445C14.5031 86.0119 14.1875 86.0199 13.8508 86.1683C13.5067 86.3199 13.2879 86.5475 13.1943 86.851C13.0934 87.1577 13.1285 87.505 13.2995 87.893L14.4512 90.5065L13.4299 90.9566L12.196 88.1564C11.9734 87.6513 11.8713 87.1717 11.8898 86.7177C11.901 86.2669 12.0224 85.8681 12.2542 85.5211C12.4755 85.1701 12.7984 84.901 13.223 84.7139C13.6476 84.5268 14.0677 84.4685 14.4834 84.5388C14.8958 84.6018 15.2722 84.7813 15.6124 85.0773C15.9526 85.3732 16.2324 85.7701 16.4518 86.2679L18.1164 90.0453Z" fill="white"/>
<path d="M12.885 75.5284L6.10937 75.9997L6.00113 74.4434L12.0465 74.0229L11.613 74.5343L11.3132 70.2247L11.7984 70.4556L5.75301 70.876L5.64477 69.3198L11.6902 68.8993L11.2499 69.3149L10.9419 64.8856L11.4421 65.3319L5.39665 65.7524L5.28842 64.1962L12.064 63.7249L12.885 75.5284Z" fill="white"/>
<path d="M12.9583 58.5362C12.8548 59.3214 12.6161 60 12.2422 60.5721C11.8603 61.1431 11.3807 61.5681 10.8033 61.847C10.2259 62.126 9.58428 62.219 8.87838 62.126C8.18041 62.034 7.59111 61.791 7.11048 61.3968C6.62297 60.9937 6.27062 60.4833 6.05344 59.8656C5.82937 59.239 5.76698 58.5489 5.86625 57.7954C5.96553 57.0419 6.22174 56.414 6.6349 55.9117C7.04117 55.4004 7.56952 55.0342 8.21995 54.8133C8.87039 54.5924 9.60804 54.5363 10.4329 54.6449L9.59743 60.9861L8.41961 60.831L9.1532 55.2631L9.49151 56.0944C9.04421 56.0597 8.6494 56.1166 8.30706 56.2651C7.96576 56.4058 7.69094 56.6237 7.48258 56.919C7.26733 57.2054 7.13149 57.5627 7.07506 57.991C7.0155 58.4431 7.05446 58.8517 7.19195 59.2168C7.33048 59.5739 7.55377 59.8696 7.86181 60.1039C8.16192 60.3371 8.53802 60.4834 8.99011 60.543C9.4898 60.6088 9.93669 60.5548 10.3308 60.3807C10.7259 60.1988 11.0498 59.9147 11.3025 59.5284C11.5482 59.1331 11.7087 58.6499 11.7839 58.0788C11.8519 57.5633 11.842 57.0254 11.7545 56.4652C11.659 55.9039 11.4917 55.3977 11.2525 54.9466L12.3709 55.0939C12.6338 55.5482 12.8173 56.0847 12.9213 56.7036C13.0264 57.3146 13.0387 57.9254 12.9583 58.5362Z" fill="white"/>
<path d="M13.0294 45.9917C13.5437 46.2271 13.957 46.5787 14.2693 47.0463C14.5738 47.5118 14.7619 48.047 14.8333 48.652C14.9047 49.2571 14.8429 49.8895 14.6479 50.5493C14.4257 51.3012 14.0877 51.9228 13.6338 52.4143C13.1744 52.8959 12.6401 53.2218 12.0309 53.3921C11.4216 53.5624 10.7794 53.5478 10.1043 53.3483C9.42918 53.1488 8.88222 52.8119 8.46343 52.3378C8.04465 51.8636 7.77722 51.3008 7.66115 50.6491C7.53967 49.9876 7.59004 49.2809 7.81225 48.529C8.00725 47.8692 8.29919 47.3048 8.68807 46.8358C9.07695 46.3668 9.52955 46.0209 10.0459 45.7981C10.5545 45.5731 11.0925 45.5027 11.6599 45.5869L11.2144 47.0945C10.6916 47.0568 10.2321 47.2004 9.83569 47.5254C9.43932 47.8504 9.15611 48.3005 8.98605 48.8759C8.85001 49.3363 8.82303 49.7662 8.90512 50.1659C8.97954 50.5633 9.15719 50.9078 9.43807 51.1993C9.71355 51.481 10.0853 51.6909 10.5533 51.8292C11.0136 51.9653 11.4397 51.9911 11.8317 51.9068C12.226 51.8147 12.5662 51.6233 12.8523 51.3325C13.1308 51.0394 13.3381 50.6627 13.4741 50.2024C13.6465 49.6193 13.6508 49.0825 13.4871 48.592C13.3234 48.1015 13.0223 47.7372 12.5838 47.4992L13.0294 45.9917Z" fill="white"/>
<path d="M11.1303 41.4908L11.7858 40.0753L17.459 42.7025L16.8035 44.1181L11.1303 41.4908ZM9.45522 43.8228L12.4808 37.2894L13.5915 37.8038L10.5659 44.3372L9.45522 43.8228Z" fill="white"/>
<path d="M18.9908 39.5183L13.2739 35.8512L14.1161 34.5381L19.4695 37.972L18.5654 38.0479L20.1333 35.6035C20.3622 35.2466 20.4539 34.911 20.4084 34.5967C20.3562 34.2781 20.1752 34.0194 19.8654 33.8207C19.549 33.6177 19.2384 33.5611 18.9337 33.6508C18.6223 33.7362 18.3522 33.9573 18.1233 34.3142L16.5813 36.7182L15.6419 36.1156L17.294 33.5399C17.5921 33.0753 17.9354 32.7253 18.324 32.4898C18.7059 32.2501 19.1055 32.131 19.5227 32.1325C19.9375 32.1229 20.3402 32.2434 20.7308 32.4939C21.1213 32.7444 21.4021 33.0623 21.5731 33.4477C21.7485 33.8263 21.8068 34.2391 21.7482 34.6862C21.6895 35.1333 21.5133 35.5858 21.2196 36.0437L18.9908 39.5183Z" fill="white"/>
<path d="M26.2074 29.1027L21.7849 23.9478L22.9689 22.932L26.9148 27.5314L26.2457 27.4887L29.5245 24.6758L29.6288 25.2029L25.683 20.6036L26.867 19.5878L30.8128 24.1872L30.2166 24.082L33.5865 21.191L33.5269 21.8587L29.5811 17.2594L30.7651 16.2436L35.1875 21.3985L26.2074 29.1027Z" fill="white"/>
<path d="M39.9628 18.9525C39.2707 19.3376 38.5836 19.5506 37.9014 19.5914C37.2153 19.6253 36.5881 19.4937 36.0199 19.1964C35.4517 18.8992 34.9945 18.4395 34.6483 17.8174C34.306 17.2022 34.1498 16.5842 34.1796 15.9633C34.2126 15.3316 34.4123 14.7444 34.7787 14.2018C35.1482 13.6483 35.665 13.1868 36.3291 12.8172C36.9932 12.4477 37.65 12.279 38.2997 12.3112C38.9524 12.3325 39.5613 12.5384 40.1265 12.9288C40.6917 13.3193 41.1765 13.878 41.5811 14.605L35.9921 17.7151L35.4144 16.677L40.3218 13.9462L39.8561 14.7135C39.6173 14.3337 39.3362 14.0506 39.0129 13.8644C38.6965 13.6742 38.3576 13.5835 37.9963 13.5923C37.6381 13.5902 37.2703 13.6942 36.8928 13.9043C36.4943 14.126 36.1895 14.4009 35.9784 14.7289C35.7743 15.0531 35.67 15.4087 35.6656 15.7956C35.6573 16.1756 35.764 16.5648 35.9858 16.9633C36.2308 17.4037 36.5407 17.7302 36.9154 17.9429C37.297 18.1516 37.7182 18.2423 38.179 18.2147C38.6429 18.1763 39.1265 18.0171 39.6298 17.737C40.0842 17.4842 40.5101 17.1556 40.9077 16.7513C41.3014 16.34 41.608 15.9038 41.8276 15.4429L42.3761 16.4286C42.1682 16.9105 41.8468 17.3777 41.412 17.8302C40.9841 18.2789 40.5011 18.6529 39.9628 18.9525Z" fill="white"/>
<path d="M49.7043 11.6522C49.824 12.205 49.7903 12.7466 49.603 13.2768C49.4129 13.7996 49.0971 14.2708 48.6555 14.6906C48.214 15.1104 47.6707 15.4399 47.0256 15.6792C46.2906 15.9518 45.5903 16.0538 44.9248 15.9849C44.264 15.9058 43.6829 15.6734 43.1815 15.2877C42.68 14.902 42.3069 14.3791 42.062 13.7191C41.8172 13.059 41.7591 12.4193 41.8877 11.7999C42.0163 11.1805 42.3067 10.6291 42.7588 10.1457C43.2156 9.65201 43.8115 9.26883 44.5466 8.99616C45.1916 8.75688 45.8184 8.65237 46.4269 8.68263C47.0354 8.71288 47.5836 8.86792 48.0713 9.14775C48.5563 9.42008 48.9351 9.8086 49.2076 10.3133L47.7338 10.86C47.4507 10.419 47.0603 10.1371 46.5626 10.0146C46.0649 9.89202 45.5348 9.93508 44.9723 10.1438C44.5222 10.3107 44.1618 10.5468 43.8911 10.852C43.6175 11.1497 43.4482 11.4984 43.3831 11.8979C43.3228 12.2872 43.3774 12.7107 43.5472 13.1682C43.7141 13.6182 43.9488 13.9749 44.2512 14.2381C44.5612 14.4986 44.9183 14.6562 45.3226 14.711C45.7241 14.7583 46.1499 14.6985 46.5999 14.5316C47.17 14.3201 47.6023 14.0019 47.8969 13.5769C48.1914 13.1519 48.3026 12.6926 48.2304 12.1989L49.7043 11.6522Z" fill="white"/>
<path d="M52.2604 7.3873L53.7869 7.06581L55.0753 13.1836L53.5488 13.5051L52.2604 7.3873ZM49.3896 7.44004L56.4351 5.95626L56.6873 7.15398L49.6419 8.63776L49.3896 7.44004Z" fill="white"/>
<path d="M58.7043 12.4688L58.2331 5.69317L59.7893 5.58493L60.2306 11.9296L59.63 11.2496L62.527 11.0481C62.95 11.0187 63.2739 10.8919 63.4989 10.6678C63.7234 10.4357 63.8228 10.136 63.7973 9.76893C63.7712 9.39383 63.6312 9.11086 63.3774 8.92002C63.123 8.72119 62.7843 8.63649 62.3613 8.6659L59.5122 8.86407L59.4347 7.75076L62.4874 7.53844C63.038 7.50014 63.5238 7.56659 63.9447 7.7378C64.365 7.90103 64.6992 8.15045 64.947 8.48606C65.2023 8.81313 65.3461 9.20811 65.3783 9.67099C65.4105 10.1339 65.3231 10.5489 65.1161 10.9162C64.917 11.2829 64.6207 11.5762 64.227 11.796C63.8333 12.0158 63.3651 12.1446 62.8224 12.1824L58.7043 12.4688Z" fill="white"/>
</svg>
