<svg width="177" height="176" viewBox="0 0 177 176" fill="none" xmlns="http://www.w3.org/2000/svg">
<path d="M10.5346 81.0342C10.3205 83.0834 9.64121 84.5962 8.49672 85.5726C7.35224 86.549 5.80166 86.9349 3.84497 86.7305L0.136527 86.3431L0.410005 83.7254L3.92014 84.0921C5.20256 84.2261 6.21819 83.9713 6.96704 83.3278C7.70267 82.683 8.14299 81.6664 8.28802 80.2782C8.37089 79.485 8.36536 78.6424 8.27143 77.7505C8.16428 76.8572 7.98372 75.9629 7.72975 75.0677L9.87034 75.1109C10.189 76.0263 10.4083 76.9981 10.528 78.0264C10.636 79.04 10.6382 80.0426 10.5346 81.0342ZM16.2158 76.3552L1.34232 74.8013L1.61579 72.1836L16.4892 73.7374L16.2158 76.3552Z" fill="#3F3D3F"/>
<path d="M16.8766 71.2593L2.76051 66.3227L3.60302 63.9136L16.5522 68.4421L16.1054 69.2364L6.74929 54.9169L7.88141 51.6797L21.9975 56.6163L21.155 59.0254L8.0929 54.4574L8.53967 53.6631L17.9824 68.0973L16.8766 71.2593Z" fill="#3F3D3F"/>
<path d="M22.8004 54.9654L10.2427 46.8452L11.6285 44.702L23.1482 52.1509L22.527 52.8178L16.8038 36.6986L18.666 33.8187L31.2237 41.9388L29.8379 44.082L18.2178 36.5682L18.8389 35.9013L24.6193 52.1524L22.8004 54.9654Z" fill="#3F3D3F"/>
<path d="M32.497 40.4017L22.2344 29.5245L24.0908 27.773L33.505 37.7511L32.7429 38.2508L31.0232 21.2324L33.5177 18.8788L43.7803 29.756L41.9239 31.5075L32.4276 21.4425L33.1897 20.9427L34.9335 38.1029L32.497 40.4017Z" fill="#3F3D3F"/>
<path d="M51.1277 25.6176C49.8601 26.3727 48.6435 26.8499 47.478 27.0491C46.3124 27.2483 45.2606 27.1709 44.3224 26.8169C43.3843 26.4629 42.618 25.8518 42.0234 24.9836L44.2846 23.6366C44.909 24.425 45.7147 24.8425 46.7017 24.8889C47.6933 24.9171 48.8115 24.5605 50.0562 23.8189C51.2553 23.1046 52.0772 22.3674 52.5219 21.6074C52.9712 20.8292 52.9747 20.0689 52.5325 19.3266C52.1583 18.6985 51.6053 18.3936 50.8735 18.4118C50.1416 18.43 49.1705 18.7996 47.9599 19.5208L45.3904 21.0515L44.4414 19.4584L46.9595 17.9583C47.679 17.5297 48.2218 17.0903 48.588 16.6401C48.9541 16.1898 49.163 15.7482 49.2145 15.3152C49.2592 14.8708 49.1727 14.4659 48.955 14.1005C48.6897 13.6551 48.3225 13.3633 47.8533 13.225C47.3955 13.08 46.8621 13.0806 46.2529 13.2268C45.6438 13.3731 44.9966 13.6503 44.3114 14.0585C43.1694 14.7388 42.3885 15.5057 41.9686 16.3593C41.5487 17.2129 41.5107 18.071 41.8545 18.9339L39.6104 20.2707C39.2073 19.4122 39.0632 18.5079 39.1779 17.5576C39.304 16.6005 39.7116 15.6614 40.4007 14.7403C41.0944 13.801 42.0751 12.9537 43.3427 12.1986C44.4847 11.5183 45.5644 11.084 46.5817 10.8957C47.6037 10.6892 48.5029 10.7183 49.2795 10.9829C50.0606 11.2293 50.6587 11.7008 51.0737 12.3974C51.4275 12.9912 51.5736 13.6391 51.5121 14.3411C51.4506 15.043 51.1509 15.7477 50.6129 16.455C50.075 17.1622 49.2692 17.8356 48.1958 18.4751L48.0019 18.1497C49.0367 17.4713 50.0047 17.0184 50.9059 16.791C51.8003 16.5522 52.5892 16.5387 53.2724 16.7506C53.9671 16.9557 54.5185 17.4008 54.9267 18.086C55.3893 18.8626 55.5543 19.6849 55.4216 20.5531C55.3003 21.4144 54.8815 22.2828 54.1652 23.1582C53.4421 24.0222 52.4296 24.842 51.1277 25.6176Z" fill="#3F3D3F"/>
<path d="M76.6048 9.66924C76.7825 10.8865 76.6357 12.0435 76.1644 13.1404C75.7026 14.2211 74.9704 15.1589 73.9679 15.9538C72.9653 16.7488 71.7369 17.3345 70.2828 17.7108C68.6613 18.1305 67.1577 18.1832 65.772 17.869C64.3862 17.5549 63.2075 16.9263 62.2357 15.9832C61.2605 15.0273 60.5798 13.8029 60.1934 12.3101C59.8071 10.8173 59.8101 9.4229 60.2024 8.12679C60.5913 6.81782 61.3155 5.68985 62.3748 4.74288C63.4341 3.79591 64.7745 3.11259 66.396 2.69295C67.8502 2.3166 69.2084 2.23282 70.4708 2.44161C71.7331 2.65041 72.8283 3.11529 73.7564 3.83625C74.6973 4.55389 75.387 5.49445 75.8254 6.65795L73.2581 7.32239C72.9167 6.5869 72.4363 6.00409 71.817 5.57396C71.2105 5.1405 70.4957 4.87237 69.6727 4.76956C68.8464 4.65388 67.9442 4.7226 66.9662 4.97572C65.8338 5.26881 64.9043 5.73593 64.1777 6.37708C63.464 7.01491 62.9835 7.7846 62.7363 8.68617C62.489 9.58773 62.5036 10.5726 62.7801 11.6407C63.0565 12.7088 63.5215 13.5771 64.1751 14.2455C64.8286 14.9139 65.6222 15.3539 66.5557 15.5654C67.5021 15.7736 68.5415 15.7311 69.6739 15.438C70.652 15.1849 71.4759 14.8138 72.1457 14.3246C72.8155 13.8355 73.3104 13.2543 73.6304 12.581C73.96 11.8916 74.0957 11.1424 74.0374 10.3337L76.6048 9.66924Z" fill="#3F3D3F"/>
<path d="M83.3631 1.62748L85.9931 1.52593L86.5232 15.2538L83.8932 15.3553L83.3631 1.62748ZM77.1396 0.650581L92.1227 0.0720496L92.212 2.38327L77.2289 2.96181L77.1396 0.650581Z" fill="#3F3D3F"/>
<path d="M96.9945 15.7526L100.089 12.0148L100.128 12.0212L108.041 2.4024L110.875 2.86461L99.8283 16.2148L96.9945 15.7526ZM99.8464 13.8743L94.5608 0.203654L97.434 0.672291L101.896 12.2085L99.8464 13.8743Z" fill="#3F3D3F"/>
<path d="M105.737 19.8519L107.834 14.8936L110.001 15.8101L111.418 16.4527L121.665 20.7869L122.25 20.9909L125.666 22.4357L123.568 27.394L121.31 26.4386L122.506 23.6105L109.192 17.9792L107.996 20.8072L105.737 19.8519ZM115.789 4.53234L128.166 9.76754L122.737 22.604L120.313 21.5787L125.307 9.77064L125.943 11.3385L116.192 7.21406L117.565 6.88551C117.341 7.58475 117.102 8.2701 116.846 8.94156C116.591 9.61303 116.339 10.2426 116.091 10.8302C115.438 12.3728 114.772 13.6423 114.09 14.6387C113.409 15.6351 112.733 16.3304 112.061 16.7245C111.389 17.1187 110.747 17.1863 110.135 16.9274L109.49 15.6371C110.3 15.258 111.074 14.5535 111.812 13.5237C112.563 12.499 113.304 11.1236 114.034 9.39738C114.35 8.65058 114.654 7.86281 114.947 7.03407C115.24 6.20534 115.52 5.37143 115.789 4.53234Z" fill="#3F3D3F"/>
<path d="M125.646 25.288L134.705 13.3902L136.736 14.9364L128.425 25.8506L127.808 25.1801L144.319 20.7104L147.047 22.788L137.988 34.6858L135.957 33.1396L144.34 22.1302L144.957 22.8007L128.311 27.3173L125.646 25.288Z" fill="#3F3D3F"/>
<path d="M152.607 39.5762L151.115 40.8377L146.867 35.8127L146.885 35.7717C146.207 34.9697 145.753 34.1441 145.522 33.2947C145.3 32.4555 145.297 31.6487 145.513 30.8745C145.737 30.1104 146.189 29.4409 146.869 28.8659C147.549 28.291 148.285 27.9564 149.076 27.8623C149.885 27.7698 150.685 27.9029 151.476 28.2616C152.285 28.6218 153.029 29.2029 153.707 30.0048L159.139 36.4308L147.718 46.0851L146.019 44.0751L156.831 34.9357L156.692 36.5935L152.392 31.5076C151.8 30.8072 151.16 30.3998 150.471 30.2855C149.792 30.1814 149.157 30.3782 148.569 30.8759C147.98 31.3737 147.675 31.9707 147.654 32.6669C147.653 33.3648 147.948 34.0639 148.54 34.7644L152.607 39.5762ZM149.755 37.6535L140.69 37.771L138.669 35.3803L147.785 35.3237L149.755 37.6535Z" fill="#3F3D3F"/>
<path d="M148.077 51.4659L153.035 49.3687L153.952 51.5356L154.521 52.9836L158.855 63.2307L159.132 63.7845L160.577 67.2002L155.619 69.2974L154.663 67.0386L157.491 65.8424L151.86 52.5285L149.032 53.7246L148.077 51.4659ZM165.959 47.4742L171.195 59.8516L158.358 65.281L157.333 62.857L169.141 57.8626L168.505 59.4304L164.381 49.6791L165.595 50.3996C164.947 50.7457 164.298 51.0707 163.647 51.3748C162.997 51.6789 162.377 51.9553 161.79 52.2038C160.247 52.8563 158.885 53.3028 157.702 53.5432C156.519 53.7837 155.549 53.8114 154.793 53.6263C154.036 53.4412 153.528 53.0426 153.269 52.4304L153.705 51.0553C154.55 51.3474 155.596 51.3811 156.844 51.1566C158.096 50.9444 159.586 50.4732 161.312 49.7431C162.059 49.4272 162.826 49.0739 163.613 48.6832C164.4 48.2924 165.182 47.8895 165.959 47.4742Z" fill="#3F3D3F"/>
<path d="M158.545 69.1122L173.331 66.8747L173.713 69.3981L160.15 71.4507L160.173 70.5396L175.139 78.8218L175.653 82.2127L160.866 84.4502L160.485 81.9267L174.167 79.8563L174.143 80.7673L159.047 72.4242L158.545 69.1122Z" fill="#3F3D3F"/>
<path d="M160.074 93.0282C160.182 91.5567 160.489 90.2863 160.994 89.2171C161.499 88.1479 162.165 87.3305 162.993 86.7648C163.821 86.1992 164.761 85.9217 165.813 85.9323L165.621 88.5572C164.617 88.6168 163.813 89.0376 163.209 89.8196C162.617 90.6158 162.268 91.7365 162.162 93.1815C162.06 94.5735 162.193 95.6695 162.56 96.4696C162.94 97.2839 163.561 97.7227 164.423 97.7859C165.152 97.8395 165.719 97.5612 166.124 96.9512C166.528 96.3411 166.782 95.3334 166.886 93.9282L167.105 90.9453L168.954 91.0811L168.739 94.0043C168.678 94.8395 168.727 95.5362 168.886 96.0943C169.045 96.6525 169.287 97.0768 169.612 97.3672C169.95 97.6586 170.332 97.8199 170.756 97.8511C171.273 97.889 171.723 97.7554 172.105 97.4503C172.486 97.1584 172.792 96.721 173.021 96.1381C173.25 95.5551 173.394 94.8659 173.453 94.0705C173.55 92.7448 173.369 91.6652 172.911 90.8319C172.452 89.9985 171.771 89.4753 170.867 89.2623L171.058 86.6573C171.993 86.8192 172.816 87.2195 173.529 87.8583C174.241 88.5104 174.777 89.3828 175.136 90.4754C175.508 91.5824 175.64 92.8716 175.532 94.3431C175.435 95.6688 175.171 96.8024 174.742 97.7439C174.326 98.6996 173.786 99.4198 173.124 99.9043C172.475 100.403 171.745 100.623 170.937 100.563C170.247 100.513 169.633 100.261 169.093 99.8082C168.553 99.3554 168.148 98.7058 167.876 97.8596C167.605 97.0133 167.516 95.9671 167.607 94.7209L167.985 94.7486C167.947 95.9854 167.763 97.0382 167.433 97.907C167.116 98.7767 166.675 99.4307 166.109 99.8691C165.543 100.321 164.862 100.517 164.067 100.459C163.165 100.393 162.397 100.056 161.762 99.4499C161.126 98.8567 160.654 98.0157 160.348 96.9269C160.054 95.8391 159.963 94.5395 160.074 93.0282Z" fill="#3F3D3F"/>
<path d="M162.292 104.55L164.376 105.166L161.415 115.186L159.33 114.57L162.292 104.55ZM171.377 114.471L155.002 117.116L155.798 114.42L171.031 112.123L170.743 113.098L159.206 102.89L160.003 100.193L172.31 111.316L171.377 114.471Z" fill="#3F3D3F"/>
<path d="M154.936 116.908L167.922 124.324L166.656 126.54L154.744 119.737L155.327 119.037L161.93 134.816L160.229 137.795L147.243 130.379L148.509 128.163L160.525 135.025L159.942 135.725L153.274 119.817L154.936 116.908ZM170.003 129.324L168.935 131.194C168.424 131.07 167.958 131.095 167.538 131.268C167.123 131.46 166.773 131.804 166.49 132.3C166.2 132.808 166.081 133.284 166.134 133.727C166.198 134.177 166.414 134.591 166.78 134.968L165.712 136.838C164.901 136.115 164.455 135.286 164.376 134.353C164.308 133.427 164.551 132.479 165.105 131.509C165.658 130.539 166.351 129.848 167.184 129.436C168.028 129.03 168.968 128.993 170.003 129.324Z" fill="#3F3D3F"/>
<path d="M157.241 141.841L155.449 143.769L144.497 133.585L146.289 131.658L157.241 141.841ZM148.959 150.748L147.166 152.676L136.215 142.493L138.007 140.565L148.959 150.748ZM151.692 138.615L143.518 147.405L141.824 145.83L149.998 137.04L151.692 138.615Z" fill="#3F3D3F"/>
<path d="M135.066 147.68L136.292 149.474L127.667 155.37L126.44 153.576L135.066 147.68ZM135.842 161.11L121.476 152.815L123.797 151.229L137.057 159.071L136.217 159.645L133.723 144.443L136.044 142.857L138.558 159.253L135.842 161.11Z" fill="#3F3D3F"/>
<path d="M114.01 155.643L113.006 160.391L112.968 160.403L110.428 172.597L107.704 173.504L111.286 156.55L114.01 155.643ZM112.357 158.631L123.387 168.283L120.625 169.202L111.316 161.058L112.357 158.631Z" fill="#3F3D3F"/>
<path d="M90.1908 175.577L88.6369 160.704L91.2348 160.432L92.6706 174.175L91.3564 173.11L103.156 171.877L102.09 173.191L100.655 159.448L103.272 159.175L104.826 174.048L90.1908 175.577Z" fill="#3F3D3F"/>
<path d="M83.5171 163.837L83.2498 165.994L72.881 164.709L73.1483 162.552L83.5171 163.837ZM75.2134 174.421L69.9292 158.697L72.7193 159.043L77.4731 173.696L76.4639 173.571L84.6513 160.522L87.4414 160.868L78.4784 174.825L75.2134 174.421Z" fill="#3F3D3F"/>
<path d="M70.2344 158.497L65.2978 172.613L62.8134 171.744L67.0194 159.718L67.6077 160.451L54.1179 168.703L51.4264 167.762L68.0135 157.721L70.2344 158.497ZM61.0337 163.243L58.6843 164.344L56.156 153.574L58.998 154.568L61.0337 163.243Z" fill="#3F3D3F"/>
<path d="M49.8248 149.214C51.267 150.117 52.3618 151.187 53.1091 152.423C53.8564 153.659 54.2274 154.958 54.2222 156.319C54.21 157.691 53.7947 159.031 52.9766 160.338C52.1584 161.645 51.1383 162.598 49.9162 163.198C48.6871 163.808 47.3533 164.047 45.9147 163.915C44.4762 163.783 43.0358 163.266 41.5936 162.363C40.1514 161.46 39.0567 160.391 38.3094 159.154C37.5621 157.918 37.1945 156.614 37.2068 155.241C37.212 153.88 37.6237 152.546 38.4419 151.239C39.2601 149.932 40.2837 148.973 41.5128 148.363C42.7349 147.763 44.0652 147.53 45.5037 147.662C46.9422 147.794 48.3826 148.311 49.8248 149.214ZM48.5764 151.208C47.5511 150.567 46.5502 150.199 45.5738 150.105C44.5974 150.011 43.6913 150.181 42.8554 150.615C42.0083 151.041 41.292 151.722 40.7066 152.657C40.1212 153.592 39.8218 154.534 39.8084 155.482C39.7838 156.423 40.0269 157.313 40.5378 158.15C41.0487 158.987 41.8167 159.727 42.8421 160.369C43.8561 161.004 44.857 161.371 45.8446 161.472C46.821 161.566 47.7328 161.399 48.5799 160.973C49.4158 160.54 50.1264 159.855 50.7118 158.92C51.2973 157.985 51.6023 157.047 51.6269 156.106C51.6403 155.157 51.3915 154.265 50.8807 153.427C50.3585 152.583 49.5904 151.843 48.5764 151.208Z" fill="#3F3D3F"/>
<path d="M30.0536 142.99L29.4614 143.216C28.6342 142.37 28.0797 141.562 27.7977 140.791C27.5063 140.011 27.4452 139.292 27.6144 138.634C27.7742 137.966 28.1126 137.374 28.6295 136.857C29.1935 136.293 29.828 135.931 30.5329 135.772C31.2285 135.602 31.9616 135.649 32.7324 135.912C33.4937 136.185 34.2598 136.707 35.0305 137.477L42.0801 144.527L35.8201 149.123L31.5058 155.101L24.71 148.306C23.7324 147.328 23.2108 146.346 23.145 145.359C23.0604 144.372 23.4176 143.479 24.2165 142.68C24.6395 142.257 25.1565 141.947 25.7674 141.75C26.3596 141.552 27.0222 141.538 27.7554 141.707C28.4698 141.876 29.2358 142.304 30.0536 142.99ZM39.6833 143.174L39.4295 144.865L33.7475 139.183C33.1648 138.601 32.582 138.281 31.9992 138.225C31.3977 138.168 30.8478 138.389 30.3496 138.887C29.8233 139.414 29.6071 140.015 29.7011 140.692C29.7857 141.359 30.1992 142.064 30.9418 142.807L35.524 147.389L34.0859 148.827L29.687 144.428C29.1888 143.93 28.6389 143.653 28.0374 143.597C27.4264 143.55 26.8625 143.785 26.3455 144.301C25.9601 144.687 25.7815 145.138 25.8097 145.655C25.8285 146.181 26.0964 146.703 26.6134 147.22L31.8441 152.451L30.1522 152.705L34.0295 147.333L39.6833 143.174Z" fill="#3F3D3F"/>
<path d="M30.6094 132.736L18.0517 140.856L16.6226 138.646L27.3218 131.727L27.3362 132.668L11.6205 130.91L10.0723 128.516L29.3319 130.76L30.6094 132.736ZM20.4319 130.84L17.9013 130.268L22.511 120.211L24.1458 122.74L20.4319 130.84Z" fill="#3F3D3F"/>
<path d="M22.568 120.252L8.52774 125.401L7.64909 123.004L20.5287 118.282L20.6878 119.179L4.36791 114.056L3.18724 110.836L17.2275 105.688L18.1061 108.084L5.11422 112.848L4.95508 111.951L21.4148 117.107L22.568 120.252Z" fill="#3F3D3F"/>
</svg>
