<svg width="361" height="361" viewBox="0 0 361 361" fill="none" xmlns="http://www.w3.org/2000/svg">
<path d="M22.8334 166.361C22.3942 170.564 21.0008 173.668 18.6531 175.67C16.3055 177.673 13.1247 178.465 9.111 178.046L1.50385 177.251L2.06484 171.881L9.26518 172.633C11.8958 172.908 13.9792 172.386 15.5153 171.066C17.0243 169.743 17.9275 167.658 18.225 164.81C18.395 163.183 18.3837 161.455 18.191 159.625C17.9712 157.793 17.6008 155.958 17.0799 154.122L21.4709 154.21C22.1246 156.088 22.5743 158.082 22.82 160.191C23.0414 162.27 23.0459 164.327 22.8334 166.361ZM34.4872 156.763L3.97729 153.575L4.53828 148.206L35.0482 151.393L34.4872 156.763Z" fill="#3F3D3F"/>
<path d="M35.7798 146.588L6.82342 136.461L8.55167 131.519L35.1143 140.809L34.1978 142.438L15.0056 113.064L17.328 106.424L46.2843 116.55L44.5561 121.492L17.7618 112.122L18.6782 110.492L38.0481 140.101L35.7798 146.588Z" fill="#3F3D3F"/>
<path d="M47.8035 113.426L22.0438 96.7689L24.8866 92.3726L48.5168 107.652L47.2427 109.02L35.5026 75.955L39.3225 70.0475L65.0823 86.7043L62.2395 91.1007L38.4032 75.6875L39.6773 74.3196L51.5347 107.656L47.8035 113.426Z" fill="#3F3D3F"/>
<path d="M67.5051 83.7781L46.4535 61.4656L50.2615 57.8728L69.5728 78.3408L68.0095 79.3659L64.482 44.4559L69.599 39.6281L90.6506 61.9405L86.8426 65.5333L67.3628 44.8869L68.9261 43.8618L72.5031 79.0625L67.5051 83.7781Z" fill="#3F3D3F"/>
<path d="M105.508 53.6137C102.908 55.1627 100.412 56.1416 98.0211 56.5502C95.6302 56.9589 93.4726 56.8001 91.5482 56.0739C89.6238 55.3476 88.0519 54.0941 86.8323 52.3132L91.4706 49.5501C92.7515 51.1675 94.4042 52.0238 96.4288 52.119C98.4628 52.1769 100.757 51.4453 103.31 49.9241C105.77 48.4589 107.456 46.9467 108.368 45.3877C109.289 43.7913 109.297 42.2317 108.39 40.709C107.622 39.4206 106.488 38.7951 104.986 38.8324C103.485 38.8698 101.493 39.6281 99.0098 41.1073L93.739 44.2472L91.7922 40.9793L96.9576 37.9022C98.4335 37.023 99.547 36.1217 100.298 35.1981C101.049 34.2746 101.478 33.3687 101.583 32.4805C101.675 31.5689 101.498 30.7383 101.051 29.9887C100.507 29.0751 99.7535 28.4765 98.791 28.1928C97.852 27.8953 96.7577 27.8965 95.5082 28.1965C94.2587 28.4965 92.9311 29.0652 91.5256 29.9025C89.183 31.298 87.581 32.8713 86.7197 34.6222C85.8584 36.3731 85.7804 38.1335 86.4856 39.9034L81.8824 42.6456C81.0556 40.8847 80.7598 39.0295 80.9951 37.0802C81.2538 35.117 82.09 33.1906 83.5035 31.3012C84.9265 29.3743 86.9382 27.6364 89.5384 26.0873C91.881 24.6918 94.0958 23.8009 96.1826 23.4147C98.279 22.9911 100.124 23.0507 101.717 23.5935C103.319 24.0989 104.546 25.0661 105.397 26.4951C106.123 27.7133 106.423 29.0423 106.296 30.4822C106.17 31.9221 105.555 33.3675 104.452 34.8184C103.348 36.2693 101.696 37.6506 99.4936 38.9624L99.0958 38.2948C101.219 36.9032 103.204 35.9742 105.053 35.5077C106.888 35.0178 108.506 34.9902 109.907 35.4248C111.332 35.8455 112.463 36.7587 113.301 38.1642C114.25 39.7572 114.588 41.4441 114.316 43.2249C114.067 44.9918 113.208 46.7731 111.739 48.5689C110.255 50.3412 108.178 52.0228 105.508 53.6137Z" fill="#3F3D3F"/>
<path d="M157.448 21.0329C157.813 23.5298 157.512 25.9033 156.545 28.1533C155.598 30.3701 154.096 32.2938 152.039 33.9245C149.983 35.5553 147.463 36.7566 144.48 37.5286C141.154 38.3895 138.069 38.4976 135.227 37.8532C132.384 37.2087 129.966 35.9192 127.973 33.9847C125.973 32.0238 124.576 29.5123 123.784 26.4501C122.991 23.388 122.997 20.5276 123.802 17.8689C124.6 15.1838 126.085 12.87 128.258 10.9274C130.431 8.98492 133.181 7.58325 136.507 6.72242C139.49 5.95041 142.276 5.77856 144.866 6.20686C147.455 6.63516 149.702 7.58877 151.605 9.06769C153.536 10.5398 154.95 12.4692 155.85 14.8558L150.583 16.2188C149.883 14.7101 148.898 13.5146 147.627 12.6322C146.383 11.7431 144.917 11.1931 143.229 10.9822C141.534 10.7449 139.683 10.8858 137.677 11.4051C135.354 12.0063 133.447 12.9645 131.957 14.2797C130.493 15.5881 129.507 17.1669 129 19.0163C128.493 20.8657 128.523 22.8859 129.09 25.0769C129.657 27.2679 130.611 29.049 131.951 30.4202C133.292 31.7913 134.92 32.6938 136.835 33.1277C138.776 33.5548 140.908 33.4677 143.231 32.8665C145.237 32.3472 146.927 31.5859 148.301 30.5825C149.675 29.5791 150.691 28.3869 151.347 27.0058C152.023 25.5916 152.301 24.0549 152.182 22.3959L157.448 21.0329Z" fill="#3F3D3F"/>
<path d="M171.05 4.57513L176.445 4.36682L177.533 32.5268L172.138 32.7351L171.05 4.57513ZM158.284 2.57123L189.019 1.38448L189.202 6.1255L158.467 7.31225L158.284 2.57123Z" fill="#3F3D3F"/>
<path d="M198.766 33.5348L205.114 25.8674L205.195 25.8806L221.426 6.14947L227.239 7.09762L204.579 34.483L198.766 33.5348ZM204.617 29.6818L193.774 1.63919L199.668 2.6005L208.821 26.2648L204.617 29.6818Z" fill="#3F3D3F"/>
<path d="M216.419 41.8626L220.721 31.6917L225.166 33.5718L228.072 34.8899L249.092 43.7806L250.292 44.1992L257.298 47.1628L252.996 57.3338L248.363 55.374L250.817 49.5728L223.506 38.0212L221.052 43.8224L216.419 41.8626ZM237.038 10.4377L262.428 21.1767L251.29 47.5082L246.318 45.405L256.563 21.183L257.867 24.3992L237.864 15.9387L240.68 15.2647C240.222 16.6991 239.731 18.105 239.207 19.4823C238.684 20.8597 238.167 22.1511 237.658 23.3566C236.319 26.5209 234.951 29.125 233.554 31.1689C232.157 33.2128 230.769 34.639 229.39 35.4476C228.012 36.2561 226.695 36.3949 225.44 35.8638L224.117 33.2169C225.778 32.4392 227.366 30.9942 228.881 28.8817C230.422 26.7798 231.941 23.9584 233.438 20.4174C234.086 18.8854 234.711 17.2695 235.311 15.5695C235.912 13.8695 236.487 12.1589 237.038 10.4377Z" fill="#3F3D3F"/>
<path d="M256.992 52.8591L275.576 28.4532L279.741 31.6248L262.693 54.0132L261.427 52.6378L295.296 43.4691L300.893 47.731L282.309 72.1369L278.144 68.9653L295.34 46.3816L296.606 47.757L262.459 57.0219L256.992 52.8591Z" fill="#3F3D3F"/>
<path d="M312.104 81.9845L309.043 84.5722L300.33 74.2644L300.366 74.1804C298.975 72.5353 298.043 70.8416 297.57 69.0992C297.114 67.3777 297.108 65.7229 297.551 64.1347C298.011 62.5673 298.939 61.1939 300.334 60.0145C301.729 58.835 303.238 58.1488 304.86 57.9558C306.52 57.7661 308.161 58.039 309.783 58.7748C311.443 59.5137 312.969 60.7057 314.359 62.3508L325.502 75.5323L302.076 95.3363L298.59 91.2132L320.767 72.4654L320.482 75.8662L311.663 65.4334C310.448 63.9966 309.135 63.1609 307.723 62.9265C306.328 62.7129 305.027 63.1166 303.819 64.1376C302.612 65.1586 301.987 66.3832 301.944 67.8115C301.94 69.243 302.546 70.6771 303.76 72.114L312.104 81.9845ZM306.253 78.0404L287.658 78.2815L283.513 73.3775L302.213 73.2613L306.253 78.0404Z" fill="#3F3D3F"/>
<path d="M302.617 106.059L312.788 101.757L314.668 106.202L315.835 109.172L324.726 130.192L325.295 131.328L328.259 138.334L318.088 142.636L316.128 138.003L321.929 135.549L310.378 108.238L304.576 110.692L302.617 106.059ZM339.3 97.8706L350.039 123.26L323.707 134.398L321.604 129.425L345.826 119.18L344.522 122.396L336.061 102.393L338.551 103.871C337.223 104.581 335.892 105.248 334.557 105.872C333.222 106.496 331.952 107.062 330.746 107.572C327.582 108.911 324.787 109.827 322.361 110.32C319.934 110.813 317.945 110.87 316.393 110.49C314.841 110.111 313.799 109.293 313.268 108.037L314.162 105.216C315.896 105.815 318.042 105.885 320.601 105.424C323.17 104.989 326.225 104.022 329.766 102.525C331.298 101.877 332.871 101.152 334.486 100.35C336.101 99.5489 337.706 98.7223 339.3 97.8706Z" fill="#3F3D3F"/>
<path d="M324.008 141.961L354.339 137.372L355.122 142.548L327.299 146.758L327.347 144.89L358.047 161.879L359.1 168.835L328.769 173.424L327.986 168.248L356.052 164.001L356.004 165.87L325.036 148.755L324.008 141.961Z" fill="#3F3D3F"/>
<path d="M327.133 190.746C327.354 187.727 327.983 185.121 329.019 182.928C330.055 180.735 331.422 179.058 333.121 177.898C334.819 176.738 336.747 176.168 338.906 176.19L338.51 181.575C336.451 181.697 334.801 182.56 333.563 184.164C332.349 185.797 331.634 188.096 331.416 191.06C331.206 193.916 331.479 196.164 332.233 197.805C333.013 199.476 334.286 200.376 336.054 200.506C337.55 200.615 338.712 200.045 339.543 198.793C340.373 197.542 340.894 195.475 341.105 192.592L341.554 186.473L345.348 186.752L344.908 192.748C344.782 194.462 344.882 195.891 345.208 197.036C345.534 198.18 346.031 199.051 346.698 199.647C347.392 200.244 348.174 200.575 349.045 200.639C350.105 200.717 351.028 200.443 351.812 199.817C352.594 199.218 353.22 198.321 353.691 197.125C354.161 195.929 354.457 194.516 354.576 192.884C354.776 190.165 354.406 187.95 353.465 186.241C352.524 184.531 351.126 183.458 349.272 183.021L349.664 177.677C351.581 178.009 353.271 178.831 354.733 180.141C356.193 181.479 357.292 183.268 358.03 185.509C358.793 187.78 359.063 190.425 358.842 193.443C358.642 196.163 358.102 198.488 357.222 200.419C356.367 202.38 355.261 203.857 353.903 204.851C352.57 205.874 351.074 206.325 349.415 206.203C348.001 206.099 346.74 205.583 345.633 204.654C344.526 203.725 343.694 202.393 343.138 200.657C342.582 198.921 342.398 196.774 342.585 194.218L343.36 194.275C343.283 196.812 342.906 198.972 342.228 200.754C341.578 202.538 340.673 203.879 339.513 204.779C338.352 205.705 336.955 206.108 335.323 205.988C333.474 205.853 331.898 205.163 330.595 203.919C329.29 202.702 328.323 200.977 327.694 198.743C327.092 196.512 326.905 193.846 327.133 190.746Z" fill="#3F3D3F"/>
<path d="M331.729 214.122L336.005 215.386L329.93 235.939L325.655 234.676L331.729 214.122ZM350.367 234.473L316.775 239.899L318.41 234.368L349.657 229.657L349.066 231.657L325.4 210.716L327.035 205.186L352.279 228.001L350.367 234.473Z" fill="#3F3D3F"/>
<path d="M316.751 239.211L343.39 254.422L340.794 258.969L316.357 245.014L317.554 243.578L331.099 275.946L327.61 282.055L300.971 266.844L303.568 262.297L328.217 276.373L327.02 277.809L313.344 245.178L316.751 239.211ZM347.659 264.679L345.469 268.515C344.42 268.262 343.465 268.313 342.602 268.668C341.75 269.06 341.033 269.766 340.452 270.784C339.857 271.826 339.614 272.802 339.722 273.712C339.855 274.635 340.296 275.484 341.047 276.258L338.857 280.094C337.192 278.61 336.279 276.91 336.116 274.996C335.977 273.095 336.475 271.151 337.611 269.161C338.746 267.172 340.168 265.755 341.876 264.909C343.607 264.076 345.535 264 347.659 264.679Z" fill="#3F3D3F"/>
<path d="M321.647 290.129L317.97 294.082L295.506 273.194L299.182 269.24L321.647 290.129ZM304.657 308.4L300.981 312.354L278.516 291.465L282.192 287.511L304.657 308.4ZM310.264 283.51L293.497 301.542L290.023 298.311L306.79 280.279L310.264 283.51Z" fill="#3F3D3F"/>
<path d="M276.366 301.927L278.882 305.607L261.189 317.702L258.673 314.022L276.366 301.927ZM277.957 329.476L248.49 312.462L253.251 309.207L280.45 325.295L278.728 326.472L273.612 295.288L278.372 292.033L283.529 325.667L277.957 329.476Z" fill="#3F3D3F"/>
<path d="M233.48 318.111L231.42 327.849L231.342 327.875L226.133 352.888L220.544 354.748L227.892 319.971L233.48 318.111ZM230.089 324.24L252.716 344.038L247.05 345.925L227.953 329.219L230.089 324.24Z" fill="#3F3D3F"/>
<path d="M184.881 358.946L181.693 328.436L187.022 327.879L189.967 356.07L187.272 353.884L211.476 351.356L209.29 354.051L206.345 325.86L211.715 325.299L214.902 355.809L184.881 358.946Z" fill="#3F3D3F"/>
<path d="M171.469 334.865L170.921 339.29L149.651 336.653L150.2 332.229L171.469 334.865ZM154.436 356.576L143.596 324.322L149.32 325.031L159.071 355.09L157.001 354.833L173.796 328.065L179.519 328.774L161.133 357.406L154.436 356.576Z" fill="#3F3D3F"/>
<path d="M144.478 323.971L134.351 352.928L129.255 351.145L137.883 326.474L139.089 327.98L111.418 344.907L105.897 342.977L139.922 322.378L144.478 323.971ZM125.604 333.706L120.785 335.964L115.599 313.872L121.428 315.911L125.604 333.706Z" fill="#3F3D3F"/>
<path d="M102.858 305.047C105.817 306.899 108.062 309.093 109.595 311.629C111.128 314.165 111.889 316.829 111.879 319.621C111.853 322.436 111.002 325.184 109.323 327.865C107.645 330.546 105.552 332.502 103.046 333.731C100.524 334.984 97.7883 335.475 94.8375 335.204C91.8866 334.933 88.932 333.871 85.9736 332.019C83.0152 330.167 80.7695 327.974 79.2366 325.438C77.7036 322.902 76.9497 320.226 76.9749 317.411C76.9856 314.619 77.8301 311.882 79.5084 309.201C81.1867 306.52 83.2865 304.553 85.8078 303.301C88.3147 302.071 91.0435 301.592 93.9944 301.863C96.9452 302.134 99.8998 303.195 102.858 305.047ZM100.297 309.138C98.1941 307.822 96.141 307.067 94.1382 306.875C92.1353 306.683 90.2765 307.031 88.5619 307.92C86.8242 308.795 85.3549 310.191 84.154 312.109C82.9531 314.028 82.339 315.959 82.3116 317.905C82.261 319.835 82.7597 321.66 83.8077 323.377C84.8557 325.095 86.4313 326.612 88.5345 327.929C90.6146 329.231 92.6677 329.985 94.6937 330.192C96.6965 330.384 98.5668 330.043 100.305 329.168C102.019 328.279 103.477 326.876 104.678 324.957C105.879 323.039 106.504 321.114 106.555 319.184C106.582 317.239 106.072 315.407 105.024 313.69C103.953 311.957 102.377 310.44 100.297 309.138Z" fill="#3F3D3F"/>
<path d="M62.5191 292.453L61.3044 292.916C59.6077 291.181 58.4701 289.523 57.8917 287.942C57.2939 286.341 57.1686 284.866 57.5157 283.517C57.8435 282.148 58.5376 280.933 59.598 279.872C60.7549 278.716 62.0564 277.973 63.5024 277.645C64.9292 277.298 66.4332 277.395 68.0142 277.935C69.576 278.494 71.1474 279.564 72.7284 281.145L87.1892 295.606L74.348 305.034L65.498 317.297L51.5578 303.357C49.5526 301.352 48.4825 299.337 48.3475 297.312C48.174 295.288 48.9067 293.456 50.5456 291.817C51.4132 290.949 52.4737 290.313 53.7269 289.908C54.9417 289.503 56.301 289.474 57.8049 289.821C59.2703 290.169 60.8417 291.046 62.5191 292.453ZM82.2726 292.829L81.752 296.3L70.0966 284.644C68.9011 283.449 67.7057 282.794 66.5103 282.678C65.2763 282.562 64.1484 283.015 63.1265 284.037C62.0467 285.117 61.6033 286.351 61.7961 287.739C61.9696 289.108 62.818 290.554 64.3412 292.077L73.7407 301.477L70.7907 304.427L61.7671 295.403C60.7453 294.381 59.6173 293.813 58.3833 293.697C57.1301 293.601 55.9732 294.083 54.9127 295.143C54.1222 295.934 53.7559 296.859 53.8137 297.92C53.8523 298.999 54.4018 300.069 55.4622 301.13L66.1922 311.86L62.7216 312.38L70.675 301.361L82.2726 292.829Z" fill="#3F3D3F"/>
<path d="M63.8224 271.62L38.0627 288.277L35.1311 283.743L57.0784 269.551L57.1081 271.481L24.8704 267.875L21.6945 262.964L61.2017 267.567L63.8224 271.62ZM42.9452 267.731L37.7542 266.558L47.21 245.929L50.5635 251.115L42.9452 267.731Z" fill="#3F3D3F"/>
<path d="M47.449 246.257L18.6482 256.818L16.8458 251.903L43.2658 242.215L43.5922 244.056L10.1151 233.547L7.69319 226.942L36.494 216.381L38.2964 221.297L11.646 231.069L11.3196 229.228L45.0834 239.806L47.449 246.257Z" fill="#3F3D3F"/>
</svg>
