<svg width="203" height="203" viewBox="0 0 203 203" fill="none" xmlns="http://www.w3.org/2000/svg">
<path d="M12.8453 93.5672C12.5984 95.931 11.8148 97.676 10.4946 98.8022C9.17447 99.9285 7.38586 100.374 5.12881 100.138L0.851092 99.691L1.16655 96.6715L5.21552 97.0945C6.6948 97.249 7.86634 96.9552 8.73014 96.2129C9.57869 95.469 10.0866 94.2965 10.2539 92.6952C10.3495 91.7802 10.3431 90.8082 10.2348 89.7794C10.1112 88.749 9.90289 87.7174 9.60994 86.6847L12.0791 86.7346C12.4467 87.7905 12.6996 88.9115 12.8378 90.0976C12.9623 91.2669 12.9648 92.4234 12.8453 93.5672ZM19.3986 88.1699L2.24198 86.3775L2.55744 83.3579L19.7141 85.1503L19.3986 88.1699Z" fill="white"/>
<path d="M20.1257 82.4498L3.84268 76.7554L4.81453 73.9765L19.7515 79.2001L19.2361 80.1164L8.44377 63.5988L9.74969 59.8645L26.0327 65.5589L25.0608 68.3379L9.99364 63.0687L10.509 62.1524L21.4012 78.8025L20.1257 82.4498Z" fill="white"/>
<path d="M26.8861 63.8029L12.4007 54.4362L13.9992 51.9641L27.2872 60.5564L26.5707 61.3256L19.9689 42.732L22.117 39.41L36.6025 48.7766L35.0039 51.2488L21.6 42.5816L22.3165 41.8123L28.9843 60.5581L26.8861 63.8029Z" fill="white"/>
<path d="M37.9641 47.1323L26.1261 34.5854L28.2675 32.5651L39.1268 44.0748L38.2477 44.6512L36.2641 25.0203L39.1415 22.3055L50.9794 34.8525L48.8381 36.8728L37.884 25.2627L38.7631 24.6862L40.7746 44.4806L37.9641 47.1323Z" fill="white"/>
<path d="M59.3333 30.1706C57.8711 31.0416 56.4678 31.5921 55.1233 31.8219C53.7788 32.0516 52.5655 31.9624 51.4834 31.554C50.4012 31.1456 49.5173 30.4407 48.8315 29.4393L51.4397 27.8855C52.16 28.795 53.0894 29.2765 54.2279 29.3301C55.3717 29.3626 56.6615 28.9512 58.0974 28.0958C59.4805 27.2718 60.4286 26.4215 60.9415 25.5448C61.4597 24.6471 61.4638 23.7701 60.9537 22.9139C60.5221 22.1894 59.8842 21.8376 59.04 21.8586C58.1959 21.8796 57.0756 22.306 55.6792 23.1378L52.7153 24.9035L51.6206 23.0659L54.5253 21.3355C55.3552 20.8411 55.9813 20.3343 56.4037 19.8149C56.8261 19.2956 57.067 18.7862 57.1264 18.2867C57.178 17.7741 57.0782 17.307 56.8271 16.8855C56.5211 16.3718 56.0974 16.0351 55.5562 15.8757C55.0282 15.7083 54.4128 15.709 53.7102 15.8777C53.0075 16.0464 52.261 16.3662 51.4706 16.8371C50.1533 17.6218 49.2525 18.5065 48.7682 19.4911C48.2838 20.4756 48.24 21.4656 48.6365 22.4608L46.048 24.0029C45.5831 23.0126 45.4168 21.9695 45.5491 20.8733C45.6945 19.7693 46.1647 18.6861 46.9596 17.6236C47.7598 16.54 48.891 15.5627 50.3532 14.6917C51.6705 13.9069 52.9159 13.406 54.0895 13.1888C55.2683 12.9506 56.3056 12.9841 57.2013 13.2893C58.1024 13.5735 58.7923 14.1174 59.271 14.921C59.6791 15.606 59.8476 16.3533 59.7767 17.163C59.7058 17.9728 59.36 18.7855 58.7395 19.6014C58.119 20.4173 57.1895 21.194 55.9513 21.9317L55.7276 21.5563C56.9213 20.7738 58.038 20.2513 59.0775 19.989C60.1092 19.7135 61.0191 19.698 61.8072 19.9424C62.6085 20.179 63.2446 20.6925 63.7154 21.4828C64.2491 22.3786 64.4394 23.3272 64.2863 24.3286C64.1464 25.3222 63.6634 26.3239 62.8371 27.3337C62.003 28.3303 60.8351 29.276 59.3333 30.1706Z" fill="white"/>
<path d="M88.5392 11.85C88.7442 13.2541 88.5749 14.5887 88.0312 15.854C87.4985 17.1005 86.654 18.1823 85.4975 19.0993C84.341 20.0163 82.9241 20.6919 81.2467 21.126C79.3763 21.6101 77.6419 21.6709 76.0435 21.3085C74.445 20.9461 73.0853 20.221 71.9643 19.1332C70.8395 18.0305 70.0543 16.6182 69.6086 14.8962C69.163 13.1743 69.1664 11.5658 69.6189 10.0707C70.0676 8.56083 70.9029 7.2597 72.1248 6.16736C73.3468 5.07502 74.8929 4.28682 76.7633 3.80275C78.4407 3.36863 80.0075 3.27199 81.4636 3.51284C82.9197 3.75368 84.1831 4.28993 85.2536 5.12157C86.3389 5.94936 87.1345 7.03431 87.6402 8.37641L84.6788 9.14285C84.285 8.29445 83.7309 7.62218 83.0164 7.12602C82.3168 6.62603 81.4924 6.31673 80.5431 6.19814C79.5899 6.0647 78.5492 6.14397 77.4211 6.43595C76.1148 6.77403 75.0426 7.31285 74.2045 8.05243C73.3812 8.78817 72.827 9.67602 72.5418 10.716C72.2566 11.7559 72.2734 12.892 72.5923 14.124C72.9112 15.3561 73.4476 16.3577 74.2015 17.1287C74.9554 17.8997 75.8707 18.4072 76.9475 18.6512C78.0392 18.8914 79.2381 18.8424 80.5444 18.5043C81.6726 18.2123 82.623 17.7842 83.3956 17.22C84.1682 16.6557 84.7391 15.9853 85.1083 15.2087C85.4885 14.4134 85.645 13.5493 85.5778 12.6164L88.5392 11.85Z" fill="white"/>
<path d="M96.1869 2.5955L99.2207 2.47836L99.8321 18.3136L96.7984 18.4307L96.1869 2.5955ZM89.0081 1.46864L106.291 0.801299L106.394 3.46731L89.1111 4.13465L89.0081 1.46864Z" fill="white"/>
<path d="M111.772 18.8802L115.341 14.5686L115.387 14.576L124.514 3.48058L127.783 4.01375L115.041 19.4133L111.772 18.8802ZM115.062 16.7135L108.965 0.944316L112.279 1.48489L117.426 14.792L115.062 16.7135Z" fill="white"/>
<path d="M121.697 23.5629L124.116 17.8434L126.615 18.9007L128.25 19.6419L140.07 24.6414L140.745 24.8768L144.685 26.5433L142.265 32.2627L139.66 31.1607L141.04 27.8985L125.682 21.4027L124.302 24.6649L121.697 23.5629ZM133.291 5.89171L147.569 11.9305L141.306 26.7375L138.51 25.5549L144.271 11.9341L145.004 13.7427L133.756 8.98509L135.34 8.6061C135.082 9.41268 134.806 10.2032 134.512 10.9778C134.217 11.7523 133.927 12.4785 133.64 13.1564C132.887 14.9358 132.118 16.4001 131.332 17.5495C130.547 18.6988 129.766 19.5008 128.991 19.9555C128.216 20.4102 127.476 20.4882 126.77 20.1895L126.026 18.7011C126.96 18.2638 127.853 17.4512 128.705 16.2633C129.571 15.0814 130.425 13.4948 131.267 11.5036C131.632 10.6421 131.983 9.73342 132.321 8.77747C132.658 7.82152 132.982 6.8596 133.291 5.89171Z" fill="white"/>
<path d="M144.511 29.7457L154.961 16.0215L157.304 17.8051L147.717 30.3947L147.005 29.6213L166.05 24.4654L169.198 26.862L158.747 40.5862L156.405 38.8027L166.075 26.1032L166.787 26.8766L147.585 32.0866L144.511 29.7457Z" fill="white"/>
<path d="M175.502 46.1226L173.78 47.5778L168.88 41.7814L168.9 41.7342C168.118 40.8091 167.594 39.8567 167.328 38.8769C167.072 37.9088 167.069 36.9783 167.317 36.0852C167.576 35.2038 168.098 34.4315 168.883 33.7683C169.667 33.105 170.515 32.7192 171.428 32.6106C172.361 32.5039 173.284 32.6574 174.196 33.0711C175.13 33.4866 175.987 34.157 176.77 35.082L183.036 42.4944L169.862 53.6307L167.902 51.3122L180.373 40.7698L180.213 42.6821L175.253 36.8155C174.57 36.0075 173.832 35.5376 173.038 35.4058C172.253 35.2857 171.522 35.5127 170.843 36.0868C170.163 36.661 169.812 37.3496 169.788 38.1528C169.786 38.9577 170.126 39.7642 170.809 40.5722L175.502 46.1226ZM172.211 43.9048L161.755 44.0404L159.423 41.2827L169.939 41.2174L172.211 43.9048Z" fill="white"/>
<path d="M170.166 59.659L175.885 57.2399L176.942 59.7395L177.599 61.4097L182.598 73.2299L182.918 73.8686L184.585 77.8087L178.866 80.2278L177.763 77.6223L181.026 76.2425L174.53 60.8847L171.268 62.2645L170.166 59.659ZM190.794 55.0546L196.832 69.3321L182.025 75.5949L180.843 72.7987L194.463 67.0376L193.73 68.8462L188.972 57.598L190.373 58.4291C189.626 58.8282 188.877 59.2032 188.127 59.554C187.376 59.9048 186.662 60.2235 185.984 60.5102C184.204 61.2629 182.633 61.7779 181.268 62.0553C179.904 62.3327 178.785 62.3646 177.912 62.1511C177.04 61.9376 176.454 61.4777 176.155 60.7716L176.658 59.1855C177.633 59.5223 178.84 59.5612 180.279 59.3023C181.723 59.0575 183.441 58.514 185.433 57.6718C186.294 57.3074 187.179 56.8999 188.087 56.4492C188.995 55.9984 189.897 55.5336 190.794 55.0546Z" fill="white"/>
<path d="M182.194 79.8471L199.25 77.2661L199.69 80.177L184.044 82.5446L184.071 81.4937L201.335 91.0472L201.927 94.9587L184.871 97.5397L184.431 94.6288L200.213 92.2405L200.186 93.2914L182.772 83.6676L182.194 79.8471Z" fill="white"/>
<path d="M183.951 107.279C184.076 105.581 184.429 104.116 185.012 102.883C185.595 101.649 186.363 100.707 187.318 100.054C188.273 99.4015 189.358 99.0814 190.571 99.0937L190.349 102.122C189.191 102.19 188.264 102.676 187.567 103.578C186.885 104.496 186.482 105.789 186.36 107.456C186.242 109.061 186.395 110.326 186.819 111.249C187.258 112.188 187.974 112.694 188.968 112.767C189.809 112.829 190.463 112.508 190.93 111.804C191.396 111.1 191.689 109.938 191.808 108.317L192.061 104.876L194.194 105.033L193.947 108.405C193.876 109.368 193.932 110.172 194.116 110.816C194.299 111.459 194.578 111.949 194.953 112.284C195.344 112.62 195.784 112.806 196.273 112.842C196.869 112.886 197.388 112.732 197.829 112.38C198.269 112.043 198.621 111.539 198.886 110.866C199.15 110.194 199.316 109.399 199.384 108.481C199.496 106.952 199.288 105.707 198.759 104.745C198.229 103.784 197.444 103.181 196.401 102.935L196.621 99.9299C197.699 100.117 198.649 100.579 199.472 101.315C200.293 102.068 200.911 103.074 201.325 104.334C201.754 105.611 201.907 107.098 201.782 108.796C201.67 110.325 201.366 111.632 200.871 112.718C200.391 113.821 199.768 114.652 199.005 115.211C198.255 115.786 197.414 116.039 196.481 115.971C195.686 115.912 194.977 115.622 194.354 115.1C193.732 114.577 193.264 113.828 192.951 112.852C192.639 111.876 192.535 110.669 192.641 109.231L193.076 109.263C193.033 110.69 192.821 111.904 192.44 112.907C192.074 113.91 191.565 114.664 190.913 115.17C190.26 115.691 189.474 115.918 188.557 115.85C187.517 115.774 186.631 115.386 185.898 114.686C185.164 114.002 184.62 113.032 184.267 111.776C183.928 110.521 183.823 109.022 183.951 107.279Z" fill="white"/>
<path d="M186.536 120.423L188.94 121.133L185.524 132.691L183.12 131.98L186.536 120.423ZM197.016 131.866L178.127 134.918L179.046 131.808L196.618 129.158L196.285 130.283L182.977 118.507L183.896 115.397L198.092 128.227L197.016 131.866Z" fill="white"/>
<path d="M178.114 134.53L193.094 143.084L191.634 145.64L177.892 137.793L178.565 136.986L186.182 155.187L184.22 158.623L169.241 150.069L170.7 147.512L184.562 155.427L183.889 156.235L176.198 137.885L178.114 134.53ZM195.494 148.851L194.263 151.008C193.673 150.866 193.136 150.895 192.651 151.094C192.172 151.315 191.769 151.712 191.442 152.284C191.107 152.87 190.97 153.419 191.031 153.931C191.106 154.45 191.354 154.927 191.776 155.362L190.545 157.52C189.609 156.685 189.095 155.729 189.003 154.653C188.925 153.584 189.205 152.49 189.844 151.372C190.482 150.254 191.282 149.456 192.242 148.981C193.216 148.512 194.3 148.469 195.494 148.851Z" fill="white"/>
<path d="M180.868 163.161L178.801 165.385L166.168 153.638L168.235 151.415L180.868 163.161ZM171.314 173.436L169.247 175.659L156.614 163.913L158.682 161.69L171.314 173.436ZM174.467 159.44L165.039 169.579L163.085 167.763L172.513 157.623L174.467 159.44Z" fill="white"/>
<path d="M155.406 169.795L156.821 171.865L146.872 178.666L145.457 176.596L155.406 169.795ZM156.301 185.287L139.73 175.719L142.408 173.889L157.703 182.935L156.734 183.597L153.857 166.062L156.534 164.232L159.434 183.145L156.301 185.287Z" fill="white"/>
<path d="M131.291 178.895L130.133 184.371L130.089 184.386L127.16 198.451L124.017 199.497L128.149 179.941L131.291 178.895ZM129.384 182.342L142.108 193.475L138.922 194.535L128.183 185.141L129.384 182.342Z" fill="white"/>
<path d="M103.963 201.857L102.171 184.701L105.168 184.387L106.824 200.24L105.308 199.011L118.919 197.589L117.69 199.105L116.034 183.252L119.053 182.937L120.845 200.093L103.963 201.857Z" fill="white"/>
<path d="M96.4234 188.317L96.115 190.804L84.1545 189.322L84.4629 186.834L96.4234 188.317ZM86.8449 200.525L80.7496 182.388L83.968 182.786L89.4515 199.689L88.2874 199.545L97.7317 184.492L100.95 184.891L90.6111 200.992L86.8449 200.525Z" fill="white"/>
<path d="M81.2461 182.191L75.5517 198.474L72.6859 197.471L77.5375 183.598L78.2161 184.445L62.6556 193.964L59.5509 192.878L78.6843 181.295L81.2461 182.191ZM70.633 187.665L67.923 188.935L65.0065 176.511L68.2848 177.658L70.633 187.665Z" fill="white"/>
<path d="M57.8435 171.55C59.5071 172.591 60.7699 173.825 61.632 175.251C62.494 176.677 62.922 178.175 62.916 179.745C62.9018 181.328 62.4229 182.873 61.4791 184.381C60.5353 185.889 59.3586 186.988 57.9489 187.679C56.5312 188.384 54.9926 188.66 53.3332 188.507C51.6739 188.355 50.0124 187.758 48.3488 186.717C46.6852 185.675 45.4224 184.442 44.5604 183.016C43.6984 181.59 43.2744 180.085 43.2886 178.502C43.2946 176.932 43.7695 175.393 44.7132 173.885C45.657 172.378 46.8378 171.272 48.2556 170.567C49.6653 169.876 51.1998 169.607 52.8591 169.759C54.5185 169.911 56.1799 170.508 57.8435 171.55ZM56.4035 173.85C55.2208 173.11 54.0663 172.685 52.94 172.577C51.8137 172.469 50.7685 172.665 49.8043 173.165C48.8271 173.657 48.0009 174.442 47.3256 175.521C46.6503 176.599 46.305 177.686 46.2895 178.78C46.2611 179.865 46.5416 180.891 47.1309 181.857C47.7202 182.823 48.6062 183.676 49.7889 184.416C50.9586 185.149 52.1131 185.573 53.2524 185.689C54.3786 185.797 55.4304 185.605 56.4075 185.114C57.3717 184.614 58.1915 183.824 58.8667 182.746C59.542 181.667 59.8939 180.585 59.9223 179.499C59.9377 178.405 59.6508 177.375 59.0615 176.409C58.4592 175.435 57.5732 174.582 56.4035 173.85Z" fill="white"/>
<path d="M35.1602 164.468L34.4771 164.728C33.523 163.753 32.8833 162.82 32.5581 161.931C32.2219 161.031 32.1515 160.202 32.3466 159.443C32.5309 158.673 32.9213 157.99 33.5176 157.394C34.1681 156.743 34.9 156.326 35.7132 156.141C36.5155 155.946 37.3612 156 38.2503 156.304C39.1285 156.618 40.0121 157.22 40.9012 158.109L49.0329 166.241L41.812 171.543L36.8353 178.438L28.9964 170.6C27.8688 169.472 27.267 168.339 27.1911 167.2C27.0935 166.062 27.5055 165.032 28.4271 164.11C28.915 163.622 29.5114 163.265 30.2161 163.037C30.8992 162.809 31.6636 162.793 32.5093 162.988C33.3333 163.183 34.2169 163.677 35.1602 164.468ZM46.2681 164.68L45.9754 166.631L39.4212 160.077C38.749 159.405 38.0768 159.036 37.4046 158.971C36.7107 158.906 36.0764 159.161 35.5017 159.736C34.8946 160.343 34.6452 161.037 34.7536 161.817C34.8512 162.587 35.3283 163.4 36.1848 164.257L41.4704 169.542L39.8116 171.201L34.7374 166.127C34.1627 165.552 33.5284 165.233 32.8345 165.168C32.1298 165.113 31.4792 165.384 30.8829 165.981C30.4384 166.425 30.2324 166.946 30.2649 167.542C30.2866 168.149 30.5956 168.751 31.1919 169.347L37.2257 175.381L35.274 175.674L39.7465 169.477L46.2681 164.68Z" fill="white"/>
<path d="M35.8941 152.754L21.4086 162.121L19.7601 159.571L32.1017 151.591L32.1184 152.676L13.9902 150.648L12.2043 147.886L34.4204 150.475L35.8941 152.754ZM24.1542 150.567L21.2352 149.908L26.5524 138.307L28.4382 141.224L24.1542 150.567Z" fill="white"/>
<path d="M26.6871 138.493L10.4915 144.432L9.47802 141.668L24.3347 136.22L24.5183 137.255L5.69315 131.346L4.33123 127.632L20.5268 121.693L21.5403 124.457L6.55402 129.952L6.37046 128.917L25.3568 134.865L26.6871 138.493Z" fill="white"/>
</svg>
