<svg width="361" height="361" viewBox="0 0 361 361" fill="none" xmlns="http://www.w3.org/2000/svg">
<path d="M22.8334 166.361C22.3942 170.564 21.0008 173.667 18.6531 175.67C16.3055 177.673 13.1247 178.465 9.111 178.045L1.50385 177.251L2.06484 171.881L9.26518 172.633C11.8958 172.908 13.9792 172.385 15.5153 171.065C17.0243 169.743 17.9275 167.657 18.225 164.81C18.395 163.183 18.3837 161.454 18.191 159.625C17.9712 157.792 17.6008 155.958 17.0799 154.121L21.4709 154.21C22.1246 156.088 22.5743 158.081 22.82 160.191C23.0414 162.27 23.0459 164.327 22.8334 166.361ZM34.4872 156.762L3.97729 153.575L4.53828 148.205L35.0482 151.393L34.4872 156.762Z" fill="#3F3D3F"/>
<path d="M35.7807 146.588L6.82434 136.461L8.55259 131.519L35.1152 140.809L34.1988 142.438L15.0065 113.064L17.3289 106.424L46.2852 116.55L44.557 121.492L17.7627 112.122L18.6791 110.492L38.049 140.101L35.7807 146.588Z" fill="#3F3D3F"/>
<path d="M47.8039 113.426L22.0442 96.7689L24.8869 92.3726L48.5172 107.652L47.243 109.02L35.5029 75.955L39.3229 70.0475L65.0826 86.7043L62.2399 91.1007L38.4035 75.6875L39.6777 74.3196L51.5351 107.656L47.8039 113.426Z" fill="#3F3D3F"/>
<path d="M67.5055 83.7781L46.4539 61.4656L50.2619 57.8728L69.5732 78.3408L68.0099 79.3659L64.4823 44.4559L69.5993 39.6281L90.6509 61.9405L86.8429 65.5333L67.3632 44.8869L68.9265 43.8618L72.5035 79.0625L67.5055 83.7781Z" fill="#3F3D3F"/>
<path d="M105.509 53.6135C102.908 55.1625 100.413 56.1413 98.0217 56.55C95.6308 56.9586 93.4732 56.7999 91.5488 56.0736C89.6244 55.3474 88.0525 54.0938 86.8329 52.313L91.4712 49.5499C92.7521 51.1672 94.4048 52.0236 96.4294 52.1188C98.4634 52.1766 100.757 51.445 103.311 49.9239C105.77 48.4586 107.456 46.9464 108.368 45.3874C109.29 43.791 109.297 42.2315 108.39 40.7088C107.623 39.4204 106.488 38.7948 104.987 38.8322C103.486 38.8695 101.494 39.6278 99.0104 41.1071L93.7396 44.247L91.7928 40.9791L96.9582 37.902C98.4341 37.0228 99.5476 36.1214 100.299 35.1979C101.05 34.2743 101.478 33.3685 101.584 32.4803C101.676 31.5687 101.498 30.7381 101.052 29.9884C100.507 29.0748 99.7541 28.4762 98.7916 28.1926C97.8526 27.895 96.7583 27.8962 95.5088 28.1963C94.2593 28.4963 92.9317 29.065 91.5262 29.9023C89.1836 31.2978 87.5816 32.871 86.7203 34.6219C85.859 36.3728 85.781 38.1333 86.4862 39.9031L81.883 42.6453C81.0562 40.8844 80.7604 39.0293 80.9957 37.08C81.2544 35.1167 82.0906 33.1904 83.5041 31.3009C84.9271 29.3741 86.9388 27.6361 89.5391 26.0871C91.8816 24.6916 94.0964 23.8007 96.1833 23.4145C98.2796 22.9909 100.124 23.0505 101.717 23.5933C103.32 24.0987 104.546 25.0659 105.398 26.4949C106.123 27.713 106.423 29.0421 106.297 30.482C106.171 31.9219 105.556 33.3673 104.453 34.8182C103.349 36.269 101.696 37.6504 99.4942 38.9622L99.0964 38.2945C101.219 36.903 103.205 35.974 105.054 35.5075C106.888 35.0176 108.506 34.99 109.908 35.4246C111.333 35.8453 112.464 36.7584 113.301 38.164C114.25 39.7569 114.589 41.4438 114.316 43.2247C114.068 44.9915 113.209 46.7729 111.739 48.5686C110.256 50.341 108.179 52.0226 105.509 53.6135Z" fill="#3F3D3F"/>
<path d="M157.448 21.0327C157.813 23.5296 157.512 25.903 156.545 28.153C155.598 30.3698 154.096 32.2936 152.039 33.9243C149.983 35.555 147.463 36.7564 144.48 37.5284C141.154 38.3892 138.07 38.4974 135.227 37.8529C132.385 37.2085 129.966 35.919 127.973 33.9845C125.973 32.0236 124.576 29.512 123.784 26.4499C122.991 23.3878 122.997 20.5273 123.802 17.8686C124.6 15.1835 126.085 12.8697 128.258 10.9272C130.431 8.98468 133.181 7.583 136.507 6.72218C139.49 5.95017 142.276 5.77831 144.866 6.20661C147.455 6.63492 149.702 7.58853 151.606 9.06744C153.536 10.5395 154.95 12.4689 155.85 14.8556L150.583 16.2186C149.883 14.7098 148.898 13.5143 147.627 12.632C146.383 11.7429 144.917 11.1928 143.229 10.9819C141.534 10.7446 139.683 10.8856 137.677 11.4048C135.354 12.006 133.447 12.9643 131.957 14.2795C130.493 15.5878 129.507 17.1667 129 19.0161C128.493 20.8655 128.523 22.8857 129.09 25.0767C129.657 27.2677 130.611 29.0488 131.951 30.4199C133.292 31.7911 134.92 32.6936 136.835 33.1275C138.776 33.5545 140.908 33.4674 143.231 32.8662C145.237 32.347 146.928 31.5857 148.301 30.5823C149.675 29.5789 150.691 28.3867 151.347 27.0056C152.023 25.5913 152.302 24.0547 152.182 22.3956L157.448 21.0327Z" fill="#3F3D3F"/>
<path d="M171.051 4.57489L176.445 4.36658L177.533 32.5266L172.138 32.7349L171.051 4.57489ZM158.284 2.57098L189.019 1.38424L189.202 6.12526L158.467 7.312L158.284 2.57098Z" fill="#3F3D3F"/>
<path d="M198.767 33.5348L205.115 25.8674L205.196 25.8806L221.427 6.14947L227.24 7.09762L204.58 34.483L198.767 33.5348ZM204.617 29.6818L193.775 1.63919L199.669 2.6005L208.822 26.2648L204.617 29.6818Z" fill="#3F3D3F"/>
<path d="M216.419 41.8624L220.721 31.6914L225.166 33.5715L228.073 34.8897L249.093 43.7804L250.292 44.199L257.299 47.1626L252.997 57.3335L248.364 55.3737L250.817 49.5725L223.506 38.021L221.053 43.8222L216.419 41.8624ZM237.038 10.4374L262.428 21.1764L251.291 47.5079L246.318 45.4048L256.563 21.1828L257.868 24.399L237.865 15.9385L240.681 15.2645C240.222 16.6988 239.731 18.1047 239.208 19.4821C238.685 20.8595 238.168 22.1509 237.658 23.3563C236.32 26.5206 234.952 29.1247 233.555 31.1686C232.157 33.2125 230.769 34.6388 229.391 35.4473C228.013 36.2559 226.696 36.3946 225.44 35.8635L224.117 33.2167C225.778 32.439 227.367 30.9939 228.882 28.8814C230.422 26.7796 231.941 23.9581 233.439 20.4171C234.087 18.8852 234.711 17.2692 235.312 15.5692C235.912 13.8693 236.488 12.1587 237.038 10.4374Z" fill="#3F3D3F"/>
<path d="M256.992 52.8591L275.576 28.4532L279.741 31.6248L262.694 54.0132L261.428 52.6378L295.296 43.4691L300.893 47.731L282.309 72.1369L278.144 68.9653L295.34 46.3816L296.607 47.757L262.459 57.0219L256.992 52.8591Z" fill="#3F3D3F"/>
<path d="M312.105 81.9843L309.044 84.572L300.33 74.2642L300.366 74.1801C298.975 72.535 298.043 70.8413 297.57 69.099C297.115 67.3775 297.108 65.7226 297.551 64.1344C298.011 62.5671 298.939 61.1937 300.334 60.0142C301.729 58.8348 303.238 58.1486 304.86 57.9556C306.521 57.7658 308.162 58.0388 309.784 58.7745C311.444 59.5134 312.969 60.7054 314.36 62.3505L325.503 75.532L302.076 95.336L298.59 91.2129L320.768 72.4651L320.483 75.8659L311.663 65.4332C310.449 63.9963 309.135 63.1607 307.723 62.9263C306.329 62.7127 305.028 63.1164 303.82 64.1374C302.612 65.1584 301.987 66.383 301.945 67.8113C301.941 69.2427 302.546 70.6769 303.761 72.1137L312.105 81.9843ZM306.254 78.0402L287.659 78.2813L283.513 73.3773L302.213 73.2611L306.254 78.0402Z" fill="#3F3D3F"/>
<path d="M302.617 106.058L312.788 101.756L314.669 106.201L315.836 109.172L324.727 130.192L325.296 131.328L328.26 138.334L318.089 142.636L316.129 138.003L321.93 135.549L310.378 108.238L304.577 110.692L302.617 106.058ZM339.3 97.8703L350.039 123.26L323.708 134.397L321.605 129.425L345.827 119.18L344.522 122.396L336.062 102.393L338.552 103.871C337.224 104.581 335.893 105.248 334.558 105.872C333.223 106.495 331.953 107.062 330.747 107.572C327.583 108.911 324.788 109.826 322.361 110.32C319.935 110.813 317.946 110.87 316.394 110.49C314.842 110.11 313.8 109.293 313.269 108.037L314.163 105.216C315.897 105.815 318.043 105.884 320.601 105.424C323.171 104.989 326.226 104.022 329.767 102.524C331.299 101.876 332.872 101.152 334.487 100.35C336.102 99.5487 337.707 98.7221 339.3 97.8703Z" fill="#3F3D3F"/>
<path d="M324.008 141.961L354.339 137.371L355.122 142.548L327.299 146.758L327.347 144.889L358.048 161.878L359.1 168.834L328.769 173.424L327.986 168.248L356.052 164.001L356.004 165.869L325.036 148.755L324.008 141.961Z" fill="#3F3D3F"/>
<path d="M327.133 190.746C327.355 187.727 327.984 185.121 329.02 182.928C330.056 180.735 331.423 179.058 333.121 177.898C334.819 176.738 336.748 176.168 338.906 176.19L338.511 181.575C336.451 181.697 334.802 182.56 333.563 184.164C332.35 185.797 331.634 188.096 331.417 191.06C331.207 193.916 331.479 196.164 332.234 197.805C333.013 199.476 334.287 200.376 336.054 200.506C337.55 200.615 338.713 200.045 339.543 198.793C340.373 197.542 340.894 195.475 341.106 192.592L341.555 186.473L345.349 186.752L344.908 192.748C344.783 194.462 344.883 195.891 345.209 197.036C345.535 198.18 346.031 199.051 346.698 199.647C347.393 200.244 348.175 200.575 349.045 200.639C350.106 200.717 351.028 200.443 351.812 199.817C352.595 199.218 353.221 198.321 353.692 197.125C354.162 195.929 354.457 194.516 354.577 192.884C354.777 190.165 354.406 187.95 353.465 186.241C352.525 184.531 351.127 183.458 349.273 183.021L349.665 177.677C351.582 178.009 353.271 178.831 354.734 180.141C356.194 181.479 357.293 183.268 358.03 185.509C358.793 187.78 359.064 190.425 358.842 193.443C358.643 196.163 358.103 198.488 357.223 200.419C356.368 202.38 355.261 203.857 353.903 204.851C352.571 205.874 351.075 206.325 349.416 206.203C348.002 206.099 346.741 205.583 345.634 204.654C344.526 203.725 343.694 202.393 343.138 200.657C342.582 198.921 342.398 196.774 342.586 194.218L343.361 194.275C343.284 196.812 342.907 198.972 342.229 200.754C341.579 202.538 340.673 203.879 339.514 204.779C338.352 205.705 336.955 206.108 335.324 205.988C333.475 205.853 331.898 205.163 330.595 203.919C329.29 202.702 328.323 200.977 327.695 198.743C327.093 196.512 326.906 193.846 327.133 190.746Z" fill="#3F3D3F"/>
<path d="M331.73 214.122L336.005 215.386L329.931 235.939L325.655 234.676L331.73 214.122ZM350.367 234.473L316.776 239.899L318.41 234.368L349.658 229.657L349.067 231.657L325.4 210.716L327.035 205.186L352.28 228.001L350.367 234.473Z" fill="#3F3D3F"/>
<path d="M316.751 239.21L343.39 254.422L340.794 258.968L316.357 245.014L317.554 243.578L331.099 275.946L327.611 282.055L300.972 266.844L303.568 262.297L328.218 276.373L327.021 277.809L313.344 245.177L316.751 239.21ZM347.66 264.679L345.469 268.515C344.421 268.261 343.465 268.312 342.603 268.668C341.751 269.06 341.034 269.766 340.453 270.784C339.858 271.826 339.614 272.802 339.723 273.711C339.855 274.635 340.297 275.483 341.048 276.258L338.857 280.094C337.193 278.609 336.279 276.91 336.116 274.996C335.977 273.095 336.475 271.15 337.611 269.161C338.747 267.172 340.169 265.755 341.876 264.909C343.608 264.076 345.536 264 347.66 264.679Z" fill="#3F3D3F"/>
<path d="M321.648 290.129L317.971 294.082L295.506 273.193L299.183 269.24L321.648 290.129ZM304.658 308.4L300.982 312.354L278.517 291.465L282.193 287.511L304.658 308.4ZM310.265 283.51L293.498 301.541L290.024 298.311L306.79 280.279L310.265 283.51Z" fill="#3F3D3F"/>
<path d="M276.367 301.927L278.883 305.607L261.19 317.702L258.674 314.022L276.367 301.927ZM277.958 329.476L248.491 312.461L253.252 309.207L280.451 325.295L278.729 326.472L273.612 295.288L278.373 292.033L283.53 325.667L277.958 329.476Z" fill="#3F3D3F"/>
<path d="M233.481 318.111L231.42 327.849L231.343 327.875L226.133 352.887L220.545 354.748L227.893 319.971L233.481 318.111ZM230.09 324.24L252.717 344.038L247.051 345.924L227.954 329.219L230.09 324.24Z" fill="#3F3D3F"/>
<path d="M184.881 358.945L181.694 328.435L187.023 327.879L189.968 356.07L187.272 353.884L211.477 351.355L209.291 354.051L206.346 325.86L211.715 325.299L214.903 355.809L184.881 358.945Z" fill="#3F3D3F"/>
<path d="M171.47 334.865L170.922 339.29L149.652 336.653L150.201 332.229L171.47 334.865ZM154.437 356.576L143.597 324.322L149.321 325.031L159.072 355.09L157.002 354.833L173.797 328.065L179.52 328.774L161.134 357.406L154.437 356.576Z" fill="#3F3D3F"/>
<path d="M144.478 323.971L134.352 352.928L129.256 351.145L137.883 326.474L139.09 327.98L111.418 344.907L105.897 342.977L139.923 322.378L144.478 323.971ZM125.605 333.706L120.786 335.964L115.599 313.872L121.429 315.911L125.605 333.706Z" fill="#3F3D3F"/>
<path d="M102.859 305.047C105.818 306.899 108.063 309.093 109.596 311.629C111.129 314.165 111.89 316.829 111.88 319.621C111.854 322.436 111.003 325.185 109.324 327.866C107.646 330.547 105.553 332.502 103.047 333.731C100.525 334.984 97.7892 335.475 94.8384 335.204C91.8875 334.933 88.9329 333.871 85.9745 332.02C83.0161 330.168 80.7704 327.974 79.2375 325.438C77.7045 322.902 76.9506 320.226 76.9758 317.411C76.9865 314.619 77.831 311.882 79.5093 309.201C81.1877 306.52 83.2875 304.553 85.8088 303.301C88.3156 302.071 91.0444 301.592 93.9953 301.863C96.9461 302.134 99.9007 303.195 102.859 305.047ZM100.298 309.138C98.195 307.822 96.1419 307.067 94.1391 306.875C92.1362 306.683 90.2774 307.031 88.5628 307.92C86.8251 308.795 85.3558 310.191 84.1549 312.109C82.954 314.028 82.3399 315.96 82.3125 317.905C82.2619 319.835 82.7607 321.66 83.8086 323.377C84.8566 325.095 86.4322 326.612 88.5354 327.929C90.6155 329.231 92.6686 329.985 94.6946 330.192C96.6974 330.384 98.5678 330.043 100.305 329.168C102.02 328.279 103.478 326.876 104.679 324.957C105.88 323.039 106.505 321.115 106.556 319.184C106.583 317.239 106.073 315.407 105.025 313.69C103.954 311.958 102.378 310.44 100.298 309.138Z" fill="#3F3D3F"/>
<path d="M62.5192 292.453L61.3045 292.916C59.6078 291.181 58.4702 289.522 57.8918 287.941C57.2941 286.341 57.1687 284.866 57.5158 283.516C57.8436 282.147 58.5377 280.933 59.5982 279.872C60.755 278.715 62.0565 277.973 63.5026 277.645C64.9294 277.298 66.4333 277.395 68.0143 277.935C69.5761 278.494 71.1475 279.564 72.7286 281.145L87.1893 295.606L74.3482 305.034L65.4982 317.297L51.5579 303.357C49.5527 301.351 48.4826 299.337 48.3477 297.312C48.1741 295.288 48.9068 293.456 50.5457 291.817C51.4133 290.949 52.4738 290.313 53.7271 289.908C54.9418 289.503 56.3011 289.474 57.805 289.821C59.2704 290.168 60.8418 291.046 62.5192 292.453ZM82.2727 292.829L81.7521 296.3L70.0967 284.644C68.9013 283.449 67.7058 282.793 66.5104 282.678C65.2764 282.562 64.1485 283.015 63.1266 284.037C62.0468 285.117 61.6034 286.351 61.7962 287.739C61.9697 289.108 62.8181 290.554 64.3413 292.077L73.7408 301.477L70.7908 304.427L61.7673 295.403C60.7454 294.381 59.6174 293.813 58.3834 293.697C57.1302 293.6 55.9733 294.082 54.9129 295.143C54.1223 295.933 53.756 296.859 53.8138 297.919C53.8524 298.999 54.4019 300.069 55.4624 301.13L66.1923 311.86L62.7217 312.38L70.6751 301.361L82.2727 292.829Z" fill="#3F3D3F"/>
<path d="M63.823 271.62L38.0633 288.277L35.1317 283.743L57.079 269.552L57.1087 271.481L24.871 267.875L21.6951 262.964L61.2023 267.567L63.823 271.62ZM42.9458 267.731L37.7548 266.558L47.2106 245.929L50.5642 251.115L42.9458 267.731Z" fill="#3F3D3F"/>
<path d="M47.4491 246.257L18.6483 256.818L16.8459 251.903L43.2659 242.215L43.5923 244.056L10.1152 233.547L7.69331 226.942L36.4941 216.381L38.2965 221.296L11.6461 231.069L11.3197 229.228L45.0835 239.806L47.4491 246.257Z" fill="#3F3D3F"/>
</svg>
