<svg width="448" height="448" viewBox="0 0 448 448" fill="none" xmlns="http://www.w3.org/2000/svg">
<path d="M443.767 257.851L413.885 255.194L414.349 249.974L441.96 252.43L439.357 254.608L441.465 230.901L443.643 233.504L416.032 231.049L416.5 225.79L446.382 228.447L443.767 257.851Z" fill="#3F3D3F"/>
<path d="M418.458 266.781L422.661 267.938L417.102 288.147L412.899 286.991L418.458 266.781ZM437.058 286.335L404.313 292.263L405.809 286.824L436.275 281.639L435.734 283.606L412.206 263.568L413.702 258.13L438.808 279.971L437.058 286.335Z" fill="#3F3D3F"/>
<path d="M403.581 293.179L430.756 305.887L428.52 310.67L405.366 299.843L406.95 298.817L420.692 327.41L418.269 332.592L401.581 297.455L403.581 293.179ZM411.192 312.503L412.914 317.414L390.907 320.282L393.465 314.811L411.192 312.503Z" fill="#3F3D3F"/>
<path d="M390.304 351.369L386.671 348.886L398.5 331.582L402.133 334.065L390.304 351.369ZM398.352 335.697L388.487 326.384L392.352 325.974L379.214 345.193L375.45 342.62L390.213 321.023L401.242 331.47L414.979 337.954L400.329 359.385L396.565 356.811L409.59 337.758L410.611 341.509L398.352 335.697Z" fill="#3F3D3F"/>
<path d="M386.08 372.094L382.471 375.948L362.356 357.108L365.966 353.254L386.08 372.094ZM396.338 364.712L375.775 386.666L372.388 383.494L392.951 361.54L396.338 364.712Z" fill="#3F3D3F"/>
<path d="M370.458 391.521L366.257 394.72L348.082 370.852L352.283 367.653L370.458 391.521ZM351.045 406.303L346.844 409.502L328.67 385.634L332.871 382.435L351.045 406.303ZM360.589 383.249L341.431 397.837L338.62 394.145L357.778 379.557L360.589 383.249Z" fill="#3F3D3F"/>
<path d="M324.206 388.856L337.317 415.84L332.568 418.147L320.296 392.891L323.45 393.982L312.153 399.471C310.498 400.275 309.395 401.33 308.843 402.635C308.304 403.965 308.377 405.337 309.065 406.753C309.764 408.192 310.797 409.098 312.165 409.471C313.544 409.869 315.061 409.665 316.716 408.861L328.48 403.145L330.351 406.995L318.37 412.816C316.331 413.806 314.394 414.303 312.557 414.306C310.72 414.309 309.079 413.861 307.635 412.962C306.201 412.087 305.071 410.798 304.244 409.095C303.428 407.416 303.113 405.731 303.3 404.039C303.497 402.372 304.165 400.817 305.303 399.375C306.44 397.933 308.028 396.717 310.067 395.726L324.206 388.856ZM310.261 428.985L305.512 431.293L292.402 404.309L297.151 402.001L310.261 428.985Z" fill="#3F3D3F"/>
<path d="M268.122 428.94L266.955 424.698L287.165 419.139L288.332 423.381L268.122 428.94ZM284.393 422.183L282.883 408.7L286.098 410.886L263.652 417.06L262.442 412.664L287.665 405.725L289.33 420.825L295.622 434.651L270.592 441.536L269.382 437.139L291.636 431.018L289.991 434.541L284.393 422.183Z" fill="#3F3D3F"/>
<path d="M218.849 446.502L217.576 416.529L222.811 416.307L223.987 444.002L221.488 441.706L245.266 440.696L242.97 443.196L241.794 415.501L247.069 415.276L248.342 445.249L218.849 446.502Z" fill="#3F3D3F"/>
<path d="M191.175 443.719C188.954 443.426 187.09 442.777 185.582 441.772C184.047 440.763 182.937 439.487 182.253 437.944C181.539 436.424 181.304 434.739 181.547 432.889C181.791 431.038 182.457 429.458 183.544 428.149C184.601 426.862 186.001 425.931 187.745 425.354C189.462 424.773 191.431 424.629 193.652 424.921L207.016 426.682L206.421 431.203L193.255 429.468C191.457 429.232 189.998 429.483 188.878 430.223C187.732 430.96 187.06 432.082 186.862 433.589C186.663 435.096 187.022 436.353 187.938 437.362C188.828 438.366 190.171 438.987 191.969 439.224L204.62 440.891L201.935 443.2L205.603 415.361L210.838 416.05L206.919 445.793L191.175 443.719Z" fill="#3F3D3F"/>
<path d="M153.6 421.517L154.847 417.297L174.947 423.238L173.7 427.457L153.6 421.517ZM170.986 424.361L176.817 412.112L178.395 415.665L156.07 409.066L157.362 404.693L182.449 412.108L175.896 425.812L173.947 440.878L149.051 433.52L150.343 429.147L172.477 435.688L169.221 437.813L170.986 424.361Z" fill="#3F3D3F"/>
<path d="M158.516 399.307L153.652 408.95L149.438 406.825L146.688 405.349L126.759 395.298L125.616 394.811L118.973 391.461L123.836 381.818L128.229 384.033L125.455 389.533L151.349 402.592L154.123 397.092L158.516 399.307ZM136.34 428.622L112.268 416.481L124.858 391.517L129.573 393.894L117.991 416.859L116.929 413.635L135.893 423.2L133.101 423.673C133.642 422.304 134.214 420.964 134.814 419.654C135.415 418.344 136.004 417.118 136.58 415.975C138.093 412.975 139.598 410.524 141.096 408.621C142.593 406.718 144.041 405.417 145.438 404.718C146.836 404.019 148.13 403.97 149.321 404.571L150.438 407.24C148.766 407.89 147.122 409.196 145.505 411.158C143.865 413.108 142.198 415.762 140.505 419.119C139.772 420.572 139.057 422.108 138.36 423.727C137.663 425.347 136.989 426.978 136.34 428.622Z" fill="#3F3D3F"/>
<path d="M96.1423 406.05L74.8074 389.307L93.328 365.707L97.4817 368.966L80.3686 390.773L79.9622 387.404L96.7029 400.541L93.8295 400.574C95.0116 398.722 96.1616 396.998 97.2795 395.4C98.3973 393.803 99.4831 392.333 100.537 390.991C102.841 388.054 104.97 385.86 106.922 384.409C108.874 382.958 110.731 382.211 112.493 382.17C114.216 382.133 115.928 382.781 117.627 384.115C118.278 384.625 118.86 385.201 119.374 385.841C119.904 386.461 120.314 387.105 120.604 387.773L117.838 391.297C117.237 390.249 116.548 389.42 115.772 388.811C114.22 387.593 112.521 387.446 110.676 388.372C108.811 389.28 106.586 391.382 104.001 394.675C102.881 396.102 101.658 397.769 100.331 399.676C98.9868 401.604 97.5907 403.729 96.1423 406.05Z" fill="#3F3D3F"/>
<path d="M79.1453 349.398C81.3678 351.988 82.8253 354.691 83.5179 357.505C84.2104 360.319 84.1451 363.027 83.3219 365.631C82.4784 368.252 80.8829 370.569 78.5351 372.584C76.1874 374.598 73.6643 375.814 70.9659 376.231C68.2472 376.666 65.5499 376.328 62.8739 375.215C60.1979 374.103 57.7487 372.251 55.5262 369.661C53.3037 367.07 51.8461 364.368 51.1536 361.554C50.4611 358.74 50.5365 356.022 51.38 353.402C52.2031 350.798 53.7886 348.489 56.1364 346.475C58.4841 344.461 61.0173 343.236 63.736 342.801C66.4344 342.384 69.1216 342.731 71.7976 343.843C74.4735 344.956 76.9228 346.807 79.1453 349.398ZM75.563 352.471C73.9829 350.629 72.2859 349.327 70.472 348.564C68.6582 347.801 66.8214 347.585 64.9617 347.916C63.0847 348.226 61.3062 349.102 59.6264 350.543C57.9465 351.984 56.8105 353.609 56.2184 355.417C55.6089 357.205 55.5432 359.053 56.0213 360.962C56.4994 362.871 57.5284 364.746 59.1085 366.588C60.6712 368.409 62.3682 369.711 64.1994 370.494C66.0133 371.257 67.8588 371.483 69.7358 371.173C71.5955 370.843 73.3652 369.957 75.0451 368.516C76.7249 367.074 77.8696 365.46 78.4791 363.672C79.0713 361.864 79.1283 360.006 78.6502 358.097C78.1547 356.168 77.1257 354.293 75.563 352.471Z" fill="#3F3D3F"/>
<path d="M66.08 336.961L43.9561 334.957L45.4587 330.034L63.3004 331.598L66.08 336.961ZM43.8248 294.026L34.8005 309.472L29.9108 307.861L41.0452 288.664L43.8248 294.026ZM47.9625 312.786L48.1648 314.394L17.2455 307.939L14.6132 302.86L52.679 311.108L54.4278 314.481L39.2246 350.341L36.6107 345.298L49.1589 316.311L50.3555 317.403L28.1246 328.926L25.7316 324.31L47.9625 312.786Z" fill="#3F3D3F"/>
<path d="M18.9634 267.93L23.2103 266.779L28.6926 287.01L24.4457 288.161L18.9634 267.93ZM25.6589 284.226L39.1469 282.768L36.9491 285.974L30.86 263.505L35.2613 262.312L42.1037 287.561L26.9981 289.168L13.148 295.408L6.35795 270.352L10.7592 269.159L16.796 291.435L13.2799 289.777L25.6589 284.226Z" fill="#3F3D3F"/>
<path d="M4.42049 261.208L3.9123 255.953L33.773 253.065L34.2812 258.321L4.42049 261.208ZM2.07201 236.922L1.56381 231.666L31.4245 228.779L31.9327 234.034L2.07201 236.922ZM16.6488 257.173L14.3311 233.204L18.9496 232.758L21.2673 256.726L16.6488 257.173Z" fill="#3F3D3F"/>
<path d="M31.1795 221.926L1.31875 219.038L1.81155 213.942L29.2038 216.591L28.712 218.352L3.65184 194.911L4.31403 188.063L34.1748 190.95L33.682 196.047L6.05084 193.375L6.5426 191.614L31.8263 215.237L31.1795 221.926Z" fill="#3F3D3F"/>
<path d="M26.056 159.371L29.8277 160.44L26.2304 173.14L26.1425 173.157C25.5684 175.184 24.7042 176.865 23.5497 178.201C22.4026 179.511 21.064 180.421 19.534 180.93C18.0114 181.413 16.3905 181.411 14.6715 180.925C12.9524 180.438 11.5714 179.589 10.5283 178.379C9.46688 177.136 8.79134 175.656 8.5017 173.939C8.19367 172.189 8.32671 170.3 8.90081 168.273L13.5009 152.032L42.3655 160.208L40.9266 165.288L13.6015 157.548L16.5153 155.921L12.8744 168.775C12.373 170.545 12.4131 172.067 12.9948 173.341C13.5837 174.588 14.6222 175.423 16.1104 175.844C17.5985 176.266 18.9333 176.103 20.1147 175.357C21.2777 174.578 22.11 173.303 22.6114 171.533L26.056 159.371ZM26.0554 166.272L36.4136 181.221L34.7022 187.263L24.3875 172.161L26.0554 166.272Z" fill="#3F3D3F"/>
<path d="M52.3383 82.4935L76.5987 100.141L73.5163 104.378L51.0997 88.0722L54.4523 87.5432L40.452 106.79L39.9229 103.437L62.3395 119.743L59.2336 124.013L34.9732 106.366L52.3383 82.4935Z" fill="#3F3D3F"/>
<path d="M78.6372 87.8081L75.6222 84.6587L90.7627 70.1643L93.7777 73.3138L78.6372 87.8081ZM72.7043 61.4813L103.852 73.1939L99.7779 77.0941L70.9668 65.9134L72.4404 64.5027L82.3547 93.7737L78.2806 97.6739L67.9368 66.0454L72.7043 61.4813Z" fill="#3F3D3F"/>
<path d="M104.802 72.8305L87.962 48.0026L92.3318 45.0388L106.679 66.1922L104.794 66.2627L107.626 34.6656L112.36 31.4548L108.708 70.1811L104.802 72.8305ZM108.155 52.3346L109.191 47.2341L129.563 56.0357L124.565 59.4261L108.155 52.3346Z" fill="#3F3D3F"/>
<path d="M145.248 29.8583L147.112 33.8441L128.125 42.7226L126.261 38.7369L145.248 29.8583ZM130.346 39.2556L134.101 52.2921L130.565 50.6782L151.653 40.8169L153.585 44.9476L129.888 56.0289L125.708 41.4244L117.18 28.8533L140.696 17.8568L142.627 21.9875L121.72 31.764L122.749 28.0152L130.346 39.2556Z" fill="#3F3D3F"/>
<path d="M160.238 13.8735L165.313 12.4154L172.924 38.9036L167.849 40.3617L160.238 13.8735ZM147.646 14.9528L176.557 6.64587L177.838 11.1054L148.928 19.4124L147.646 14.9528Z" fill="#3F3D3F"/>
<path d="M182.894 5.27348L188.141 4.68448L191.488 34.4972L186.241 35.0862L182.894 5.27348ZM207.142 2.55158L212.389 1.96258L215.735 31.7753L210.488 32.3643L207.142 2.55158ZM187.117 17.4383L211.047 14.7521L211.565 19.3631L187.635 22.0493L187.117 17.4383Z" fill="#3F3D3F"/>
<path d="M222.314 31.1758L224.972 1.29371L230.231 1.76143L227.744 29.731L225.602 27.1713L238.112 28.2839C239.945 28.4469 241.434 28.1108 242.579 27.2756C243.727 26.4139 244.37 25.1994 244.51 23.6323C244.651 22.0386 244.232 20.7296 243.253 19.7055C242.275 18.6548 240.87 18.0479 239.037 17.8849L226.009 16.7262L226.388 12.4631L239.655 13.643C241.913 13.8438 243.83 14.4158 245.406 15.3592C246.982 16.3025 248.158 17.5315 248.933 19.0461C249.711 20.5342 250.016 22.2212 249.849 24.1071C249.683 25.9664 249.085 27.5731 248.055 28.9271C247.026 30.2546 245.653 31.2435 243.936 31.8939C242.218 32.5443 240.23 32.7691 237.972 32.5683L222.314 31.1758ZM254.933 3.9583L260.193 4.42603L257.535 34.3081L252.276 33.8404L254.933 3.9583Z" fill="#3F3D3F"/>
<path d="M290.804 25.5144L289.621 29.7523L269.433 24.1168L270.616 19.8788L290.804 25.5144ZM273.376 22.9335L267.731 35.27L266.1 31.7415L288.522 38.0008L287.296 42.3929L262.1 35.3592L268.444 21.5568L270.166 6.46391L295.17 13.4438L293.944 17.8359L271.714 11.6303L274.937 9.4569L273.376 22.9335Z" fill="#3F3D3F"/>
<path d="M342.095 35.6606L327.702 61.9823L323.105 59.4682L336.404 35.147L337.358 38.4042L316.476 26.9854L319.734 26.0312L306.434 50.3524L301.802 47.8192L316.195 21.4975L342.095 35.6606Z" fill="#3F3D3F"/>
<path d="M363.716 51.6288C365.473 53.0181 366.742 54.5309 367.522 56.1674C368.322 57.8203 368.621 59.4845 368.419 61.1599C368.253 62.8309 367.592 64.3985 366.434 65.8628C365.276 67.327 363.895 68.3428 362.291 68.9101C360.724 69.4729 359.044 69.5554 357.251 69.1575C355.479 68.7762 353.714 67.8909 351.957 66.5016L341.383 58.141L344.211 54.564L354.628 62.8005C356.051 63.9252 357.432 64.4566 358.773 64.3948C360.134 64.3495 361.287 63.7307 362.229 62.5384C363.172 61.3461 363.508 60.0822 363.238 58.7469C362.989 57.4281 362.154 56.2064 360.731 55.0818L350.722 47.1678L354.21 46.5606L336.795 68.5874L332.653 65.3126L351.259 41.7797L363.716 51.6288Z" fill="#3F3D3F"/>
<path d="M384.51 89.6153L381.288 92.6115L367.015 77.2619L370.238 74.2657L384.51 89.6153ZM370.996 78.3123L359.739 85.8845L360.191 82.0234L376.044 99.072L372.704 102.177L354.89 83.0195L367.51 74.5628L376.86 62.5909L394.538 81.6021L391.198 84.7073L375.482 67.8051L379.366 67.635L370.996 78.3123Z" fill="#3F3D3F"/>
<path d="M369.243 106.453L378.334 100.622L380.882 104.595L382.499 107.264L394.55 126.052L395.287 127.052L399.304 133.315L390.213 139.146L387.557 135.004L392.742 131.679L377.084 107.269L371.899 110.594L369.243 106.453ZM403.243 92.4853L417.799 115.178L394.265 130.274L391.414 125.83L413.063 111.943L412.339 115.259L400.871 97.381L403.516 98.3931C402.353 99.2972 401.181 100.16 399.997 100.983C398.814 101.805 397.684 102.562 396.606 103.253C393.778 105.067 391.236 106.413 388.979 107.29C386.722 108.168 384.814 108.552 383.255 108.443C381.696 108.334 380.557 107.718 379.837 106.596L380.232 103.729C382.002 104.019 384.082 103.731 386.472 102.863C388.876 102.018 391.66 100.58 394.825 98.5502C396.194 97.6719 397.591 96.7128 399.015 95.6728C400.439 94.6327 401.848 93.5703 403.243 92.4853Z" fill="#3F3D3F"/>
<path d="M426.435 132.256L436.247 157.539L408.28 168.394L406.369 163.471L432.211 153.442L430.842 156.547L423.143 136.709L425.631 138.146C423.67 139.136 421.801 140.033 420.025 140.837C418.249 141.641 416.565 142.351 414.974 142.969C411.494 144.32 408.544 145.121 406.125 145.374C403.705 145.626 401.728 145.321 400.192 144.458C398.69 143.611 397.548 142.18 396.767 140.167C396.468 139.396 396.26 138.604 396.145 137.791C396.005 136.987 395.98 136.224 396.072 135.502L400.248 133.881C400.231 135.089 400.401 136.153 400.758 137.073C401.472 138.913 402.858 139.905 404.917 140.05C406.985 140.22 409.971 139.547 413.874 138.033C415.564 137.377 417.467 136.567 419.581 135.603C421.721 134.63 424.005 133.514 426.435 132.256Z" fill="#3F3D3F"/>
<path d="M412.248 189.703C411.66 186.341 411.787 183.273 412.628 180.5C413.47 177.727 414.909 175.431 416.946 173.613C419.01 171.79 421.565 170.612 424.612 170.079C427.659 169.546 430.449 169.789 432.983 170.808C435.542 171.822 437.689 173.491 439.421 175.813C441.154 178.136 442.315 180.979 442.903 184.341C443.491 187.703 443.364 190.771 442.523 193.544C441.682 196.317 440.229 198.615 438.166 200.438C436.129 202.256 433.586 203.432 430.539 203.965C427.492 204.498 424.689 204.257 422.129 203.243C419.596 202.225 417.463 200.554 415.73 198.231C413.997 195.908 412.837 193.066 412.248 189.703ZM416.898 188.89C417.316 191.28 418.11 193.267 419.28 194.849C420.45 196.431 421.919 197.554 423.687 198.22C425.459 198.911 427.436 199.067 429.616 198.685C431.796 198.304 433.602 197.487 435.035 196.235C436.472 195.009 437.472 193.453 438.035 191.568C438.599 189.683 438.672 187.545 438.253 185.154C437.84 182.79 437.046 180.804 435.871 179.196C434.701 177.614 433.23 176.477 431.457 175.785C429.69 175.12 427.716 174.978 425.535 175.359C423.355 175.741 421.547 176.544 420.11 177.77C418.677 179.022 417.679 180.591 417.116 182.477C416.557 184.388 416.484 186.526 416.898 188.89Z" fill="#3F3D3F"/>
</svg>
