<svg width="208" height="207" viewBox="0 0 208 207" fill="none" xmlns="http://www.w3.org/2000/svg">
<path d="M196.31 115.395L196.941 115.764C196.778 117.119 196.453 118.202 195.964 119.013C195.473 119.839 194.871 120.413 194.158 120.737C193.442 121.076 192.665 121.2 191.827 121.109C190.912 121.01 190.128 120.701 189.475 120.183C188.82 119.681 188.332 118.988 188.011 118.105C187.706 117.223 187.621 116.158 187.756 114.908L188.995 103.474L197.652 105.778L206.145 105.333L204.951 116.354C204.779 117.94 204.273 119.119 203.434 119.891C202.608 120.681 201.547 121.006 200.251 120.865C199.565 120.791 198.913 120.551 198.293 120.144C197.688 119.755 197.196 119.169 196.818 118.388C196.454 117.624 196.284 116.626 196.31 115.395ZM189.512 106.607L191.216 105.612L190.217 114.827C190.115 115.772 190.249 116.527 190.62 117.092C191.004 117.673 191.6 118.008 192.408 118.095C193.262 118.188 193.959 117.947 194.499 117.373C195.038 116.815 195.372 115.933 195.503 114.729L196.308 107.298L198.64 107.55L197.867 114.685C197.78 115.492 197.928 116.187 198.312 116.769C198.712 117.352 199.331 117.689 200.169 117.78C200.794 117.847 201.329 117.682 201.773 117.282C202.233 116.885 202.508 116.267 202.599 115.429L203.518 106.945L204.969 108.282L197.338 108.682L189.512 106.607Z" fill="#3F3D3F"/>
<path d="M191.316 135.714L191.849 136.215C191.389 137.5 190.83 138.483 190.173 139.164C189.511 139.86 188.795 140.286 188.028 140.443C187.255 140.614 186.47 140.561 185.673 140.286C184.803 139.986 184.108 139.51 183.586 138.859C183.06 138.223 182.738 137.439 182.623 136.507C182.521 135.58 182.676 134.522 183.086 133.333L186.842 122.464L194.768 126.638L203.146 128.097L199.526 138.575C199.005 140.082 198.249 141.119 197.259 141.685C196.278 142.271 195.171 142.351 193.939 141.926C193.287 141.7 192.705 141.32 192.192 140.786C191.688 140.272 191.339 139.591 191.145 138.746C190.96 137.919 191.017 136.909 191.316 135.714ZM186.647 125.633L188.53 125.043L185.503 133.803C185.193 134.702 185.155 135.468 185.391 136.101C185.636 136.753 186.143 137.212 186.911 137.477C187.722 137.758 188.455 137.679 189.11 137.24C189.76 136.815 190.282 136.03 190.678 134.885L193.119 127.82L195.336 128.586L192.993 135.369C192.727 136.137 192.717 136.847 192.962 137.5C193.222 138.157 193.75 138.624 194.547 138.899C195.141 139.104 195.699 139.062 196.221 138.772C196.758 138.487 197.164 137.946 197.439 137.149L200.226 129.083L201.343 130.71L193.814 129.399L186.647 125.633Z" fill="#3F3D3F"/>
<path d="M181.301 157.996L179.142 156.678L185.424 146.392L187.583 147.711L181.301 157.996ZM185.46 148.759L179.52 143.703L181.728 143.354L174.751 154.777L172.513 153.411L180.353 140.574L186.995 146.247L195.075 149.565L187.294 162.304L185.057 160.937L191.974 149.611L192.671 151.735L185.46 148.759Z" fill="#3F3D3F"/>
<path d="M177.387 174.015C176.517 174.965 175.596 175.629 174.625 176.008C173.644 176.398 172.677 176.5 171.724 176.313C170.773 176.149 169.902 175.704 169.11 174.979C168.319 174.254 167.794 173.419 167.536 172.475C167.279 171.553 167.302 170.586 167.605 169.575C167.898 168.574 168.479 167.599 169.349 166.65L174.586 160.935L176.519 162.707L171.36 168.336C170.656 169.105 170.293 169.875 170.272 170.647C170.242 171.429 170.548 172.116 171.193 172.706C171.837 173.297 172.548 173.543 173.325 173.444C174.091 173.356 174.827 172.928 175.531 172.159L180.488 166.75L180.691 168.776L168.787 157.867L170.838 155.629L183.556 167.283L177.387 174.015Z" fill="#3F3D3F"/>
<path d="M157.695 179.034L158.729 180.444L146.403 177.245L149.426 175.029L159.058 177.665L157.982 178.453L158.386 168.461L161.335 166.299L160.631 178.993L159.651 177.657L171.07 180.552L168.028 182.782L159.244 180.408L160.357 179.593L160.014 188.656L157.065 190.818L157.695 179.034Z" fill="#3F3D3F"/>
<path d="M125.284 193.022C124.957 191.641 125.01 190.297 125.442 188.989C125.864 187.701 126.612 186.55 127.684 185.536C128.757 184.522 130.11 183.726 131.743 183.148C133.564 182.503 135.287 182.292 136.911 182.514C138.535 182.737 139.952 183.341 141.164 184.327C142.38 185.328 143.285 186.667 143.878 188.344C144.472 190.02 144.608 191.623 144.287 193.152C143.971 194.695 143.252 196.064 142.129 197.258C141.007 198.452 139.535 199.372 137.714 200.017C136.08 200.595 134.528 200.827 133.056 200.713C131.585 200.6 130.28 200.175 129.141 199.44C127.988 198.709 127.101 197.698 126.481 196.405L129.364 195.384C129.83 196.195 130.441 196.816 131.196 197.249C131.936 197.686 132.784 197.923 133.74 197.958C134.701 198.009 135.731 197.839 136.83 197.45C138.102 197 139.123 196.37 139.894 195.561C140.65 194.756 141.125 193.824 141.319 192.763C141.513 191.702 141.397 190.572 140.973 189.372C140.548 188.172 139.927 187.221 139.109 186.518C138.291 185.816 137.335 185.39 136.241 185.24C135.133 185.096 133.942 185.249 132.67 185.699C131.572 186.088 130.662 186.597 129.942 187.226C129.221 187.855 128.71 188.572 128.41 189.378C128.1 190.203 128.019 191.078 128.167 192.001L125.284 193.022Z" fill="#3F3D3F"/>
<path d="M117.489 203.185L114.476 203.558L112.527 187.831L115.54 187.458L117.489 203.185ZM124.737 203.7L107.573 205.827L107.245 203.18L124.409 201.052L124.737 203.7Z" fill="#3F3D3F"/>
<path d="M94.1895 205.141C92.9046 205.052 91.8116 204.745 90.9104 204.222C89.994 203.697 89.3121 203.004 88.8648 202.143C88.4011 201.296 88.2065 200.337 88.2809 199.266C88.3554 198.196 88.6814 197.265 89.2589 196.475C89.8201 195.7 90.5908 195.116 91.5711 194.723C92.5361 194.329 93.6611 194.176 94.946 194.266L102.678 194.803L102.496 197.419L94.8788 196.889C93.8386 196.817 93.0103 197.013 92.394 197.477C91.7623 197.941 91.4161 198.608 91.3555 199.48C91.2949 200.352 91.5453 201.061 92.1067 201.607C92.6529 202.153 93.446 202.461 94.4862 202.534L101.805 203.043L100.346 204.463L101.467 188.356L104.495 188.567L103.299 205.775L94.1895 205.141Z" fill="#3F3D3F"/>
<path d="M85.0611 190.544L84.3779 192.956L72.7821 189.671L73.4653 187.259L85.0611 190.544ZM73.7372 201.153L70.4715 182.3L73.5918 183.184L76.4406 200.724L75.312 200.404L86.9359 186.963L90.0561 187.847L77.3885 202.188L73.7372 201.153Z" fill="#3F3D3F"/>
<path d="M61.7507 197.086L59.0977 195.61L67.4855 180.536L70.1384 182.013L61.7507 197.086ZM49.4909 190.264L46.838 188.788L55.2257 173.714L57.8786 175.191L49.4909 190.264ZM63.8354 189.981L51.7364 183.249L53.0337 180.917L65.1327 187.65L63.8354 189.981Z" fill="#3F3D3F"/>
<path d="M52.8281 172.184L41.1277 184.859L38.9644 182.862L49.6976 171.235L50.3333 172.072L30.886 175.405L27.9792 172.722L39.6796 160.047L41.8429 162.043L31.0161 173.772L30.3804 172.935L49.9888 169.563L52.8281 172.184Z" fill="#3F3D3F"/>
<path d="M14.0508 153.315L27.0182 144.862L26.7498 146.135L24.5896 142.821L29.8112 139.418L31.356 141.788L28.0227 143.96L27.6352 142.566L37.6703 157.961L23.2193 167.38L21.5614 164.837L34.5288 156.385L34.2605 157.658L27.3904 147.118L28.6635 147.386L15.6961 155.839L14.0508 153.315Z" fill="#3F3D3F"/>
<path d="M25.901 139.593L9.49344 144.918L8.55626 142.031L23.9137 137.047L23.0419 138.756L20.8125 131.887C20.4859 130.881 19.9727 130.168 19.273 129.751C18.5586 129.338 17.7712 129.271 16.9107 129.55C16.0356 129.834 15.4375 130.351 15.1164 131.1C14.7807 131.854 14.7761 132.734 15.1027 133.74L17.4244 140.894L15.0836 141.653L12.7193 134.368C12.317 133.129 12.1878 131.986 12.3319 130.939C12.476 129.893 12.8613 128.994 13.488 128.243C14.1 127.496 14.9238 126.955 15.9593 126.619C16.9802 126.287 17.9649 126.242 18.9134 126.482C19.8473 126.727 20.6798 127.231 21.4108 127.993C22.1418 128.755 22.7084 129.756 23.1107 130.996L25.901 139.593ZM4.15433 128.467L3.21715 125.579L19.6247 120.254L20.5619 123.142L4.15433 128.467Z" fill="#3F3D3F"/>
<path d="M10.4161 93.7386L9.77545 93.3866C9.90115 92.0276 10.1974 90.9363 10.6643 90.1127C11.1323 89.2739 11.7187 88.683 12.4234 88.3403C13.1294 87.9822 13.9026 87.8373 14.7432 87.9055C15.6602 87.98 16.4522 88.2673 17.1192 88.7676C17.7875 89.2526 18.2939 89.9321 18.6383 90.8062C18.9674 91.679 19.0811 92.742 18.9794 93.9953L18.0489 105.458L9.33275 103.389L0.855473 104.062L1.75244 93.0122C1.88146 91.4228 2.35515 90.2305 3.17349 89.4355C3.97779 88.6239 5.02947 88.2708 6.32853 88.3763C7.01627 88.4321 7.67508 88.6548 8.30496 89.0444C8.92079 89.4174 9.42818 89.9893 9.82713 90.7601C10.212 91.5144 10.4083 92.5072 10.4161 93.7386ZM17.4482 102.34L15.7715 103.38L16.5215 94.1419C16.5984 93.1943 16.444 92.4434 16.0582 91.889C15.6584 91.3181 15.0535 90.9998 14.2435 90.934C13.3877 90.8646 12.6974 91.1239 12.1728 91.712C11.6494 92.2849 11.3387 93.175 11.2407 94.3824L10.6359 101.833L8.29758 101.643L8.87818 94.4906C8.94394 93.6806 8.77692 92.9901 8.37713 92.4193C7.96206 91.8471 7.33424 91.527 6.49367 91.4587C5.86707 91.4079 5.3371 91.5879 4.90376 91.9989C4.45514 92.4086 4.19671 93.0337 4.12848 93.8743L3.43808 102.379L1.95119 101.082L9.56908 100.477L17.4482 102.34Z" fill="#3F3D3F"/>
<path d="M14.856 73.262L14.3102 72.7758C14.7363 71.4793 15.2688 70.4818 15.9078 69.7832C16.5515 69.0701 17.255 68.6252 18.0185 68.4485C18.7866 68.2572 19.5727 68.2887 20.3767 68.5429C21.2539 68.8203 21.9617 69.2773 22.5002 69.9139C23.0433 70.536 23.385 71.3114 23.5255 72.2403C23.6513 73.1646 23.5247 74.2262 23.1456 75.425L19.6784 86.3899L11.6446 82.4262L3.23107 81.1889L6.57353 70.6188C7.05432 69.0984 7.78235 68.042 8.75761 67.4499C9.72288 66.8384 10.8269 66.7292 12.0695 67.1222C12.7274 67.3302 13.3198 67.6944 13.8468 68.2149C14.3637 68.716 14.7306 69.3869 14.9472 70.2273C15.1539 71.0485 15.1235 72.0601 14.856 73.262ZM19.7892 83.2166L17.9224 83.8566L20.7171 75.0189C21.0037 74.1125 21.0209 73.346 20.7687 72.7195C20.5066 72.0737 19.9881 71.6283 19.2132 71.3833C18.3945 71.1244 17.6638 71.223 17.021 71.6791C16.3829 72.1206 15.8812 72.9188 15.516 74.0738L13.2623 81.2009L11.0254 80.4936L13.189 73.6515C13.434 72.8767 13.4255 72.1664 13.1633 71.5206C12.8865 70.8702 12.3461 70.4179 11.542 70.1636C10.9426 69.9741 10.3858 70.0312 9.87158 70.335C9.34278 70.6341 8.95124 71.1858 8.69697 71.9898L6.12425 80.1258L4.96477 78.5289L12.5252 79.6411L19.7892 83.2166Z" fill="#3F3D3F"/>
<path d="M24.0815 50.9952L26.2785 52.2497L20.3021 62.7156L18.1051 61.461L24.0815 50.9952ZM20.1959 60.3506L26.2823 65.23L24.0858 65.6443L30.7237 54.02L33.0006 55.3202L25.5415 68.3825L18.736 62.9072L10.5618 59.8286L17.9639 46.8661L20.2408 48.1663L13.6599 59.6907L12.9005 57.5884L20.1959 60.3506Z" fill="#3F3D3F"/>
<path d="M27.683 34.6624C28.5287 33.691 29.4322 33.0036 30.3933 32.6002C31.3644 32.1852 32.3284 32.0588 33.2851 32.2208C34.2404 32.3613 35.1228 32.7839 35.9323 33.4887C36.7418 34.1934 37.2877 35.0143 37.5698 35.9512C37.8505 36.8664 37.8522 37.8336 37.5749 38.8526C37.3076 39.8601 36.7512 40.8496 35.9054 41.821L30.8159 47.6669L28.8383 45.9452L33.8524 40.186C34.537 39.3996 34.8798 38.6206 34.8808 37.8489C34.8918 37.0656 34.5677 36.387 33.9086 35.8131C33.2494 35.2392 32.5326 35.0117 31.7583 35.1304C30.9941 35.2376 30.2697 35.6844 29.585 36.4708L24.7673 42.0045L24.5135 39.9842L36.691 50.5862L34.6975 52.876L21.6873 41.5491L27.683 34.6624Z" fill="#3F3D3F"/>
<path d="M47.2507 29.0749L46.1816 27.692L58.5852 30.575L55.6191 32.8679L45.9233 30.4791L46.9787 29.6632L46.8301 39.6622L43.9368 41.8988L44.3173 29.1913L45.3301 30.5015L33.8415 27.8996L36.8258 25.5926L45.6671 27.7409L44.5753 28.5849L44.6868 19.5157L47.5801 17.2791L47.2507 29.0749Z" fill="#3F3D3F"/>
<path d="M79.0032 14.3048C79.3655 15.6767 79.348 17.022 78.9508 18.3405C78.5623 19.6393 77.8454 20.8095 76.7999 21.8513C75.7545 22.8931 74.423 23.7244 72.8053 24.3453C71.0016 25.0376 69.2852 25.2939 67.656 25.1145C66.0269 24.935 64.5939 24.3681 63.3572 23.4139C62.115 22.4453 61.1753 21.1308 60.5379 19.4702C59.9006 17.8097 59.7223 16.2111 60.003 14.6745C60.2782 13.1235 60.9612 11.7364 62.0519 10.513C63.1426 9.28958 64.5898 8.33174 66.3935 7.63947C68.0112 7.01862 69.557 6.74559 71.031 6.82039C72.505 6.89519 73.8208 7.28527 74.9784 7.99065C76.1504 8.69053 77.0634 9.67865 77.7175 10.955L74.8616 12.0511C74.3745 11.2526 73.748 10.6473 72.9821 10.235C72.2305 9.81725 71.3763 9.60308 70.4197 9.5925C69.4576 9.5676 68.4325 9.76393 67.3446 10.1815C66.0848 10.665 65.0804 11.3215 64.3312 12.151C63.5963 12.9751 63.146 13.9198 62.9801 14.9854C62.8142 16.0509 62.9593 17.1777 63.4153 18.3659C63.8713 19.554 64.5174 20.4886 65.3536 21.1695C66.1898 21.8504 67.1566 22.2513 68.2541 22.3721C69.3659 22.4873 70.5516 22.3032 71.8114 21.8197C72.8993 21.4022 73.7953 20.8694 74.4992 20.2215C75.2031 19.5736 75.6946 18.843 75.9737 18.0296C76.2616 17.1965 76.3195 16.3202 76.1473 15.4009L79.0032 14.3048Z" fill="#3F3D3F"/>
<path d="M86.135 3.91708L89.1351 3.45132L91.5662 19.1107L88.5662 19.5765L86.135 3.91708ZM78.8742 3.62452L95.9655 0.971103L96.3748 3.60752L79.2835 6.26094L78.8742 3.62452Z" fill="#3F3D3F"/>
<path d="M109.953 1.21882C111.24 1.27348 112.341 1.55045 113.256 2.04973C114.186 2.54965 114.886 3.22398 115.357 4.07271C115.843 4.90677 116.063 5.85998 116.018 6.93235C115.972 8.00472 115.672 8.94346 115.116 9.74859C114.575 10.5391 113.821 11.1439 112.851 11.5631C111.897 11.983 110.777 12.1657 109.49 12.111L101.746 11.7821L101.857 9.16242L109.487 9.48648C110.528 9.53073 111.351 9.31244 111.955 8.83162C112.574 8.35146 112.902 7.67477 112.939 6.80156C112.976 5.92834 112.706 5.22628 112.13 4.69535C111.57 4.16508 110.768 3.87782 109.727 3.83357L102.396 3.52221L103.816 2.06316L103.131 18.1946L100.098 18.0658L100.83 0.831313L109.953 1.21882Z" fill="#3F3D3F"/>
<path d="M119.405 15.5177L120.024 13.0883L131.703 16.0636L131.084 18.493L119.405 15.5177ZM130.444 4.61117L134.209 23.3714L131.066 22.5707L127.753 5.11234L128.889 5.40193L117.626 19.1469L114.484 18.3463L126.766 3.67429L130.444 4.61117Z" fill="#3F3D3F"/>
<path d="M142.294 8.20023L144.989 9.59739L137.051 24.9122L134.356 23.5151L142.294 8.20023ZM154.75 14.6568L157.445 16.054L149.507 31.3688L146.812 29.9716L154.75 14.6568ZM140.42 15.3635L152.713 21.7355L151.485 24.1041L139.192 17.7322L140.42 15.3635Z" fill="#3F3D3F"/>
<path d="M151.92 32.7332L163.247 19.7231L165.467 21.6562L155.077 33.5908L154.417 32.7725L173.759 28.8752L176.743 31.4728L165.416 44.483L163.195 42.5499L173.677 30.5111L174.336 31.3295L154.834 35.2704L151.92 32.7332Z" fill="#3F3D3F"/>
<path d="M191.563 50.8533L178.816 59.6356L179.052 58.356L181.296 61.6136L176.164 65.15L174.559 62.8204L177.835 60.5629L178.258 61.9472L167.832 46.8144L182.037 37.0273L183.759 39.5274L171.013 48.3096L171.248 47.0301L178.386 57.3901L177.107 57.1545L189.853 48.3722L191.563 50.8533Z" fill="#3F3D3F"/>
<path d="M179.965 64.5955L196.205 58.7788L197.229 61.637L182.029 67.0814L182.848 65.3463L185.284 72.1453C185.641 73.1414 186.175 73.8376 186.887 74.2341C187.613 74.6253 188.403 74.6685 189.254 74.3634C190.12 74.0532 190.703 73.5189 191.001 72.7605C191.314 71.997 191.292 71.1172 190.935 70.1211L188.399 63.0406L190.716 62.2108L193.299 69.4212C193.738 70.6482 193.902 71.7867 193.789 72.8368C193.677 73.8869 193.318 74.797 192.715 75.567C192.125 76.3318 191.318 76.8978 190.293 77.2649C189.283 77.6268 188.3 77.702 187.345 77.4904C186.404 77.2736 185.557 76.7953 184.803 76.0554C184.049 75.3156 183.453 74.3321 183.013 73.1051L179.965 64.5955ZM202.037 75.0618L203.061 77.92L186.821 83.7367L185.798 80.8785L202.037 75.0618Z" fill="#3F3D3F"/>
</svg>
