<svg width="351" height="47" viewBox="0 0 351 47" fill="none" xmlns="http://www.w3.org/2000/svg">
<g clip-path="url(#clip0_350_7887)">
<path d="M30.55 16.259C31.5267 18.7886 31.5476 21.5875 30.6087 24.1314C29.6699 26.6752 27.8357 28.7895 25.4498 30.0781C23.0639 31.3666 20.2901 31.741 17.6479 31.1311C15.0058 30.5212 12.6767 28.9689 11.097 26.765L0 32.76L46.798 46.655L60.651 0L30.55 16.259ZM44.662 16.001C45.2569 16.1776 45.7861 16.5267 46.1827 17.0041C46.5792 17.4814 46.8253 18.0657 46.8898 18.6829C46.9543 19.3002 46.8343 19.9227 46.545 20.4717C46.2557 21.0208 45.8101 21.4717 45.2646 21.7675C44.719 22.0633 44.098 22.1906 43.48 22.1335C42.862 22.0763 42.2749 21.8372 41.7929 21.4463C41.3108 21.0555 40.9555 20.5305 40.7718 19.9377C40.5881 19.3449 40.5844 18.7109 40.761 18.116C40.9979 17.3183 41.542 16.6474 42.2736 16.2507C43.0051 15.8541 43.8642 15.7643 44.662 16.001ZM36.779 37.884C35.6259 37.5416 34.6003 36.865 33.8318 35.9398C33.0632 35.0145 32.5863 33.8821 32.4614 32.6858C32.3364 31.4895 32.569 30.283 33.1297 29.2189C33.6905 28.1548 34.5542 27.2808 35.6116 26.7076C36.669 26.1343 37.8727 25.8875 39.0704 25.9983C40.2681 26.1092 41.406 26.5727 42.3403 27.3302C43.2746 28.0878 43.9632 29.1054 44.3192 30.2543C44.6751 31.4032 44.6824 32.6319 44.34 33.785C44.1127 34.5506 43.7368 35.264 43.2338 35.8843C42.7309 36.5047 42.1106 37.0199 41.4085 37.4005C40.7064 37.7812 39.9362 38.0198 39.1418 38.1027C38.3475 38.1857 37.5446 38.1114 36.779 37.884Z" fill="white"/>
<path d="M86.1242 15.0933H91.3652V37.9123H86.1242V27.3093C85.0646 28.4646 83.7539 29.3613 82.2932 29.9303C80.6888 30.5619 78.9773 30.8767 77.2532 30.8573C74.1232 30.8573 71.7412 30.0039 70.1072 28.2973C68.4752 26.5902 67.6589 24.0972 67.6582 20.8183V15.0933H72.8592V20.6163C72.7401 22.2495 73.2527 23.8661 74.2912 25.1323C74.8529 25.6721 75.522 26.0875 76.255 26.3514C76.988 26.6154 77.7683 26.722 78.5452 26.6643C79.9422 26.6698 81.3228 26.3633 82.5862 25.7673C83.9315 25.1124 85.1339 24.1978 86.1242 23.0763V15.0933Z" fill="white"/>
<path d="M102.09 32.9328L116.12 15.0928H122.893V37.9128H117.732V19.8908L103.54 37.9128H96.9277V15.0928H102.09V32.9328Z" fill="white"/>
<path d="M133.617 32.9328L147.648 15.0928H154.422V37.9128H149.262V19.8908L135.07 37.9128H128.457V15.0928H133.617V32.9328Z" fill="white"/>
<path d="M165.146 32.9328L179.176 15.0928H185.949V37.9128H180.789V19.8908L166.597 37.9128H159.984V15.0928H165.146V32.9328Z" fill="white"/>
<path d="M212.611 28.0355C213.081 28.4546 213.453 28.9712 213.702 29.5492C213.951 30.1271 214.07 30.7525 214.052 31.3815C214.061 32.7426 213.562 34.058 212.652 35.0705C211.538 36.2589 210.125 37.1259 208.56 37.5805C206.488 38.2184 204.327 38.5213 202.159 38.4775C200.009 38.5159 197.867 38.1851 195.828 37.4995C194.174 36.9617 192.691 35.9993 191.525 34.7085C190.488 33.5109 189.887 31.9967 189.822 30.4135H194.901C194.993 31.0522 195.238 31.6591 195.616 32.1823C195.993 32.7055 196.492 33.1294 197.069 33.4175C198.654 34.1771 200.404 34.5304 202.159 34.4455C203.814 34.5281 205.466 34.2426 206.996 33.6095C207.503 33.4052 207.936 33.0522 208.238 32.5971C208.54 32.1419 208.698 31.6058 208.689 31.0595C208.693 30.6044 208.557 30.1593 208.299 29.7842C208.041 29.4092 207.674 29.1223 207.248 28.9625C205.804 28.4235 204.263 28.1903 202.723 28.2775H198.208V24.6485H202.602C204.009 24.7299 205.413 24.4525 206.683 23.8425C207.094 23.6536 207.443 23.353 207.691 22.9752C207.939 22.5973 208.075 22.1573 208.085 21.7055C208.081 21.2045 207.928 20.716 207.646 20.3017C207.365 19.8874 206.967 19.5658 206.502 19.3775C205.165 18.7753 203.705 18.4954 202.24 18.5605C200.608 18.4908 198.982 18.816 197.502 19.5085C196.954 19.7655 196.475 20.1506 196.107 20.6313C195.738 21.112 195.491 21.6742 195.385 22.2705H190.304C190.441 20.8031 191.037 19.4163 192.009 18.3085C193.141 17.0443 194.577 16.0901 196.181 15.5365C198.19 14.827 200.311 14.4855 202.441 14.5285C204.392 14.4951 206.335 14.7778 208.195 15.3655C209.655 15.7996 210.98 16.5972 212.046 17.6835C212.921 18.5897 213.41 19.8007 213.408 21.0605C213.418 22.2448 212.975 23.3881 212.168 24.2555C211.162 25.2773 209.874 25.9758 208.469 26.2615C209.99 26.4473 211.427 27.0627 212.611 28.0355Z" fill="white"/>
<path d="M240.866 30.4949C240.305 30.5039 239.749 30.3963 239.232 30.1789C238.766 29.9779 238.348 29.6792 238.007 29.3029C237.663 28.9165 237.402 28.4643 237.238 27.9739C237.057 27.4345 236.968 26.8687 236.973 26.2999C236.967 25.7254 237.061 25.1543 237.25 24.6119C237.42 24.1214 237.686 23.6699 238.033 23.2839C238.375 22.908 238.796 22.6114 239.265 22.4149C239.78 22.2033 240.332 22.0982 240.888 22.1059C241.314 22.1024 241.738 22.1617 242.146 22.2819C242.517 22.3923 242.867 22.5629 243.183 22.7869C243.486 23.0032 243.747 23.2738 243.952 23.5849C244.165 23.9081 244.319 24.2672 244.405 24.6449L242.639 25.1229C242.525 24.7248 242.286 24.3739 241.958 24.1219C241.643 23.887 241.259 23.7629 240.866 23.7689C240.557 23.7616 240.251 23.8259 239.972 23.9569C239.724 24.0782 239.508 24.2572 239.343 24.4789C239.168 24.7197 239.041 24.9925 238.971 25.2819C238.887 25.6146 238.846 25.9567 238.849 26.2999C238.846 26.6488 238.889 26.9966 238.979 27.3339C239.053 27.6225 239.183 27.8939 239.361 28.1329C239.528 28.3511 239.743 28.5275 239.99 28.6479C240.264 28.775 240.564 28.8376 240.866 28.8309C241.265 28.8547 241.659 28.7406 241.984 28.5078C242.274 28.2624 242.486 27.9378 242.595 27.5738L244.405 27.9778C244.199 28.7283 243.746 29.3871 243.118 29.8468C242.455 30.2952 241.666 30.5221 240.866 30.4949Z" fill="white"/>
<path d="M247.525 30.2741V23.9761H244.928V22.3271H251.896V23.9761H249.299V30.2741H247.525Z" fill="white"/>
<path d="M254.34 33.8061L255.65 30.2231L252.434 22.3271H254.282L256.496 28.0151L258.66 22.3271H260.433L256.004 33.8061H254.34Z" fill="white"/>
<path d="M260.939 28.6256H261.712C261.863 28.4415 261.969 28.2248 262.021 27.9926C262.099 27.6946 262.153 27.391 262.182 27.0846C262.217 26.7526 262.237 26.4086 262.245 26.0506C262.253 25.6916 262.256 25.3536 262.256 25.0346V22.3276H268.489V28.6256H269.518V32.0186H267.745V30.2736H262.712V32.0186H260.939V28.6256ZM266.715 28.6256V23.9756H263.89V25.8956C263.893 26.4197 263.862 26.9434 263.798 27.4636C263.755 27.8589 263.669 28.2485 263.543 28.6256H266.715Z" fill="white"/>
<path d="M277.88 22.3271V30.2741H276.106V25.0501L272.751 30.2741H270.977V22.3271H272.751V27.5511L276.106 22.3271H277.88Z" fill="white"/>
<path d="M279.52 30.2736L281.043 27.2636C280.587 27.074 280.207 26.7411 279.958 26.3156C279.723 25.8954 279.602 25.421 279.608 24.9396C279.605 24.594 279.665 24.2509 279.785 23.9266C279.901 23.6128 280.086 23.3289 280.326 23.0956C280.589 22.845 280.903 22.6531 281.246 22.5326C281.668 22.3869 282.112 22.3171 282.559 22.3265H286.194V30.2735H284.428V27.5515H282.757L281.374 30.2735L279.52 30.2736ZM282.831 23.7616C282.609 23.7569 282.388 23.788 282.176 23.8536C282.011 23.9062 281.859 23.9912 281.728 24.1036C281.612 24.2045 281.524 24.3322 281.47 24.4756C281.362 24.7751 281.362 25.103 281.47 25.4026C281.524 25.5458 281.612 25.6735 281.728 25.7745C281.858 25.8873 282.011 25.9723 282.176 26.0245C282.388 26.0901 282.609 26.1212 282.831 26.1165H284.428V23.7615L282.831 23.7616Z" fill="white"/>
<path d="M290.607 28.6256H291.38C291.531 28.4415 291.637 28.2248 291.689 27.9926C291.767 27.6947 291.821 27.391 291.85 27.0846C291.885 26.7526 291.905 26.4086 291.913 26.0506C291.921 25.6916 291.924 25.3536 291.924 25.0346V22.3276H298.157V28.6256H299.186V32.0186H297.413V30.2736H292.38V32.0186H290.607V28.6256ZM296.383 28.6256V23.9756H293.558V25.8956C293.561 26.4197 293.53 26.9434 293.466 27.4636C293.423 27.8589 293.337 28.2485 293.211 28.6256H296.383Z" fill="white"/>
<path d="M307.549 22.3271V30.2741H305.775V25.0501L302.421 30.2741H300.646V22.3271H302.421V27.5511L305.775 22.3271H307.549Z" fill="white"/>
<path d="M312.405 30.4949C311.557 30.5361 310.718 30.3037 310.013 29.8319C309.706 29.5995 309.449 29.3079 309.257 28.9743C309.064 28.6407 308.941 28.2719 308.895 27.8899L310.558 27.5949C310.584 27.8126 310.654 28.0229 310.764 28.2129C310.862 28.3801 310.995 28.5245 311.154 28.6369C311.317 28.7499 311.5 28.8323 311.694 28.8799C311.912 28.9327 312.136 28.9586 312.361 28.9569C312.773 28.9807 313.183 28.8807 313.538 28.6699C313.669 28.5861 313.777 28.4695 313.851 28.3316C313.924 28.1937 313.961 28.0391 313.957 27.8829C313.969 27.7338 313.941 27.5842 313.876 27.4497C313.81 27.3151 313.71 27.2005 313.586 27.1179C313.292 26.948 312.956 26.8658 312.618 26.8809H311.441V25.4839H312.618C312.919 25.5065 313.219 25.4288 313.472 25.2629C313.563 25.1905 313.636 25.0973 313.685 24.9911C313.733 24.8848 313.756 24.7686 313.751 24.6519C313.754 24.4992 313.718 24.3482 313.645 24.2139C313.572 24.0877 313.471 23.9796 313.351 23.8979C313.215 23.8074 313.064 23.7427 312.905 23.7069C312.721 23.6636 312.534 23.6424 312.346 23.6439C311.958 23.6253 311.573 23.7198 311.238 23.9159C310.95 24.1142 310.753 24.4185 310.69 24.7619L309.028 24.4609C309.112 24.0658 309.273 23.6911 309.502 23.3579C309.705 23.0673 309.964 22.8196 310.264 22.6289C310.565 22.4387 310.897 22.303 311.246 22.2279C311.616 22.1456 311.995 22.1047 312.375 22.1059C312.814 22.0998 313.253 22.1556 313.678 22.2719C314.029 22.3665 314.358 22.5303 314.645 22.7539C314.904 22.9602 315.111 23.2247 315.249 23.5259C315.393 23.8526 315.465 24.2068 315.459 24.5639C315.469 24.8962 315.394 25.2256 315.242 25.5209C315.075 25.7999 314.827 26.0206 314.531 26.1529C314.877 26.2652 315.173 26.4938 315.37 26.7999C315.582 27.1365 315.69 27.5289 315.679 27.9269C315.682 28.2822 315.607 28.6339 315.459 28.9569C315.309 29.2737 315.089 29.5519 314.815 29.7699C314.508 30.0108 314.158 30.1919 313.785 30.3039C313.337 30.4371 312.872 30.5015 312.405 30.4949Z" fill="white"/>
<path d="M320.497 22.1064C320.956 22.069 321.418 22.1257 321.853 22.273C322.289 22.4204 322.691 22.6553 323.032 22.9634C323.639 23.694 323.936 24.6328 323.86 25.5794V30.2734H322.094V29.2064C321.824 29.6348 321.443 29.9812 320.99 30.2082C320.537 30.4353 320.031 30.5342 319.526 30.4944C319.154 30.4993 318.783 30.4422 318.429 30.3254C318.119 30.2227 317.832 30.0588 317.586 29.8434C317.354 29.6345 317.169 29.3772 317.046 29.0894C316.916 28.7799 316.85 28.4465 316.854 28.1104C316.837 27.7654 316.9 27.4211 317.04 27.1052C317.181 26.7894 317.393 26.511 317.66 26.2924C318.348 25.8046 319.156 25.5144 319.996 25.4534L322.087 25.1964C322.099 24.9843 322.068 24.772 321.995 24.5723C321.923 24.3725 321.812 24.1892 321.667 24.0334C321.338 23.7668 320.92 23.6356 320.497 23.6664C320.1 23.6458 319.705 23.7373 319.357 23.9304C319.062 24.128 318.847 24.426 318.753 24.7694L317.142 24.3354C317.319 23.6572 317.738 23.0672 318.319 22.6764C318.973 22.2746 319.731 22.0762 320.497 22.1064ZM320.247 26.7194C319.801 26.7461 319.369 26.8869 318.992 27.1284C318.863 27.2244 318.758 27.3507 318.689 27.4963C318.619 27.6418 318.586 27.8022 318.592 27.9634C318.592 28.6654 319.046 29.0161 319.952 29.0154C320.184 29.0172 320.415 28.9852 320.637 28.9204C320.839 28.8609 321.031 28.7727 321.207 28.6584C321.375 28.551 321.523 28.4165 321.645 28.2604C321.765 28.1119 321.86 27.9446 321.925 27.7654C322.009 27.5717 322.058 27.365 322.071 27.1544C322.087 26.9374 322.094 26.7414 322.094 26.5654V26.4914L320.247 26.7194Z" fill="white"/>
<path d="M332.663 22.3272V30.2742H330.889V25.0502L327.534 30.2742H325.76V22.3272H327.534V27.5512L330.889 22.3272H332.663ZM329.447 21.4292C329.154 21.4309 328.863 21.3744 328.592 21.2629C328.321 21.1515 328.074 20.9874 327.867 20.7801C327.66 20.5728 327.495 20.3264 327.384 20.0552C327.273 19.784 327.216 19.4934 327.218 19.2002H328.601C328.599 19.35 328.638 19.4974 328.715 19.6262C328.788 19.7527 328.894 19.8581 329.02 19.9322C329.15 20.0069 329.297 20.0461 329.447 20.0461C329.597 20.0461 329.744 20.0069 329.874 19.9322C330 19.8575 330.104 19.7523 330.179 19.6262C330.255 19.4974 330.295 19.35 330.293 19.2002H331.676C331.679 19.5939 331.576 19.9812 331.378 20.3212C331.182 20.6599 330.901 20.9408 330.562 21.1354C330.222 21.33 329.838 21.4313 329.447 21.4292Z" fill="white"/>
<path d="M334.705 30.2741V22.3271H336.479V25.4771H340.048V22.3271H341.821V30.2741H340.048V27.1251H336.479V30.2741H334.705Z" fill="white"/>
<path d="M347.083 22.1064C347.542 22.069 348.003 22.1257 348.439 22.273C348.875 22.4204 349.277 22.6553 349.618 22.9634C350.225 23.694 350.522 24.6328 350.446 25.5794V30.2734H348.68V29.2064C348.41 29.6348 348.028 29.9812 347.576 30.2082C347.123 30.4353 346.617 30.5342 346.112 30.4944C345.74 30.4993 345.369 30.4422 345.015 30.3254C344.705 30.2227 344.418 30.0588 344.172 29.8434C343.94 29.6345 343.755 29.3772 343.632 29.0894C343.501 28.7799 343.436 28.4465 343.44 28.1104C343.423 27.7654 343.486 27.4211 343.626 27.1052C343.766 26.7894 343.979 26.511 344.246 26.2924C344.934 25.8046 345.742 25.5144 346.582 25.4534L348.673 25.1964C348.685 24.9843 348.654 24.772 348.581 24.5723C348.509 24.3725 348.398 24.1892 348.253 24.0334C347.924 23.7668 347.506 23.6356 347.083 23.6664C346.686 23.6458 346.291 23.7373 345.943 23.9304C345.647 24.1281 345.433 24.426 345.339 24.7694L343.728 24.3354C343.905 23.6572 344.324 23.0671 344.905 22.6764C345.559 22.2746 346.317 22.0762 347.083 22.1064ZM346.833 26.7194C346.387 26.7461 345.955 26.8869 345.578 27.1284C345.449 27.2244 345.344 27.3507 345.275 27.4963C345.205 27.6418 345.172 27.8022 345.178 27.9634C345.178 28.6654 345.632 29.0161 346.538 29.0154C346.77 29.0172 347.001 28.9852 347.223 28.9204C347.425 28.8609 347.617 28.7727 347.793 28.6584C347.96 28.551 348.108 28.4165 348.231 28.2604C348.351 28.1119 348.446 27.9446 348.511 27.7654C348.595 27.5717 348.644 27.365 348.657 27.1544C348.673 26.9374 348.68 26.7414 348.68 26.5654V26.4914L346.833 26.7194Z" fill="white"/>
<path d="M226.288 9.02539H225.684V43.9804H226.288V9.02539Z" fill="white"/>
</g>
<defs>
<clipPath id="clip0_350_7887">
<rect width="350.446" height="46.655" fill="white"/>
</clipPath>
</defs>
</svg>
